<mxfile modified="2021-11-15T06:18:03.453Z" host="app.diagrams.net" agent="5.0 (Macintosh; Intel Mac OS X 10_15_7) AppleWebKit/537.36 (KHTML, like Gecko) Chrome/95.0.4638.54 Safari/537.36" etag="TzKS3A-0OjNhER85NMwo" version="15.7.3" type="github">
  <diagram id="Ht1M8jgEwFfnCIfOTk4-" name="Page-1">
    <mxGraphModel dx="4322" dy="4168" grid="1" gridSize="10" guides="1" tooltips="1" connect="1" arrows="1" fold="1" page="1" pageScale="1" pageWidth="1169" pageHeight="827" math="0" shadow="0">
      <root>
        <mxCell id="0" />
        <mxCell id="1" parent="0" />
        <mxCell id="ILyfzjguqehABtg-XD1y-14" value="" style="rounded=1;arcSize=10;dashed=0;fillColor=none;gradientColor=none;strokeWidth=3;" vertex="1" parent="1">
          <mxGeometry x="-964.5" y="-1520" width="1704.5" height="771" as="geometry" />
        </mxCell>
        <mxCell id="ILyfzjguqehABtg-XD1y-5" value="Public subnet" style="points=[[0,0],[0.25,0],[0.5,0],[0.75,0],[1,0],[1,0.25],[1,0.5],[1,0.75],[1,1],[0.75,1],[0.5,1],[0.25,1],[0,1],[0,0.75],[0,0.5],[0,0.25]];outlineConnect=0;gradientColor=none;html=1;whiteSpace=wrap;fontSize=12;fontStyle=0;shape=mxgraph.aws4.group;grIcon=mxgraph.aws4.group_security_group;grStroke=0;strokeColor=#248814;fillColor=#E9F3E6;verticalAlign=top;align=left;spacingLeft=30;fontColor=#248814;dashed=0;" vertex="1" parent="1">
          <mxGeometry x="-790" y="-1200" width="710" height="357" as="geometry" />
        </mxCell>
        <mxCell id="ILyfzjguqehABtg-XD1y-3" value="EC2 instance contents" style="points=[[0,0],[0.25,0],[0.5,0],[0.75,0],[1,0],[1,0.25],[1,0.5],[1,0.75],[1,1],[0.75,1],[0.5,1],[0.25,1],[0,1],[0,0.75],[0,0.5],[0,0.25]];outlineConnect=0;gradientColor=none;html=1;whiteSpace=wrap;fontSize=12;fontStyle=0;shape=mxgraph.aws4.group;grIcon=mxgraph.aws4.group_ec2_instance_contents;strokeColor=#D86613;fillColor=none;verticalAlign=top;align=left;spacingLeft=30;fontColor=#D86613;dashed=0;" vertex="1" parent="1">
          <mxGeometry x="-770" y="-1161.04" width="670" height="279.29" as="geometry" />
        </mxCell>
        <mxCell id="ILyfzjguqehABtg-XD1y-6" value="VPC" style="points=[[0,0],[0.25,0],[0.5,0],[0.75,0],[1,0],[1,0.25],[1,0.5],[1,0.75],[1,1],[0.75,1],[0.5,1],[0.25,1],[0,1],[0,0.75],[0,0.5],[0,0.25]];outlineConnect=0;gradientColor=none;html=1;whiteSpace=wrap;fontSize=12;fontStyle=0;shape=mxgraph.aws4.group;grIcon=mxgraph.aws4.group_vpc;strokeColor=#248814;fillColor=none;verticalAlign=top;align=left;spacingLeft=30;fontColor=#AAB7B8;dashed=0;" vertex="1" parent="1">
          <mxGeometry x="-840" y="-1280" width="1450" height="486.5" as="geometry" />
        </mxCell>
        <mxCell id="ILyfzjguqehABtg-XD1y-7" value="Private subnet" style="points=[[0,0],[0.25,0],[0.5,0],[0.75,0],[1,0],[1,0.25],[1,0.5],[1,0.75],[1,1],[0.75,1],[0.5,1],[0.25,1],[0,1],[0,0.75],[0,0.5],[0,0.25]];outlineConnect=0;gradientColor=none;html=1;whiteSpace=wrap;fontSize=12;fontStyle=0;shape=mxgraph.aws4.group;grIcon=mxgraph.aws4.group_security_group;grStroke=0;strokeColor=#147EBA;fillColor=#E6F2F8;verticalAlign=top;align=left;spacingLeft=30;fontColor=#147EBA;dashed=0;" vertex="1" parent="1">
          <mxGeometry x="160" y="-1200" width="401" height="357" as="geometry" />
        </mxCell>
        <mxCell id="ILyfzjguqehABtg-XD1y-8" value="" style="outlineConnect=0;dashed=0;verticalLabelPosition=bottom;verticalAlign=top;align=center;html=1;shape=mxgraph.aws3.ec2;fillColor=#F58534;gradientColor=none;" vertex="1" parent="1">
          <mxGeometry x="-740" y="-1090.5" width="135" height="140" as="geometry" />
        </mxCell>
        <mxCell id="ILyfzjguqehABtg-XD1y-10" value="" style="outlineConnect=0;dashed=0;verticalLabelPosition=bottom;verticalAlign=top;align=center;html=1;shape=mxgraph.aws3.s3;fillColor=#E05243;gradientColor=none;" vertex="1" parent="1">
          <mxGeometry x="-717.5" y="-1490" width="90" height="110" as="geometry" />
        </mxCell>
        <mxCell id="ILyfzjguqehABtg-XD1y-11" value="" style="outlineConnect=0;dashed=0;verticalLabelPosition=bottom;verticalAlign=top;align=center;html=1;shape=mxgraph.aws3.application_load_balancer;fillColor=#F58534;gradientColor=none;" vertex="1" parent="1">
          <mxGeometry x="-242.03" y="-1350" width="80" height="80" as="geometry" />
        </mxCell>
        <mxCell id="ILyfzjguqehABtg-XD1y-17" value="&lt;b style=&quot;font-size: 30px;&quot;&gt;&lt;font style=&quot;font-size: 30px;&quot;&gt;EC2&lt;/font&gt;&lt;/b&gt;" style="text;html=1;align=center;verticalAlign=middle;resizable=0;points=[];autosize=1;strokeColor=none;fillColor=none;fontSize=30;" vertex="1" parent="1">
          <mxGeometry x="-707.5" y="-943.5" width="70" height="40" as="geometry" />
        </mxCell>
        <mxCell id="ILyfzjguqehABtg-XD1y-19" value="" style="sketch=0;outlineConnect=0;fontColor=#232F3E;gradientColor=none;fillColor=#232F3D;strokeColor=none;dashed=0;verticalLabelPosition=bottom;verticalAlign=top;align=center;html=1;fontSize=12;fontStyle=0;aspect=fixed;pointerEvents=1;shape=mxgraph.aws4.user;" vertex="1" parent="1">
          <mxGeometry x="-925" y="-1810" width="150" height="150" as="geometry" />
        </mxCell>
        <mxCell id="ILyfzjguqehABtg-XD1y-21" value="" style="sketch=0;outlineConnect=0;fontColor=#232F3E;gradientColor=none;fillColor=#232F3D;strokeColor=none;dashed=0;verticalLabelPosition=bottom;verticalAlign=top;align=center;html=1;fontSize=12;fontStyle=0;aspect=fixed;pointerEvents=1;shape=mxgraph.aws4.client;" vertex="1" parent="1">
          <mxGeometry x="-130" y="870" width="78" height="76" as="geometry" />
        </mxCell>
        <mxCell id="ILyfzjguqehABtg-XD1y-70" style="edgeStyle=none;rounded=1;orthogonalLoop=1;jettySize=auto;html=1;exitX=0.5;exitY=1.04;exitDx=0;exitDy=0;exitPerimeter=0;fontSize=45;fontColor=#3DFFFF;endSize=13;strokeWidth=10;" edge="1" parent="1" source="ILyfzjguqehABtg-XD1y-54">
          <mxGeometry relative="1" as="geometry">
            <mxPoint x="-202" y="-1351" as="targetPoint" />
          </mxGeometry>
        </mxCell>
        <mxCell id="ILyfzjguqehABtg-XD1y-22" value="" style="outlineConnect=0;dashed=0;verticalLabelPosition=bottom;verticalAlign=top;align=center;html=1;shape=mxgraph.aws3.route_53;fillColor=#F58536;gradientColor=none;fontSize=21;" vertex="1" parent="1">
          <mxGeometry x="-262.03" y="-1598.75" width="120" height="125.5" as="geometry" />
        </mxCell>
        <mxCell id="ILyfzjguqehABtg-XD1y-23" value="" style="outlineConnect=0;dashed=0;verticalLabelPosition=bottom;verticalAlign=top;align=center;html=1;shape=mxgraph.aws3.certificate_manager_2;fillColor=#759C3E;gradientColor=none;fontSize=21;" vertex="1" parent="1">
          <mxGeometry x="-130" y="-1426.25" width="87.25" height="73" as="geometry" />
        </mxCell>
        <mxCell id="ILyfzjguqehABtg-XD1y-24" value="" style="shape=image;html=1;verticalAlign=top;verticalLabelPosition=bottom;labelBackgroundColor=#ffffff;imageAspect=0;aspect=fixed;image=https://cdn4.iconfinder.com/data/icons/logos-3/181/MySQL-128.png;fontSize=21;" vertex="1" parent="1">
          <mxGeometry x="351" y="-1118" width="188" height="188" as="geometry" />
        </mxCell>
        <mxCell id="ILyfzjguqehABtg-XD1y-25" value="" style="outlineConnect=0;dashed=0;verticalLabelPosition=bottom;verticalAlign=top;align=center;html=1;shape=mxgraph.aws3.rds;fillColor=#2E73B8;gradientColor=none;fontSize=21;" vertex="1" parent="1">
          <mxGeometry x="178.5" y="-1094" width="135" height="140" as="geometry" />
        </mxCell>
        <mxCell id="ILyfzjguqehABtg-XD1y-29" value="" style="sketch=0;aspect=fixed;html=1;points=[];align=center;image;fontSize=12;image=img/lib/mscae/Docker.svg;" vertex="1" parent="1">
          <mxGeometry x="517" y="-566.82" width="200" height="164" as="geometry" />
        </mxCell>
        <mxCell id="ILyfzjguqehABtg-XD1y-32" value="" style="shape=image;verticalLabelPosition=bottom;labelBackgroundColor=#ffffff;verticalAlign=top;aspect=fixed;imageAspect=0;image=data:image/svg+xml,PHN2ZyB4bWxucz0iaHR0cDovL3d3dy53My5vcmcvMjAwMC9zdmciIGlkPSJMYXllcl8xIiB2aWV3Qm94PSIwIC0wLjAwMDAwMTQzMDUxMTQ3NDYwOTM3NSAzOTUuOTAwMDI0NDE0MDYyNSAxMzkuMjAwMDEyMjA3MDMxMjUiIHdpZHRoPSIyNTAwLjAwMDE1NDE2ODExMzYiIGhlaWdodD0iODc5LjAwMDA3NzA4MzE5MzEiPjxzdHlsZT4uc3Qwe2ZpbGw6I2MwMH08L3N0eWxlPjxwYXRoIGNsYXNzPSJzdDAiIGQ9Ik0zNDQuNiAxMjEuMXYxOC4xaDMyLjdjNi43IDAgMTguMi00LjkgMTguNi0xOC42di03YzAtMTEuNy05LjYtMTguNi0xOC42LTE4LjZIMzYxdi04LjRoMzIuM1Y2OC40aC0zMWMtOCAwLTE4LjcgNi42LTE4LjcgMTguOXY2LjNjMCAxMi4zIDEwLjYgMTguNiAxOC43IDE4LjYgMjIuNS4xLTUuNCAwIDE1LjQgMHY4LjhtLTIwOC4zLTQuM3MxNy41LTEuNSAxNy41LTI0LjEtMjEuMi0yNC43LTIxLjItMjQuN2gtMzguMnY3MS4zaDE5LjJWMTIybDE2LjYgMTcuMmgyOC40bC0yMi4zLTIyLjV6bS03LjQtMTQuNmgtMTUuM1Y4NS44aDE1LjRzNC4zIDEuNiA0LjMgOC4xLTQuNCA4LjItNC40IDguMnptNzIuMy0zMy43aC0xOS41Yy0xMy45IDAtMTguNiAxMi42LTE4LjYgMTguNnY1Mi4yaDE5LjV2LTEyLjVIMjM0djEyLjVoMTguOVY4N2MwLTE1LjItMTMuOC0xOC42LTE4LjYtMTguNnptLS4zIDM4LjFoLTE4LjRWODkuMnMwLTMuOSA2LjEtMy45aDYuN2M1LjQgMCA1LjUgMy45IDUuNSAzLjl2MTcuM2guMXpNMjYxLjggNjguNGgyMC4zdjcwLjhoLTIwLjN6TTMxMC42IDEyMC45VjY4LjRoLTIwLjJ2NzAuOGg0Ny41di0xOC4zeiIvPjxwYXRoIGNsYXNzPSJzdDAiIGQ9Ik03IDEzOS4yaDc5cy0xNS4xLTY4LjkgMzQuOS05Ni44YzEwLjktNS4zIDQ1LjYtMjUuMSAxMDIuNCAxNi45IDEuOC0xLjUgMy41LTIuNyAzLjUtMi43cy01Mi01MS45LTEwOS45LTQ2LjFDODcuOCAxMy4xIDUyIDM5LjYgMzEgNzQuNlM3IDEzOS4yIDcgMTM5LjJ6Ii8+PHBhdGggY2xhc3M9InN0MCIgZD0iTTcgMTM5LjJoNzlzLTE1LjEtNjguOSAzNC45LTk2LjhjMTAuOS01LjMgNDUuNi0yNS4xIDEwMi40IDE2LjkgMS44LTEuNSAzLjUtMi43IDMuNS0yLjdzLTUyLTUxLjktMTA5LjktNDYuMUM4Ny44IDEzLjEgNTIgMzkuNiAzMSA3NC42UzcgMTM5LjIgNyAxMzkuMnoiLz48cGF0aCBjbGFzcz0ic3QwIiBkPSJNNyAxMzkuMmg3OXMtMTUuMS02OC45IDM0LjktOTYuOGMxMC45LTUuMyA0NS42LTI1LjEgMTAyLjQgMTYuOSAxLjgtMS41IDMuNS0yLjcgMy41LTIuN3MtNTItNTEuOS0xMDkuOS00Ni4xYy0yOS4yIDIuNi02NSAyOS4xLTg2IDY0LjFTNyAxMzkuMiA3IDEzOS4yek0xNzEuNiAxNi4xbC40LTYuN2MtLjktLjUtMy40LTEuNy05LjctMy41bC0uNCA2LjZjMy4zIDEuMSA2LjUgMi4zIDkuNyAzLjZ6Ii8+PHBhdGggY2xhc3M9InN0MCIgZD0iTTE2Mi4xIDM3LjNsLS40IDYuM2MzLjMuMSA2LjYuNSA5LjkgMS4ybC40LTYuMmMtMy40LS43LTYuNy0xLjEtOS45LTEuM3ptLTM3LTMxLjJoMWwtMi02LjFjLTMuMSAwLTYuMy4yLTkuNi42bDEuOSA1LjljMi45LS4zIDUuOC0uNCA4LjctLjR6bTQuOCAzNi44bDIuMyA2LjljMi45LTEuNCA1LjgtMi42IDguNy0zLjVsLTIuMi02LjZjLTMuNCAxLTYuMyAyLjEtOC44IDMuMnpNODQuNSAxNi42TDgwIDkuN2MtMi41IDEuMy01LjEgMi43LTcuOCA0LjNsNC42IDdjMi42LTEuNiA1LjEtMy4xIDcuNy00LjR6bTIwLjUgNDVsNC44IDcuMmMxLjctMi41IDMuNy00LjggNS45LTcuMWwtNC41LTYuOGMtMi4zIDIuMS00LjQgNC40LTYuMiA2Ljd6TTkwLjUgOTMuOGw4LjEgNi40Yy40LTMuOSAxLjEtNy44IDIuMS0xMS43bC03LjItNS43Yy0xLjMgMy43LTIuMiA3LjQtMyAxMXpNNDYuNyA0Ni4zbC03LjEtNi4yYy0yLjYgMi41LTUuMSA1LTcuNCA3LjVsNy43IDYuNmMyLjEtMi43IDQuNC01LjQgNi44LTcuOXpNMTYuNSA5MUw1IDg2LjhjLTEuOSA0LjMtNCA5LjMtNSAxMmwxMS41IDQuMmMxLjMtMy40IDMuNC04LjMgNS0xMnpNODkgMTE5LjJjLjIgNS4zLjcgOS42IDEuMiAxMi42bDEyIDQuM2MtLjktMy45LTEuOC04LjMtMi40LTEzTDg5IDExOS4yeiIvPjwvc3ZnPg==;" vertex="1" parent="1">
          <mxGeometry x="142" y="-543" width="330" height="116.09" as="geometry" />
        </mxCell>
        <mxCell id="ILyfzjguqehABtg-XD1y-74" style="edgeStyle=orthogonalEdgeStyle;curved=0;rounded=1;sketch=0;orthogonalLoop=1;jettySize=auto;html=1;exitX=0.5;exitY=0;exitDx=0;exitDy=0;entryX=0;entryY=0.425;entryDx=0;entryDy=0;entryPerimeter=0;fontColor=#5C5C5C;startArrow=classic;startFill=1;endSize=11;strokeColor=#006658;strokeWidth=10;fillColor=#21C0A5;" edge="1" parent="1" source="ILyfzjguqehABtg-XD1y-34" target="ILyfzjguqehABtg-XD1y-50">
          <mxGeometry relative="1" as="geometry" />
        </mxCell>
        <mxCell id="ILyfzjguqehABtg-XD1y-34" value="" style="shape=image;verticalLabelPosition=bottom;labelBackgroundColor=#ffffff;verticalAlign=top;aspect=fixed;imageAspect=0;image=data:image/svg+xml,PHN2ZyB4bWxucz0iaHR0cDovL3d3dy53My5vcmcvMjAwMC9zdmciIHhtbG5zOnhsaW5rPSJodHRwOi8vd3d3LnczLm9yZy8xOTk5L3hsaW5rIiB2ZXJzaW9uPSIxLjEiIGlkPSJMYXllcl8xIiB4PSIwcHgiIHk9IjBweCIgdmlld0JveD0iMCAtMC4wMDAwMDYxOTg4ODMwNTY2NDA2MjUgODgyLjcyNDkxNDU1MDc4MTIgNjg4LjY5OTk1MTE3MTg3NSIgc3R5bGU9ImVuYWJsZS1iYWNrZ3JvdW5kOm5ldyAwIDAgODgyLjcgNjg4LjY7IiB4bWw6c3BhY2U9InByZXNlcnZlIiB3aWR0aD0iODgyLjcyNDkxNDU1MDc4MTIiIGhlaWdodD0iNjg4LjY5OTk1MTE3MTg3NSI+JiN4YTs8c3R5bGUgdHlwZT0idGV4dC9jc3MiPiYjeGE7CS5zdDB7ZmlsbDojRkZGRkZGO30mI3hhOwkuc3Qxe2ZpbGw6IzAwOTkwMDt9JiN4YTs8L3N0eWxlPiYjeGE7PHBhdGggY2xhc3M9InN0MCIgZD0iTTUwNiw2ODguNmMtMTEuMywwLTIxLjctNC40LTI5LjQtMTEuNWMtOCw3LjEtMTguMSwxMS0yOC41LDExaC0wLjVjLTExLjItMC4yLTIyLjItNS0zMC4yLTEzLjMmIzEwOyYjOTtjLTguMS04LjItMTIuNi0xOS4zLTEyLjUtMzAuNHYtNC41bC0xMS44LDIzLjhsLTUsMTAuMWMtNC4yLDguNi0xMywxNC4xLTIyLjcsMTQuMUgyNjQuOWMtOS4xLDAtMTcuNS01LTIyLTEyLjhsLTUuMS05LjImIzEwOyYjOTtsLTEzLjYtMjMuOXYzYzAsMjMuOC0xOS40LDQzLjItNDMuMiw0My4yYy0xMS42LDAtMjIuNC00LjUtMzAuNi0xMi43bC02My45LTYzLjlWNjQ1YzAsMjMuOC0xOS40LDQzLjItNDMuMiw0My4yUzAsNjY4LjksMCw2NDVWNTA3JiMxMDsmIzk7YzAtMTcuNSwxMC41LTMzLjIsMjYuNy00MGM1LjMtMi4yLDEwLjgtMy4zLDE2LjUtMy4zYzExLjYsMCwyMi40LDQuNSwzMC42LDEyLjdsNjQsNjRWNTA3YzAtMjMuOCwxOS40LTQzLjIsNDMuMi00My4yJiMxMDsmIzk7czQzLjIsMTkuNCw0My4yLDQzLjJ2My43bDEzLjQtMjQuM2w0LjktOS4xYzQuNC04LjEsMTIuOS0xMy4zLDIyLjItMTMuM2gxMDQuN2M5LjcsMCwxOC40LDUuNSwyMi42LDE0LjFsNSwxMC4yJiMxMDsmIzk7YzAuMywwLjQsMC40LDAuOSwwLjYsMS4zbDcuMywxNy41YzAtMTEsNC41LTIxLjksMTIuNS0zMGM4LjEtOC4zLDE5LjEtMTMuMSwzMC4yLTEzLjNoMC41YzEwLjUsMCwyMC45LDQuMSwyOSwxMS41JiMxMDsmIzk7YzcuNi02LjksMTcuOC0xMS4xLDI4LjktMTEuMWMyMy44LDAsNDMuMiwxOS40LDQzLjIsNDMuMnYzMy41bDY0LTY0YzguMS04LjEsMTkuMS0xMi43LDMwLjYtMTIuN2M1LjcsMCwxMS4yLDEuMSwxNi41LDMuMyYjMTA7JiM5O2M0LjUsMS44LDguNiw0LjQsMTIuMSw3LjZjNy45LTcuMSwxOC0xMC45LDI4LjctMTAuOWMxMS41LDAsMjIuMyw0LjQsMzAuNiwxMi42bDM4LjYsMzguNGwzOC42LTM4LjRjOC4yLTguMSwxOS4xLTEyLjYsMzAuNi0xMi42JiMxMDsmIzk7YzExLjYsMCwyMi41LDQuNSwzMC42LDEyLjhjMTYuOSwxNi45LDE2LjgsNDQuNC0wLjEsNjEuMmwtMzguNCwzOC4ybDM4LjIsMzguMWMxNi45LDE2LjksMTcsNDQuMywwLjEsNjEuMiYjMTA7JiM5O2MtOC4xLDguMi0xOS4xLDEyLjgtMzAuNiwxMi44Yy0xMS42LDAtMjIuNC00LjUtMzAuNi0xMi43bC0zOC40LTM4LjNMNzMyLDY3NS42Yy04LjEsOC4xLTE5LDEyLjYtMzAuNiwxMi42JiMxMDsmIzk7Yy0xMC40LDAtMjAuNi0zLjktMjguNS0xMC43Yy03LjYsNi45LTE3LjgsMTEuMi0yOSwxMS4yYy0yMy44LDAtNDMuMi0xOS40LTQzLjItNDMuMnYtMzMuNWwtNjQsNjQmIzEwOyYjOTtDNTI4LjUsNjg0LjEsNTE3LjcsNjg4LjYsNTA2LDY4OC42TDUwNiw2ODguNnogTTY4Ny4yLDU5OGwyMS45LTIxLjhsLTIxLjktMjEuOFY1OTh6Ii8+JiN4YTs8cGF0aCBjbGFzcz0ic3QxIiBkPSJNMTgxLjEsNjYzLjFjLTQuNywwLTkuMy0xLjgtMTIuOC01LjNMNjEuMyw1NTAuN3Y5NC4zYzAsMTAtOC4xLDE4LTE4LDE4cy0xOC04LjEtMTgtMThWNTA3JiMxMDsmIzk7YzAtNy4zLDQuNC0xMy45LDExLjItMTYuN2M2LjgtMi44LDE0LjUtMS4zLDE5LjcsMy45bDEwNi45LDEwN1Y1MDdjMC0xMCw4LjEtMTgsMTgtMThjMTAsMCwxOCw4LjEsMTgsMTh2MTM3LjkmIzEwOyYjOTtDMTk5LjIsNjU0LjksMTkxLjEsNjYzLjEsMTgxLjEsNjYzLjEgTTI2NC45LDQ4OS4ybC01LDkuM2wtMzguNCw2OS44bC01LDguOGw1LDguOGwzOC40LDY3LjZsNS4yLDkuMmgxMDAuNmw1LTEwLjJsMjguNy01Ny45JiMxMDsmIzk7bDEyLjktMjYuMmgtMjkuMWwtNzMuNCwwLjNjLTkuNi0wLjItMTguNCw4LjYtMTguNCwxOGMwLDkuNiw4LjgsMTguMiwxOC40LDE4bDQ0LjMtMC4zbC0xMC44LDIxLjloLTU3TDI1OCw1NzYuN2wyOC41LTUxLjVoNjAuNiYjMTA7JiM5O2wxNC4xLDI5aDM2LjRsLTIyLjktNTVsLTUtMTAuMkgyNjQuOSBNNDQ4LjEsNDg4LjljLTkuNSwwLjEtMTgsOC44LTE3LjksMTguM3Y0Ny4yaDM2LjJ2LTQ3LjJDNDY2LjUsNDk3LjYsNDU3LjcsNDg4LjcsNDQ4LjEsNDg4LjkmIzEwOyYjOTsgTTUwNi4xLDY2My40Yy0xMCwwLTE4LTguMS0xOC0xOHYtMTM4YzAtMTAsOC4xLTE4LDE4LTE4YzEwLDAsMTgsOC4xLDE4LDE4djk0LjNsMTA3LTEwN2M1LjItNS4yLDEyLjktNi43LDE5LjctMy45JiMxMDsmIzk7czExLjIsOS40LDExLjIsMTYuN3YxMzcuOWMwLDEwLTguMSwxOC0xOCwxOGMtMTAsMC0xOC04LjEtMTgtMThWNTUxTDUxOC45LDY1OC4xQzUxNS41LDY2MS41LDUxMC45LDY2My40LDUwNi4xLDY2My40IE03OTYuMSw1NzYuMiYjMTA7JiM5O2w1Ni4yLTU2LjFjNy4xLTcuMSw3LjEtMTguNSwwLjEtMjUuNmMtNy4xLTcuMS0xOC41LTcuMS0yNS42LTAuMWwtNTYuMyw1Ni4ybC01Ni4zLTU2LjJjLTcuMS03LjEtMTguNS03LjEtMjUuNiwwLjEmIzEwOyYjOTtjLTcuMSw3LjEtNy4xLDE4LjUsMCwyNS42bDU2LjIsNTYuMWwtNTYuMSw1NS45Yy03LjEsNy4xLTcuMSwxOC41LTAuMSwyNS42YzMuNCwzLjQsOCw1LjQsMTIuOCw1LjNjNC42LDAsOS4yLTEuOCwxMi44LTUuM2w1Ni4yLTU2JiMxMDsmIzk7bDU2LjIsNTZjMy40LDMuNCw4LDUuMywxMi44LDUuM2M0LjYsMCw5LjMtMS44LDEyLjgtNS4zYzcuMS03LjEsNy4xLTE4LjUtMC4xLTI1LjZMNzk2LjEsNTc2LjJ6IE00NDguMSw2NjIuOSYjMTA7JiM5O2MtOS41LTAuMS0xOC04LjgtMTcuOS0xOC4zdi03NS43aDM2LjJ2NzUuN0M0NjYuNSw2NTQuMiw0NTcuNyw2NjMsNDQ4LjEsNjYyLjkiLz4mI3hhOzxwYXRoIGNsYXNzPSJzdDAiIGQ9Ik02MTQuMSw0ODguNGMtMTguNy0wLjItMzYuMy03LjUtNDkuNC0yMC43TDMzOC4yLDI0MS4zdjE3Ni40YzAsMzguOS0zMS43LDcwLjctNzAuNyw3MC43cy03MC43LTMxLjctNzAuNy03MC43JiMxMDsmIzk7VjcwLjdjMC0yOC43LDE3LjEtNTQuMyw0My42LTY1LjNjOC42LTMuNiwxNy43LTUuNCwyNy01LjRjMTguOSwwLDM2LjcsNy40LDUwLDIwLjdMNTQ0LDI0Ny4xVjcwLjdDNTQ0LDMxLjcsNTc1LjcsMCw2MTQuNiwwJiMxMDsmIzk7czcwLjcsMzEuNyw3MC43LDcwLjd2MzQ3LjFjMCwzOC45LTMxLjcsNzAuNy03MC43LDcwLjdINjE0LjFMNjE0LjEsNDg4LjR6Ii8+JiN4YTs8cGF0aCBjbGFzcz0ic3QxIiBkPSJNNjE0LjYsNDYzLjJjLTExLjgsMC0yMy41LTQuNi0zMi4yLTEzLjNMMzEzLjEsMTgwLjV2MjM3LjJjMCwyNS4yLTIwLjQsNDUuNS00NS41LDQ1LjVzLTQ1LjUtMjAuNC00NS41LTQ1LjUmIzEwOyYjOTt2LTM0N2MwLTE4LjUsMTEuMS0zNSwyOC4xLTQyLjFzMzYuNi0zLjIsNDkuNiw5LjlsMjY5LjMsMjY5LjRWNzAuN2MwLTI1LjIsMjAuNC00NS41LDQ1LjUtNDUuNWMyNS4yLDAsNDUuNSwyMC40LDQ1LjUsNDUuNXYzNDcuMSYjMTA7JiM5O0M2NjAuMSw0NDIuOSw2MzkuOCw0NjMuMiw2MTQuNiw0NjMuMiIvPiYjeGE7PC9zdmc+;" vertex="1" parent="1">
          <mxGeometry x="-511.85" y="-1057" width="153.69" height="120" as="geometry" />
        </mxCell>
        <mxCell id="ILyfzjguqehABtg-XD1y-67" style="edgeStyle=none;rounded=0;orthogonalLoop=1;jettySize=auto;html=1;fontSize=45;fontColor=#3DFFFF;endSize=13;strokeWidth=15;fillColor=#dae8fc;strokeColor=#6c8ebf;" edge="1" parent="1">
          <mxGeometry relative="1" as="geometry">
            <mxPoint x="-672" y="-600" as="sourcePoint" />
            <mxPoint x="-672" y="-880" as="targetPoint" />
          </mxGeometry>
        </mxCell>
        <mxCell id="ILyfzjguqehABtg-XD1y-35" value="" style="shape=image;verticalLabelPosition=bottom;labelBackgroundColor=#ffffff;verticalAlign=top;aspect=fixed;imageAspect=0;image=data:image/svg+xml,PHN2ZyB4bWxucz0iaHR0cDovL3d3dy53My5vcmcvMjAwMC9zdmciIHdpZHRoPSIyMzcxLjg1Mzg3NDkyMTc5ODciIGhlaWdodD0iMjQ5My4wMjk3Mzk3NzY5NTIiIHZpZXdCb3g9IjAuMjYxOTk3NTIwOTIzNjE0NSAwLjY4NjAwMTE4MTYwMjQ3OCAyNTUuMjMxMDE4MDY2NDA2MjUgMjY4LjI1IiBwcmVzZXJ2ZUFzcGVjdFJhdGlvPSJ4TWluWU1pbiBtZWV0Ij48cGF0aCBkPSJNMjE5LjM2OCA3NC41NjZhMTA0Ljc1OSAxMDQuNzU5IDAgMCAwLTI1LjYtMjUuNDE4bC04LjUzNiAxMi4yMDNhODkgODkgMCAwIDAtMTMuNDMtNy43MmwtNi4yOTcgMTMuNTE1YTczLjk3OCA3My45NzggMCAwIDEgMTEuMTg1IDYuNDE3IDc0Ljg1MyA3NC44NTMgMCAwIDEgOS45MjggOC4yNWwtMTAuNTIgMTAuNTMxLTEwLjUyOSAxMC41MzJhNDQuMzYgNDQuMzYgMCAwIDEgNS4wMjkgNS44NzYgNDQuMzk3IDQ0LjM5NyAwIDAgMSAzLjk2NSA2LjY1OGwyNi45NzMtMTIuNTkgMTMuNDk0LTYuMjk3IDEzLjQ4Ny02LjI5N2ExMDQuMTU2IDEwNC4xNTYgMCAwIDAtOS4xNDktMTUuNjZ6bTI0LjM4NC0xNy4wODRhMTM0Ljg2NiAxMzQuODY2IDAgMCAwLTE1LjA0My0xNy44MDIgMTM0LjUzOCAxMzQuNTM4IDAgMCAwLTM4LjAzNi0yNi41NTUgMTMzLjI5MyAxMzMuMjkzIDAgMCAwLTIxLjg3NS03LjkzMiAxMzMuMzE1IDEzMy4zMTUgMCAwIDAtMjIuOTEzLTMuOTk5bC0xLjI5NSAxNC44MzljNi45NzQuNTk4IDEzLjc3NyAxLjggMjAuMzU0IDMuNTQ4bC0zLjg1IDE0LjM5M2ExMDMuNTY4IDEwMy41NjggMCAwIDEgMTYuOTkzIDYuMTU2IDEwMy43MjQgMTAzLjcyNCAwIDAgMSAxNS42ODEgOS4wMTggMTA0LjgzNyAxMDQuODM3IDAgMCAxIDI1LjYgMjUuNDE4IDEwNC4xNTYgMTA0LjE1NiAwIDAgMSA5LjE0OSAxNS42NmwxMy40ODUtNi4yOTYgMTMuNDkxLTYuMjk2YTEzNC4yMTQgMTM0LjIxNCAwIDAgMC0xMS43NDEtMjAuMTUyek0xNzguMDg3IDQwLjEzYTEwMy41NjggMTAzLjU2OCAwIDAgMC0xNi45OTMtNi4xNTYgMTAzLjYxIDEwMy42MSAwIDAgMC0xNy44MDMtMy4xMDRjLTIuOTgtLjI1Ny01Ljk4OC0uMzk1LTkuMDMzLS4zOTVhMTA1IDEwNSAwIDAgMC05LjAzNi4zOTUgMTAzLjYyIDEwMy42MiAwIDAgMC0xNy43OTkgMy4xMDRsMy44NSAxNC4zOWE4OC4zMzggODguMzM4IDAgMCAwLTE0LjU1OCA1LjI2N2w2LjI5MyAxMy41MTdhNzQuMzMgNzQuMzMgMCAwIDEgMTIuMTE4LTQuMzkgNzQuNjY3IDc0LjY2NyAwIDAgMSAxMi42OTQtMi4xOTcgNzQuMjIgNzQuMjIgMCAwIDEgNi40MzgtLjI5NmMyLjE3IDAgNC4zMTMuMTExIDYuNDQuMjk2YTc0LjU5IDc0LjU5IDAgMCAxIDEyLjY4OCAyLjE5NyA3My43OSA3My43OSAwIDAgMSAxMi4xMiA0LjM4OGw2LjI5Ny0xMy41MTVhODkgODkgMCAwIDEgMTMuNDMgNy43Mmw4LjUzNS0xMi4yMDNhMTAzLjcyNCAxMDMuNzI0IDAgMCAwLTE1LjY4MS05LjAxOHpNMTQ0LjU5IDE2LjAzM2wxLjI5NS0xNC44MzljLTMuODMzLS4zMy03LjcwOS0uNTA4LTExLjYyNy0uNTA4LTMuOTE3IDAtNy43OTIuMTc4LTExLjYyNS41MDhhMTMzLjQxNSAxMzMuNDE1IDAgMCAwLTIyLjkxNyA0IDEzMi42ODcgMTMyLjY4NyAwIDAgMC0yMS44NzIgNy45MzYgMTMzLjY0NCAxMzMuNjQ0IDAgMCAwLTIwLjE2OSAxMS42MThBMTM0LjY1NCAxMzQuNjU0IDAgMCAwIDM5LjgwNCAzOS42OGwxMC41MjMgMTAuNTMyQTExOS42MyAxMTkuNjMgMCAwIDEgNjYuMjEgMzYuOTQ4bDguNTM2IDEyLjIwNGExMDMuNjk4IDEwMy42OTggMCAwIDEgMzIuNjc3LTE1LjE3OCAxMDMuNjIgMTAzLjYyIDAgMCAxIDE3LjgtMy4xMDQgMTA1IDEwNSAwIDAgMSA5LjAzNS0uMzk1YzMuMDQ1IDAgNi4wNTMuMTM4IDkuMDMzLjM5NSA2LjEuNTI2IDEyLjA1IDEuNTcgMTcuODAzIDMuMTA0bDMuODUtMTQuMzkzYTExOC42NjMgMTE4LjY2MyAwIDAgMC0yMC4zNTQtMy41NDh6bS0zMy4zMTcgMzIuMzNsLTMuODUtMTQuMzg5YTEwMy42OTggMTAzLjY5OCAwIDAgMC0zMi42NzggMTUuMTc4IDEwNC42OTkgMTA0LjY5OSAwIDAgMC0xMy44OTggMTEuNTkxIDEwNS4zNjggMTA1LjM2OCAwIDAgMC0xMS43MDMgMTMuODI4bDEyLjE5MiA4LjU0MWE4OS4wMDggODkuMDA4IDAgMCAwLTcuODQ5IDEzLjQxbDEzLjQ5NSA2LjI5OGE3NC40NjkgNzQuNDY5IDAgMCAxIDYuNTU4LTExLjE1MyA3NS4yNSA3NS4yNSAwIDAgMSA4LjM1NS05Ljg1NSA3NC45NTggNzQuOTU4IDAgMCAxIDkuOTI1LTguMjUgNzQuMjQzIDc0LjI0MyAwIDAgMSAxMS4xODgtNi40MTRMOTYuNzE1IDUzLjYzYTg4LjMzOCA4OC4zMzggMCAwIDEgMTQuNTU4LTUuMjY3ek02Ni4yMSAzNi45NDlhMTE5LjYzIDExOS42MyAwIDAgMC0xNS44ODMgMTMuMjY0TDM5LjgwNCAzOS42OGExMzQuODA1IDEzNC44MDUgMCAwIDAtMTUuMDM4IDE3LjgwNUExMzMuNjczIDEzMy42NzMgMCAwIDAgNC45NTMgOTkuNTQyYTEzNC4xNTggMTM0LjE1OCAwIDAgMC00LjEzIDIyLjk5NWwxNC44MjUgMS4zYTExOC41NzIgMTE4LjU3MiAwIDAgMSAzLjY4Mi0yMC40NGwxNC4zNzMgMy44NTdhMTAzLjI5NyAxMDMuMjk3IDAgMCAxIDYuMjk4LTE3LjAyOCAxMDMuOTM4IDEwMy45MzggMCAwIDEgOS4xNDMtMTUuNjU1YzMuNTAzLTQuOTQ2IDcuNDItOS41NyAxMS43MDMtMTMuODI4YTEwNC42OTkgMTA0LjY5OSAwIDAgMSAxMy44OTktMTEuNTlMNjYuMjEgMzYuOTQ3ek0zOS41NDYgMTc4LjQzYTEwMy44NjIgMTAzLjg2MiAwIDAgMS02LjEzOC0xNy4xNTggMTAzLjY2NyAxMDMuNjY3IDAgMCAxLTMuMDQtMTcuOTUgMTA1LjI1NiAxMDUuMjU2IDAgMCAxLS4zNDctOC41MWMwLTMuMjY0LjE1OS02LjQ5NC40NTUtOS42NzhhMTAzLjc2NiAxMDMuNzY2IDAgMCAxIDMuMjI3LTE3Ljg4bC0xNC4zNzMtMy44NTdhMTE4LjU3MiAxMTguNTcyIDAgMCAwLTMuNjgyIDIwLjQ0bC0xNC44MjQtMS4zYTEzNi44MjcgMTM2LjgyNyAwIDAgMC0uNTYyIDEyLjI3NWMwIDMuNzQuMTYgNy40NDMuNDU1IDExLjEwMy42NTIgNy45MDQgMS45OCAxNS42MSAzLjkzNSAyMy4wNjggMi4wMDcgNy42MzQgNC42NjkgMTUuMDAxIDcuOTE4IDIyLjAzOGExMzMuOTIyIDEzMy45MjIgMCAwIDAgMTEuNjQ3IDIwLjMyOGwxMi4xOTItOC41NDVhMTE4Ljk0MyAxMTguOTQzIDAgMCAxLTEwLjM0OC0xOC4wOGwxMy40ODUtNi4yOTR6bTIwLjQ5LTM3LjcwOWE3NC45MTEgNzQuOTExIDAgMCAxLS4yNTItNS45MDljMC0yLjM5LjEyNC00Ljc1MS4zMzktNy4wODFhNzQuMjg1IDc0LjI4NSAwIDAgMSAyLjM0OS0xMi43NjQgNzMuOTU2IDczLjk1NiAwIDAgMSA0LjUxLTEyLjE0N2wtMTMuNDk1LTYuMjk3YTg5LjAwOCA4OS4wMDggMCAwIDEgNy44NS0xMy40MUw0OS4xNDMgNzQuNTdhMTAzLjkzOCAxMDMuOTM4IDAgMCAwLTkuMTQzIDE1LjY1NSAxMDMuMjk3IDEwMy4yOTcgMCAwIDAtNi4yOTggMTcuMDI4IDEwMy43NjYgMTAzLjc2NiAwIDAgMC0zLjIyNyAxNy44OCAxMDQuNTg4IDEwNC41ODggMCAwIDAtLjQ1NSA5LjY3OGMwIDIuODY1LjEyIDUuNzAyLjM0NyA4LjUxYTEwMy42NjcgMTAzLjY2NyAwIDAgMCAzLjA0IDE3Ljk1bDE0LjM3Ny0zLjg1N2E4OC40OTUgODguNDk1IDAgMCAwIDUuMjQ4IDE0LjcxNWwxMy41MDMtNi4yOTlhNzQuMTU1IDc0LjE1NSAwIDAgMS00LjM3Mi0xMi4yNzQgNzQuMDU1IDc0LjA1NSAwIDAgMS0yLjEyNy0xMi44MzZ6bTI5LjkzNiA4OC41NThhMTAzLjg0OCAxMDMuODQ4IDAgMCAxLTE1Ljc4LTkuMTkxQTEwNC45NDUgMTA0Ljk0NSAwIDAgMSA2MC4yNiAyMDguMjlhMTA0Ljg2OCAxMDQuODY4IDAgMCAxLTExLjY2LTE0LjAyOSAxMDQuMjg1IDEwNC4yODUgMCAwIDEtOS4wNTQtMTUuODMxbC0xMy40ODUgNi4yOTRhMTE4Ljk0MyAxMTguOTQzIDAgMCAwIDEwLjM0OCAxOC4wOGwtMTIuMTkyIDguNTQ1YTEzNC43MTUgMTM0LjcxNSAwIDAgMCAzMi45MDUgMzMuMTQgMTM0LjE4NyAxMzQuMTg3IDAgMCAwIDIwLjI2OCAxMS43OTVsNi4yOTQtMTMuNWM2LjI1IDIuOTQgMTIuOCA1LjM1MiAxOS41OSA3LjE3N2wzLjg1LTE0LjM5MmExMDMuMTQ2IDEwMy4xNDYgMCAwIDEtMTcuMTUyLTYuMjl6bTEyLjU4MS0yNy4wMDdhNzQuMzEzIDc0LjMxMyAwIDAgMS0xMS4yNzgtNi42MDQgNzQuNjcgNzQuNjcgMCAwIDEtOS45NjctOC40NDYgNzQuOTMyIDc0LjkzMiAwIDAgMS0xNC43NzItMjEuMzlsLTEzLjUwMyA2LjI5OGE4OC40OTUgODguNDk1IDAgMCAxLTUuMjQ4LTE0LjcxNWwtMTQuMzc3IDMuODU3YTEwMy44NjIgMTAzLjg2MiAwIDAgMCA2LjEzOCAxNy4xNThBMTA0LjI4NSAxMDQuMjg1IDAgMCAwIDQ4LjYgMTk0LjI2YTEwNC44NjggMTA0Ljg2OCAwIDAgMCAxMS42NiAxNC4wMjkgMTA0Ljk0NSAxMDQuOTQ1IDAgMCAwIDEzLjkzMiAxMS43OThsOC41MzEtMTIuMjAxYTg4Ljc5NyA4OC43OTcgMCAwIDAgMTMuNTM3IDcuODkgODguNTI0IDg4LjUyNCAwIDAgMCAxNC43MiA1LjQwM2wzLjg1Ni0xNC40YTczLjg5OSA3My44OTkgMCAwIDEtMTIuMjgzLTQuNTA4em0xMDAuMzA3IDMwLjAxOWExMTkuNDIzIDExOS40MjMgMCAwIDEtMTguMDI2IDEwLjQ5NCAxMTguMzc3IDExOC4zNzcgMCAwIDEtMTkuNTk0IDcuMTc2bC0zLjg1NS0xNC4zOTJhMTAzLjk2OSAxMDMuOTY5IDAgMCAxLTE3Ljk5MSAzLjE3M2MtMy4wMTMuMjY1LTYuMDU4LjQwNC05LjEzNi40MDQtMy4wODEgMC02LjEzLS4xNC05LjEzOS0uNDA0YTEwNC4wOTQgMTA0LjA5NCAwIDAgMS0xNy45OTYtMy4xNzNsLTMuODUgMTQuMzkyYTExOC4wMzcgMTE4LjAzNyAwIDAgMS0xOS41OS03LjE3NmwtNi4yOTMgMTMuNWExMzMuMDk1IDEzMy4wOTUgMCAwIDAgMjIuMDM0IDguMDY2IDEzMy43NTEgMTMzLjc1MSAwIDAgMCAyMy4xMDYgNC4wNjdjMy44NjcuMzM3IDcuNzc2LjUxOCAxMS43MjguNTE4IDMuOTUzIDAgNy44NjMtLjE4MSAxMS43My0uNTE4YTEzMy44MjYgMTMzLjgyNiAwIDAgMCAyMy4xMDYtNC4wNjcgMTMzLjY5MyAxMzMuNjkzIDAgMCAwIDQyLjMwMi0xOS44NjFsLTguNTM2LTEyLjE5OXptMjkuMjQ5LTI5LjQ4N2wtMTIuMTkyLTguNTQzYTEwNC43OTcgMTA0Ljc5NyAwIDAgMS0xMS42NiAxNC4wMjkgMTA0Ljk2MyAxMDQuOTYzIDAgMCAxLTEzLjkzMiAxMS43OTggMTAzLjc1NCAxMDMuNzU0IDAgMCAxLTE1Ljc4MyA5LjE5MSAxMDIuOTQzIDEwMi45NDMgMCAwIDEtMTcuMTU3IDYuMjlsMy44NTUgMTQuMzkyYTExOC4zNzcgMTE4LjM3NyAwIDAgMCAxOS41OTQtNy4xNzYgMTE5LjQyMyAxMTkuNDIzIDAgMCAwIDE4LjAyNi0xMC40OTRsOC41MzYgMTIuMTk5YTEzNC41ODcgMTM0LjU4NyAwIDAgMCAzMi45LTMzLjE0bC0xMi4xODctOC41NDZ6bS0yNC4zNzktMTcuMDg2bC0xMi4xOTYtOC41NWE3NC42OTYgNzQuNjk2IDAgMCAxLTguMzI0IDEwLjA1NCA3NS4zMjYgNzUuMzI2IDAgMCAxLTkuOTY4IDguNDQ2bDguNTQzIDEyLjIxOWE4OS4wODIgODkuMDgyIDAgMCAxLTEzLjUzMiA3Ljg5M2w2LjI4OSAxMy40OTlhMTAzLjc1NCAxMDMuNzU0IDAgMCAwIDE1Ljc4My05LjE5MSAxMDQuOTYzIDEwNC45NjMgMCAwIDAgMTMuOTMxLTExLjc5OCAxMDQuNzk3IDEwNC43OTcgMCAwIDAgMTEuNjYxLTE0LjAyOWwtMTIuMTg3LTguNTQzem0tMjEuOTQ1IDIyLjE2OWwtOC41NDMtMTIuMjE5YTc0LjAzOSA3NC4wMzkgMCAwIDEtMTEuMjg3IDYuNjA0IDczLjk2NiA3My45NjYgMCAwIDEtMjUuMTU1IDYuNzgxYy0yLjE2LjE5LTQuMzM4LjMwNC02LjU0Mi4zMDQtMi4yMDMgMC00LjM4NS0uMTE1LTYuNTQtLjMwNGE3NC4wOCA3NC4wOCAwIDAgMS0xMi44ODItMi4yNzRsLTMuODU1IDE0LjQwMWE4OC41MjQgODguNTI0IDAgMCAxLTE0LjcyLTUuNDAyIDg4Ljc5NyA4OC43OTcgMCAwIDEtMTMuNTM4LTcuODkxbC04LjUzIDEyLjJhMTAzLjg0OCAxMDMuODQ4IDAgMCAwIDE1Ljc3OSA5LjE5MiAxMDMuMTQ2IDEwMy4xNDYgMCAwIDAgMTcuMTUxIDYuMjkgMTA0LjA5NCAxMDQuMDk0IDAgMCAwIDE3Ljk5NiAzLjE3M2MzLjAxLjI2NSA2LjA1OC40MDQgOS4xNC40MDQgMy4wNzcgMCA2LjEyMi0uMTQgOS4xMzUtLjQwNGExMDMuOTY5IDEwMy45NjkgMCAwIDAgMTcuOTkxLTMuMTczIDEwMi45NDMgMTAyLjk0MyAwIDAgMCAxNy4xNTctNi4yOWwtNi4yOS0xMy41YTg5LjA4MiA4OS4wODIgMCAwIDAgMTMuNTMzLTcuODkyeiIgZmlsbD0iIzUyQzFEQiIvPjxwYXRoIGQ9Ik0yMTkuMzY4IDc0LjU2NmExMDQuNzU5IDEwNC43NTkgMCAwIDAtMjUuNi0yNS40MThsLTguNTM2IDEyLjIwM2E4OSA4OSAwIDAgMC0xMy40My03LjcybC02LjI5NyAxMy41MTVhNzMuOTc4IDczLjk3OCAwIDAgMSAxMS4xODUgNi40MTcgNzQuODUzIDc0Ljg1MyAwIDAgMSA5LjkyOCA4LjI1bC0xMC41MiAxMC41MzEtMTAuNTI5IDEwLjUzMmE0NC4zNiA0NC4zNiAwIDAgMSA1LjAyOSA1Ljg3NiA0NC4zOTcgNDQuMzk3IDAgMCAxIDMuOTY1IDYuNjU4bDI2Ljk3My0xMi41OSAxMy40OTQtNi4yOTcgMTMuNDg3LTYuMjk3YTEwNC4xNTYgMTA0LjE1NiAwIDAgMC05LjE0OS0xNS42NiIgZmlsbD0iIzUyQzFEQiIvPjxwYXRoIGQ9Ik0yNDMuNzUyIDU3LjQ4MmExMzQuODY2IDEzNC44NjYgMCAwIDAtMTUuMDQzLTE3LjgwMiAxMzQuNTM4IDEzNC41MzggMCAwIDAtMzguMDM2LTI2LjU1NSAxMzMuMjkzIDEzMy4yOTMgMCAwIDAtMjEuODc1LTcuOTMyIDEzMy4zMTUgMTMzLjMxNSAwIDAgMC0yMi45MTMtMy45OTlsLTEuMjk1IDE0LjgzOWM2Ljk3NC41OTggMTMuNzc3IDEuOCAyMC4zNTQgMy41NDhsLTMuODUgMTQuMzkzYTEwMy41NjggMTAzLjU2OCAwIDAgMSAxNi45OTMgNi4xNTYgMTAzLjcyNCAxMDMuNzI0IDAgMCAxIDE1LjY4MSA5LjAxOCAxMDQuODM3IDEwNC44MzcgMCAwIDEgMjUuNiAyNS40MTggMTA0LjE1NiAxMDQuMTU2IDAgMCAxIDkuMTQ5IDE1LjY2bDEzLjQ4NS02LjI5NiAxMy40OTEtNi4yOTZhMTM0LjIxNCAxMzQuMjE0IDAgMCAwLTExLjc0MS0yMC4xNTIiIGZpbGw9IiMzQjUyOEEiLz48cGF0aCBkPSJNMTc4LjA4NyA0MC4xM2ExMDMuNTY4IDEwMy41NjggMCAwIDAtMTYuOTkzLTYuMTU2IDEwMy42MSAxMDMuNjEgMCAwIDAtMTcuODAzLTMuMTA0Yy0yLjk4LS4yNTctNS45ODgtLjM5NS05LjAzMy0uMzk1YTEwNSAxMDUgMCAwIDAtOS4wMzYuMzk1IDEwMy42MiAxMDMuNjIgMCAwIDAtMTcuNzk5IDMuMTA0bDMuODUgMTQuMzlhODguMzM4IDg4LjMzOCAwIDAgMC0xNC41NTggNS4yNjdsNi4yOTMgMTMuNTE3YTc0LjMzIDc0LjMzIDAgMCAxIDEyLjExOC00LjM5IDc0LjY2NyA3NC42NjcgMCAwIDEgMTIuNjk0LTIuMTk3IDc0LjIyIDc0LjIyIDAgMCAxIDYuNDM4LS4yOTZjMi4xNyAwIDQuMzEzLjExMSA2LjQ0LjI5NmE3NC41OSA3NC41OSAwIDAgMSAxMi42ODggMi4xOTcgNzMuNzkgNzMuNzkgMCAwIDEgMTIuMTIgNC4zODhsNi4yOTctMTMuNTE1YTg5IDg5IDAgMCAxIDEzLjQzIDcuNzJsOC41MzUtMTIuMjAzYTEwMy43MjQgMTAzLjcyNCAwIDAgMC0xNS42ODEtOS4wMTgiIGZpbGw9IiMwMEFFRTgiLz48cGF0aCBkPSJNMTQ0LjU5IDE2LjAzM2wxLjI5NS0xNC44MzljLTMuODMzLS4zMy03LjcwOS0uNTA4LTExLjYyNy0uNTA4LTMuOTE3IDAtNy43OTIuMTc4LTExLjYyNS41MDhhMTMzLjQxNSAxMzMuNDE1IDAgMCAwLTIyLjkxNyA0IDEzMi42ODcgMTMyLjY4NyAwIDAgMC0yMS44NzIgNy45MzYgMTMzLjY0NCAxMzMuNjQ0IDAgMCAwLTIwLjE2OSAxMS42MThBMTM0LjY1NCAxMzQuNjU0IDAgMCAwIDM5LjgwNCAzOS42OGwxMC41MjMgMTAuNTMyQTExOS42MyAxMTkuNjMgMCAwIDEgNjYuMjEgMzYuOTQ4bDguNTM2IDEyLjIwNGExMDMuNjk4IDEwMy42OTggMCAwIDEgMzIuNjc3LTE1LjE3OCAxMDMuNjIgMTAzLjYyIDAgMCAxIDE3LjgtMy4xMDQgMTA1IDEwNSAwIDAgMSA5LjAzNS0uMzk1YzMuMDQ1IDAgNi4wNTMuMTM4IDkuMDMzLjM5NSA2LjEuNTI2IDEyLjA1IDEuNTcgMTcuODAzIDMuMTA0bDMuODUtMTQuMzkzYTExOC42NjMgMTE4LjY2MyAwIDAgMC0yMC4zNTQtMy41NDgiIGZpbGw9IiMzRjhBQkQiLz48cGF0aCBkPSJNMTExLjI3MyA0OC4zNjRsLTMuODUtMTQuMzlhMTAzLjY5OCAxMDMuNjk4IDAgMCAwLTMyLjY3OCAxNS4xNzggMTA0LjY5OSAxMDQuNjk5IDAgMCAwLTEzLjg5OCAxMS41OTEgMTA1LjM2OCAxMDUuMzY4IDAgMCAwLTExLjcwMyAxMy44MjhsMTIuMTkyIDguNTQxYTg5LjAwOCA4OS4wMDggMCAwIDAtNy44NDkgMTMuNDFsMTMuNDk1IDYuMjk4YTc0LjQ2OSA3NC40NjkgMCAwIDEgNi41NTgtMTEuMTUzIDc1LjI1IDc1LjI1IDAgMCAxIDguMzU1LTkuODU1IDc0Ljk1OCA3NC45NTggMCAwIDEgOS45MjUtOC4yNSA3NC4yNDMgNzQuMjQzIDAgMCAxIDExLjE4OC02LjQxNEw5Ni43MTUgNTMuNjNhODguMzM4IDg4LjMzOCAwIDAgMSAxNC41NTgtNS4yNjciIGZpbGw9IiM1MkMxREIiLz48cGF0aCBkPSJNNjYuMjEgMzYuOTQ4YTExOS42MyAxMTkuNjMgMCAwIDAtMTUuODgzIDEzLjI2NEwzOS44MDQgMzkuNjhhMTM0LjgwNSAxMzQuODA1IDAgMCAwLTE1LjAzOCAxNy44MDVBMTMzLjY3MyAxMzMuNjczIDAgMCAwIDQuOTUzIDk5LjU0MmExMzQuMTU4IDEzNC4xNTggMCAwIDAtNC4xMyAyMi45OTVsMTQuODI1IDEuM2ExMTguNTcyIDExOC41NzIgMCAwIDEgMy42ODItMjAuNDRsMTQuMzczIDMuODU3YTEwMy4yOTcgMTAzLjI5NyAwIDAgMSA2LjI5OC0xNy4wMjggMTAzLjkzOCAxMDMuOTM4IDAgMCAxIDkuMTQzLTE1LjY1NWMzLjUwMy00Ljk0NiA3LjQyLTkuNTcgMTEuNzAzLTEzLjgyOGExMDQuNjk5IDEwNC42OTkgMCAwIDEgMTMuODk5LTExLjU5TDY2LjIxIDM2Ljk0NyIgZmlsbD0iIzAwQUVFOCIvPjxwYXRoIGQ9Ik0zOS41NDYgMTc4LjQzYTEwMy44NjIgMTAzLjg2MiAwIDAgMS02LjEzOC0xNy4xNTggMTAzLjY2NyAxMDMuNjY3IDAgMCAxLTMuMDQtMTcuOTUgMTA1LjI1NiAxMDUuMjU2IDAgMCAxLS4zNDctOC41MWMwLTMuMjY0LjE1OS02LjQ5NC40NTUtOS42NzhhMTAzLjc2NiAxMDMuNzY2IDAgMCAxIDMuMjI3LTE3Ljg4bC0xNC4zNzMtMy44NTdhMTE4LjU3MiAxMTguNTcyIDAgMCAwLTMuNjgyIDIwLjQ0bC0xNC44MjQtMS4zYTEzNi44MjcgMTM2LjgyNyAwIDAgMC0uNTYyIDEyLjI3NWMwIDMuNzQuMTYgNy40NDMuNDU1IDExLjEwMy42NTIgNy45MDQgMS45OCAxNS42MSAzLjkzNSAyMy4wNjggMi4wMDcgNy42MzQgNC42NjkgMTUuMDAxIDcuOTE4IDIyLjAzOGExMzMuOTIyIDEzMy45MjIgMCAwIDAgMTEuNjQ3IDIwLjMyOGwxMi4xOTItOC41NDVhMTE4Ljk0MyAxMTguOTQzIDAgMCAxLTEwLjM0OC0xOC4wOGwxMy40ODUtNi4yOTQiIGZpbGw9IiMzRjhBQkQiLz48cGF0aCBkPSJNNjAuMDM3IDE0MC43MjFhNzQuOTExIDc0LjkxMSAwIDAgMS0uMjUzLTUuOTA5YzAtMi4zOS4xMjQtNC43NTEuMzM5LTcuMDgxYTc0LjI4NSA3NC4yODUgMCAwIDEgMi4zNDktMTIuNzY0IDczLjk1NiA3My45NTYgMCAwIDEgNC41MS0xMi4xNDdsLTEzLjQ5NS02LjI5N2E4OS4wMDggODkuMDA4IDAgMCAxIDcuODUtMTMuNDFMNDkuMTQzIDc0LjU3YTEwMy45MzggMTAzLjkzOCAwIDAgMC05LjE0MyAxNS42NTUgMTAzLjI5NyAxMDMuMjk3IDAgMCAwLTYuMjk4IDE3LjAyOCAxMDMuNzY2IDEwMy43NjYgMCAwIDAtMy4yMjcgMTcuODggMTA0LjU4OCAxMDQuNTg4IDAgMCAwLS40NTUgOS42NzhjMCAyLjg2NS4xMiA1LjcwMi4zNDcgOC41MWExMDMuNjY3IDEwMy42NjcgMCAwIDAgMy4wNCAxNy45NWwxNC4zNzctMy44NTdhODguNDk1IDg4LjQ5NSAwIDAgMCA1LjI0OCAxNC43MTVsMTMuNTAzLTYuMjk5YTc0LjE1NSA3NC4xNTUgMCAwIDEtNC4zNzItMTIuMjc0IDc0LjA1NSA3NC4wNTUgMCAwIDEtMi4xMjctMTIuODM2IiBmaWxsPSIjM0I1MjhBIi8+PHBhdGggZD0iTTg5Ljk3MiAyMjkuMjc5YTEwMy44NDggMTAzLjg0OCAwIDAgMS0xNS43OC05LjE5MUExMDQuOTQ1IDEwNC45NDUgMCAwIDEgNjAuMjYgMjA4LjI5YTEwNC44NjggMTA0Ljg2OCAwIDAgMS0xMS42Ni0xNC4wMjkgMTA0LjI4NSAxMDQuMjg1IDAgMCAxLTkuMDU0LTE1LjgzMWwtMTMuNDg1IDYuMjk0YTExOC45NDMgMTE4Ljk0MyAwIDAgMCAxMC4zNDggMTguMDhsLTEyLjE5MiA4LjU0NWExMzQuNzE1IDEzNC43MTUgMCAwIDAgMzIuOTA1IDMzLjE0IDEzNC4xODcgMTM0LjE4NyAwIDAgMCAyMC4yNjggMTEuNzk1bDYuMjk0LTEzLjVjNi4yNSAyLjk0IDEyLjggNS4zNTIgMTkuNTkgNy4xNzdsMy44NS0xNC4zOTJhMTAzLjE0NiAxMDMuMTQ2IDAgMCAxLTE3LjE1Mi02LjI5IiBmaWxsPSIjNTJDMURCIi8+PHBhdGggZD0iTTEwMi41NTMgMjAyLjI3MmE3NC4zMTMgNzQuMzEzIDAgMCAxLTExLjI3OC02LjYwNCA3NC42NyA3NC42NyAwIDAgMS05Ljk2Ny04LjQ0NiA3NC45MzIgNzQuOTMyIDAgMCAxLTE0Ljc3Mi0yMS4zOWwtMTMuNTAzIDYuMjk4YTg4LjQ5NSA4OC40OTUgMCAwIDEtNS4yNDgtMTQuNzE1bC0xNC4zNzcgMy44NTdhMTAzLjg2MiAxMDMuODYyIDAgMCAwIDYuMTM4IDE3LjE1OEExMDQuMjg1IDEwNC4yODUgMCAwIDAgNDguNiAxOTQuMjZhMTA0Ljg2OCAxMDQuODY4IDAgMCAwIDExLjY2IDE0LjAyOSAxMDQuOTQ1IDEwNC45NDUgMCAwIDAgMTMuOTMyIDExLjc5OGw4LjUzMS0xMi4yMDFhODguNzk3IDg4Ljc5NyAwIDAgMCAxMy41MzcgNy44OSA4OC41MjQgODguNTI0IDAgMCAwIDE0LjcyIDUuNDAzbDMuODU2LTE0LjRhNzMuODk5IDczLjg5OSAwIDAgMS0xMi4yODMtNC41MDgiIGZpbGw9IiMwMEFFRTgiLz48cGF0aCBkPSJNMjAyLjg2IDIzMi4yOTFhMTE5LjQyMyAxMTkuNDIzIDAgMCAxLTE4LjAyNiAxMC40OTQgMTE4LjM3NyAxMTguMzc3IDAgMCAxLTE5LjU5NCA3LjE3NmwtMy44NTUtMTQuMzkyYTEwMy45NjkgMTAzLjk2OSAwIDAgMS0xNy45OTEgMy4xNzNjLTMuMDEzLjI2NS02LjA1OC40MDQtOS4xMzYuNDA0LTMuMDgxIDAtNi4xMy0uMTQtOS4xMzktLjQwNGExMDQuMDk0IDEwNC4wOTQgMCAwIDEtMTcuOTk2LTMuMTczbC0zLjg1IDE0LjM5MmExMTguMDM3IDExOC4wMzcgMCAwIDEtMTkuNTktNy4xNzZsLTYuMjkzIDEzLjVhMTMzLjA5NSAxMzMuMDk1IDAgMCAwIDIyLjAzNCA4LjA2NiAxMzMuNzUxIDEzMy43NTEgMCAwIDAgMjMuMTA2IDQuMDY3YzMuODY3LjMzNyA3Ljc3Ni41MTggMTEuNzI4LjUxOCAzLjk1MyAwIDcuODYzLS4xODEgMTEuNzMtLjUxOGExMzMuODI2IDEzMy44MjYgMCAwIDAgMjMuMTA2LTQuMDY3IDEzMy42OTMgMTMzLjY5MyAwIDAgMCA0Mi4zMDItMTkuODYxbC04LjUzNi0xMi4xOTkiIGZpbGw9IiMzQjUyOEEiLz48cGF0aCBkPSJNMjMyLjEwOSAyMDIuODA0bC0xMi4xOTItOC41NDNhMTA0Ljc5NyAxMDQuNzk3IDAgMCAxLTExLjY2IDE0LjAyOSAxMDQuOTYzIDEwNC45NjMgMCAwIDEtMTMuOTMyIDExLjc5OCAxMDMuNzU0IDEwMy43NTQgMCAwIDEtMTUuNzgzIDkuMTkxIDEwMi45NDMgMTAyLjk0MyAwIDAgMS0xNy4xNTcgNi4yOWwzLjg1NSAxNC4zOTJhMTE4LjM3NyAxMTguMzc3IDAgMCAwIDE5LjU5NC03LjE3NiAxMTkuNDIzIDExOS40MjMgMCAwIDAgMTguMDI2LTEwLjQ5NGw4LjUzNiAxMi4xOTlhMTM0LjU4NyAxMzQuNTg3IDAgMCAwIDMyLjktMzMuMTRsLTEyLjE4Ny04LjU0NiIgZmlsbD0iIzAwQUVFOCIvPjxwYXRoIGQ9Ik0yMDcuNzMgMTg1LjcxOGwtMTIuMTk2LTguNTVhNzQuNjk2IDc0LjY5NiAwIDAgMS04LjMyNCAxMC4wNTQgNzUuMzI2IDc1LjMyNiAwIDAgMS05Ljk2OCA4LjQ0Nmw4LjU0MyAxMi4yMTlhODkuMDgyIDg5LjA4MiAwIDAgMS0xMy41MzIgNy44OTNsNi4yODkgMTMuNDk5YTEwMy43NTQgMTAzLjc1NCAwIDAgMCAxNS43ODMtOS4xOTEgMTA0Ljk2MyAxMDQuOTYzIDAgMCAwIDEzLjkzMS0xMS43OTggMTA0Ljc5NyAxMDQuNzk3IDAgMCAwIDExLjY2MS0xNC4wMjlsLTEyLjE4Ny04LjU0MyIgZmlsbD0iIzUyQzFEQiIvPjxwYXRoIGQ9Ik0xODUuNzg1IDIwNy44ODdsLTguNTQzLTEyLjIxOWE3NC4wMzkgNzQuMDM5IDAgMCAxLTExLjI4NyA2LjYwNCA3My45NjYgNzMuOTY2IDAgMCAxLTI1LjE1NSA2Ljc4MWMtMi4xNi4xOS00LjMzOC4zMDQtNi41NDIuMzA0LTIuMjAzIDAtNC4zODUtLjExNS02LjU0LS4zMDRhNzQuMDggNzQuMDggMCAwIDEtMTIuODgyLTIuMjc0bC0zLjg1NSAxNC40MDFhODguNTI0IDg4LjUyNCAwIDAgMS0xNC43Mi01LjQwMiA4OC43OTcgODguNzk3IDAgMCAxLTEzLjUzOC03Ljg5MWwtOC41MyAxMi4yYTEwMy44NDggMTAzLjg0OCAwIDAgMCAxNS43NzkgOS4xOTIgMTAzLjE0NiAxMDMuMTQ2IDAgMCAwIDE3LjE1MSA2LjI5IDEwNC4wOTQgMTA0LjA5NCAwIDAgMCAxNy45OTYgMy4xNzNjMy4wMS4yNjUgNi4wNTguNDA0IDkuMTQuNDA0IDMuMDc3IDAgNi4xMjItLjE0IDkuMTM1LS40MDRhMTAzLjk2OSAxMDMuOTY5IDAgMCAwIDE3Ljk5MS0zLjE3MyAxMDIuOTQzIDEwMi45NDMgMCAwIDAgMTcuMTU3LTYuMjlsLTYuMjktMTMuNWE4OS4wODIgODkuMDgyIDAgMCAwIDEzLjUzMy03Ljg5MiIgZmlsbD0iIzNGOEFCRCIvPjwvc3ZnPg==;" vertex="1" parent="1">
          <mxGeometry x="-729.61" y="-579.51" width="114.23" height="120" as="geometry" />
        </mxCell>
        <mxCell id="ILyfzjguqehABtg-XD1y-37" value="" style="shape=image;verticalLabelPosition=bottom;labelBackgroundColor=#ffffff;verticalAlign=top;aspect=fixed;imageAspect=0;image=data:image/png,iVBORw0KGgoAAAANSUhEUgAAA+gAAAGaCAYAAACc1mkHAAAAGXRFWHRTb2Z0d2FyZQBBZG9iZSBJbWFnZVJlYWR5ccllPAAAA2hpVFh0WE1MOmNvbS5hZG9iZS54bXAAAAAAADw/eHBhY2tldCBiZWdpbj0i77u/IiBpZD0iVzVNME1wQ2VoaUh6cmVTek5UY3prYzlkIj8+IDx4OnhtcG1ldGEgeG1sbnM6eD0iYWRvYmU6bnM6bWV0YS8iIHg6eG1wdGs9IkFkb2JlIFhNUCBDb3JlIDUuMy1jMDExIDY2LjE0NTY2MSwgMjAxMi8wMi8wNi0xNDo1NjoyNyAgICAgICAgIj4gPHJkZjpSREYgeG1sbnM6cmRmPSJodHRwOi8vd3d3LnczLm9yZy8xOTk5LzAyLzIyLXJkZi1zeW50YXgtbnMjIj4gPHJkZjpEZXNjcmlwdGlvbiByZGY6YWJvdXQ9IiIgeG1sbnM6eG1wTU09Imh0dHA6Ly9ucy5hZG9iZS5jb20veGFwLzEuMC9tbS8iIHhtbG5zOnN0UmVmPSJodHRwOi8vbnMuYWRvYmUuY29tL3hhcC8xLjAvc1R5cGUvUmVzb3VyY2VSZWYjIiB4bWxuczp4bXA9Imh0dHA6Ly9ucy5hZG9iZS5jb20veGFwLzEuMC8iIHhtcE1NOk9yaWdpbmFsRG9jdW1lbnRJRD0ieG1wLmRpZDpGQTdGMTE3NDA3MjA2ODExQjM0QkRCMTI3QTg3OTlBMCIgeG1wTU06RG9jdW1lbnRJRD0ieG1wLmRpZDpDQjg3OEJGRTM4M0YxMUUzQTZEMUI0MDIyQjJEMDFGNSIgeG1wTU06SW5zdGFuY2VJRD0ieG1wLmlpZDpDQjg3OEJGRDM4M0YxMUUzQTZEMUI0MDIyQjJEMDFGNSIgeG1wOkNyZWF0b3JUb29sPSJBZG9iZSBQaG90b3Nob3AgQ1M2IChNYWNpbnRvc2gpIj4gPHhtcE1NOkRlcml2ZWRGcm9tIHN0UmVmOmluc3RhbmNlSUQ9InhtcC5paWQ6RDY1NjNCMTEzNDIwNjgxMTgwODNGMTQ4QTZCNTMyNkQiIHN0UmVmOmRvY3VtZW50SUQ9InhtcC5kaWQ6RkE3RjExNzQwNzIwNjgxMUIzNEJEQjEyN0E4Nzk5QTAiLz4gPC9yZGY6RGVzY3JpcHRpb24+IDwvcmRmOlJERj4gPC94OnhtcG1ldGE+IDw/eHBhY2tldCBlbmQ9InIiPz4OgPucAAAu90lEQVR42uzdCZgdVZk38IohgUCAlqZlh7DvO8qmgiCgILK4MKIo4oLjOA6ozKjo5+7ngqLgjDrgKCiyysinA4gMBMK+yg6yhR3sdGjCkkAI+d7jLZyekKW7c2931anf73nepxoe6K56z7l17//WNmbu3LkFAAAAMLrGCOgAAAAgoAMAAAACOgAAAAjoAAAAgIAOAAAAAjoAAAAgoAMAAICADgAAAAjoAAAAIKADAAAAAjoAAAAI6AAAAICADgAAAAI6AAAAIKADAACAgA4AAAAI6AAAACCgAwAAAAI6AAAACOgAAACAgA4AAAACOgAAACCgAwAAgIAOAAAACOgAAAAgoAMAAAACOgAAAAjoAAAAgIAOAAAAAjoAAAAgoAMAAICADgAAAAjoAAAAIKADAAAAAjoAAAAI6AAAAICADgAAAAI6AAAAIKADAACAgA4AAAAI6AAAACCgAwAAAAI6AAAACOgAAACAgA4AAAACOgAAACCgAwAAgIAOAAAACOgAAAAgoAMAAAACOgAAAAjoAAAAgIAOAAAAAjoAAAAgoAMAAICADgAAAAjoAAAAIKADAAAAAjoAAAAI6AAAAICADgAAAAI6AAAAIKADAACAgK4LAAAAIKADAAAAAjoAAAAI6AAAAICADgAAAAI6AAAAIKADAACAgA4AAAAI6AAAACCgAwAAAAI6AAAACOgAAACAgA4AAAACOgAAACCgAwAAgIAOAAAACOgAAAAgoAMAAAACOgAAAAjoAAAAgIAOAAAAAjoAAAAgoA+3IWPGaMJi6OnqHheLlaNWL2vV9K+juqNWGFBLRS0TtVzUklFLL+JXz456bsA/PxM1q1w+Xf78bPnzjKjpUX1R08qfX/7nh3v7+2YaKXJg/w0AIKAL6KQgvlYstojaIGr9staLWiO1seKr3x/1WNRDA5b3Rt1XLh+NEO+FgYAOAICALqBXLoyvHYsdo7aP2rKsrow3eVYZ1O+Iui3qlnJ5TwT3F80IBHQAAAR0AX2kAvlGsdgr6vVRO0etYmb8LbjfFHV91NXl8o4I7S9pDQI6AAACuoDejkA+MRZvKUN5qjXMhEF7MuqyqEujLom6IQL7HG1BQAcAQEAX0AcbypePxd5R7yyXSxn9tkg3o/tj1PlR50ZY/4uWIKADACCgC+jzhvJXxWKPqMOi9o8ab8Q7Kp36fkXUmVG/ibD+iJYgoAMAIKA3OKBHME+nrH8k6tDC6eujlqWiLoz6ZQrsEdZnaQkCOgAAAnpDAnoE8+1icWTUQVFjjW5lpNPgfx51XAT1B7UDKrG/fHMs9otatgar2xt1Wuw/rjdyfx27SUXrC+hJNVjd54vW/UpOd78SMnwtjovFe6N2KupxlubDUSfHa/HPRm90yaMCevYBPXaQ6YZvn43axYhWWvpwdkrU1+LN4R7tgFHbZ349FkfXbLXTJTSHxb7jpIaPXQoCf4iaWLNV/33Ufp4CQmbhPN1/Z7earXo6o/Ht8Vr8o1EU0AV0Ab0TO8ddU9grWo9Ho15B/fioL8UbxAztgBHdb24Si9tquvrPRK0S+41nGjx+N8di85qu/sExdqd6FZLJa/HwWPykpqt/f9S68XoUigT0SniVFmSxU9w26oL48WLhvJbS5QdHRN0a47iOdsCIqvM+Mx013rLB733L1jicJ2/w8iMjb6zxuq8dtaohRECnHR9OVohK31ZeW7Tuzk69pRv4HacNMKKWrvn6j2vw2I0196AylrEvhfZYQgtqGczTFysfjfpm1Kt1JCuvz2ieplOHt4laP2qDonXzrXTEb8mop4vW6bkPRd0VdXvU1b39fTNNAQAABHTqEnpS2El3AN9ZN7L0QI3nZvr2Od2g8O+ido9aaYi/4vn4HVfF8pyoUyOsP246AAAgoFPF8JPuXvfxqO8UTovL2ZQazs0VY/HpqA9HrbgYvyodWd+lrO/G7z0vlt+IoH6VaQEAQBO4Br0eAWiVWKTHP/xIOM/eZTWalxOj0hdGU4vWY/1WbOOvT9eWvi3qyvgbk6O2MjUAABDQGe0QlO6KeWPROmWY/F1ak3l5YCzuiDqq6PyNYdIR9evib/4wahlTBAAAAZ2RDkBjoj4VP15UDP1aXurp/t7+vkcrPi+XKp8c8Juo1UfwT6cj6p+Muib+/qamCgAAAjojFYLSaeynRX2vqP9jZBi8KRWflz2xuDzq8FFcjU3KkH6A6QIAgIBOp0NQOlp+cdS7dUNAr9C8XCcWVxatx6aNtvQF1lmxTh82ZQAAENDpVAhaLxZXRL1ONxrpsorOy9WK1pdG61Zs33VCrNuhpg0AAAI67Q5Bmxet04fX0Y1G6u3t77uzgvNy+VicH7VmRft2YqzjPqYPAAACOu0KQdsXrSOUr9GNxppSwXk5Jha/iNqswn1L92j4dazruqYQAAACOosbgraLxQVR3bohoFdMumv6/jXo3XJRZ8RraZxpBACAgM5ww3k6rf28MmDQbJdVbG5OisX/rVH/0s3rjjKNAAAQ0BlOAFo7Fn+IWlE3Gu/ZqBsrtk7HRU2oWR+/EK+rtUwnAAAEdIYSzlcsw/kqukG4vLe/b06F5ucbY7FvDfuYvlD4iukEAICAzmDDz/hY/DZqfd2gVLXrzz9f416+rzw9HwAABHQW6cSonbWBASpz/XmE2y1isVeNe5nu6n6kKQUAgIDOosLPEbE4RCcYYHbUNRVan/dn0NOD3dEdAAABnYWF83Rd73d1gnlc39vf91xF5mjaH7w3g56mezzsZWoBACCgM7/gkwLDqVFL6AbzuLRC65IeVbZyJn3d29QCAEBAZ95wPiYWJ0etqhvMR5VuELdrRn3dzdQCAEBAZ15/H/VWbWA+5kZdUaH1yenmhRv2dHWvYIoBAFAnTrnuoAgIG8biGJ1gAW7r7e+bXqH12Tiz/m5SVOgO+QP2C+l+FOkU/DpcTvBS1KNR58ZcvcJLFgBAQK9rOE9nJ/wsaoJusABTKjRf075g3cz6u0HVAnr0edtYXFzU7+ylz8W6bxUh/RYvWwCAznGKe+d8vPC8cxauSjeI6y7y+8JulQqu04413e++yv4MAEBAr6Weru50Q7hv6gSLUKWjuxMz7G8Vt6nOX4Is5SULACCg19H3o5bVBhZiam9/38MVWp8c56vLSwAAENCbrKere9dYHKQTLMKUiq3PrAx7/KJpBgCAgN7ccJ76eaxOMAhVu7v4Mxn2+BnTDAAAAb25Do3aShsYhEsrtj59Gfa41zQDAEBAb6Ceru7xsfiyTjAI06LuqlSS7e+bGYtHMuvzvaYaAAB14jno7XNY1Bra0BHpWuJny59nD/h5XhPLOZ1ueFblL58ui0A8t4Lr9eeo1TKaN3d56QAAIKA3THn0/PM6MWQvRN1dBsOpUQ9FpTubTy8rnXY9PcLsM8Mcl65YLBO1/IBaMWrlcrl61JpRa5XBdOwIbfeUio7HdVFvymRuTSvnFAAACOgN89HC0fNFmV0GwMujboi6MYXzCN9zOvUH43f3xyLVIk/djjC/RBnSU1hfN2qLqM2jNotaqSEB/aKoozKZb5dU9CwFAAAQ0Dslgt2SsThaJ+brzqjzos5Nwby8zrmSYt3SafQPlHXpPGPcE4sto3aI2jlqx6J1NH440un5N1a0DenO8umshvEZzL0LvfwAABDQm+fgonXKNC33R50SdXqE3ltz2KDYjt4y8F1YBvZ0ffvGUbtF7Vkulx7kr7u1/DKgitv5TGzbOfHju2o+ZKm/Z3kpAgAgoDfPEVpQpFOJfxv1kxRiI+i9lPPGltt3W1nHl/cgeH3UvlEHFK3T5BfkPyq+eb/MIKCfG2M0zcsSAAABvUEimKUbam3R4BakI5UnR30nAlFj75gd255OC7+orCNjXmwdy/3LsL75gP/0h1EnVHxz0iUJ6fFk69Z4SH5k7wQAgIDePE0+en521GcjnN5tGrwisKdrzFN9KcL62rHcNOquOvQqnX4f6/zdonU2RB1dHdvwR7MQAAABvUEixKQjjPs2cNPTkfKPRQiabBYMKvCma/Lvr9lq/zzqn6PWqWHLv2zWAQBQV6/SgmE7PGpMg7Y3XXf9jagthfO8lafs/2MNV/3sWPfzjSAAAAJ6g/R0dY+NxSEN2uT0HPE3Rfj5QtTzZkAjQnp6NN4ZNVrl9Lx7N2wEAEBAb6A9iuY8Wi09E3yrCGyXGvbG+VjU1Jqs60dijj5kyAAAENCb59CGbGd6JNgeHlnVTDHuT8bioKiZFV/VY2NdPfccAAABvWl6urq7itYjtHL37Qg9HyqvR6a5If2aWLy7aN2DoIpSMD/KSAEAIKA3UzqiuGTm2/jVCGafNdSUIf33sXh/BUN6uk7+vbF+c4wSAAACejO9K/PtS6cLf8kwM09IPyUW+xXVOd395Kj9neEBAICA3lA9Xd0rxGKXjDfx11GfNtIsIKSnI+lviLpvFFcjHS3/XNShsT6zjQoAAAJ6c+0TtUSm23ZV1Acj9Mw1zCwkpF8fi22iThuFPz81atdYh2+Zp6NiOS0AABDQq+SATLfriah3Ol2YQYb0p6LeEz++JereEfiTaV5+M2qT+LuXGQHvFwAAPnA1XE9X94QykOQmHYl8TwSfR4wyQwzqf0ihOeqwDgX1WVHHRa0ff+voqJm6DgCAgE6yV9SEDLfruAg+FxtehhnSX4j6efy4YdRbo04tg/XiuDbqk1FrxO/+p6gHdRoAgCZYQgsGLcej53dFeZwa7Qjq6eZt56fq6epeKpY7Ru0etWXUxlGTosbO53/ti7oj6vaoKVEXxu96XEcBABDQWZjdM9ymwyMMzTK0tDmspzl1cVl/E8G9KxbLlkH96VTuewAAAAL6kESwWDMW62W2WadHOLrE6DKCwb0/Fv06AQAA8+ca9MHZLbPteS7qM4YVAABAQK+bN2e2Pcf39vc9bFgBAAAE9LrJ6Qj6s1HHGFIAAAABvVZ6urrT46NWyWiTftTb3zfNyAIAAAjodbN9RtuS7ph9rCEFAACoHndxb1ZAP623v+8JQwoAAKOrp6t7xbSISsuVorqjJhStg6jLDfhP50Y9Vf6cLldNn+d7o/qi/lI+KQcBvTFel9G2/NBwAgDAiIXwJWOxSdQWZa0btU7U2lET2/Q3nonFfVH3Rt0cdWvU9RHc7zcCAnqOL6gtM9mca+NFeoNRBQCAjuWHSbHYKer1UTtGbR41tsN/duKALwAOGLAu6Sj75VH/nSqywB1GSECvu62jxmWyLScZTgAAaGsgXzoWe0btUS7Xq9LqRe1fVlrXe2JxTtTpEdavNXoCeh29NpPtmB11muFkGG86yxad/9Z3cb0QbzLPGa2OWyrmQ9co/e0XY4yfMQQAVOTz0fJl6D2wDOVL1WTV05cHn04V23BnLH8RdWK8x/YZVQG9LrbNZDvO9cJjiG886U3nB1Fr1WR9b4rFP8Q8v9zodcy/lDVaY3xVLD4WY3yToYAFvk7GxOLQMjgsX4NVnhU1OeqH8dqeWcN+bxWLTxata4nHVHx1003Ezoz6dfR6rlfLsMY7HbDYO+r9UW+rUShfkI2ivhX15di2U9LPMTfuMdICetVtkcl2/KehZAhvQPvUcM6ke0VcEOu+ZdXeXGKd0nVhry/rQDNs2HaI+mP0c2NfOMIC/Tjq8Jqt815R+8Zre9d4bc+u0XvlbrE4v6jXpZD7RW1TtI6gMvixXq18XX04apUMNzF90fChqMNiW8+I5RfjtXi3kR89noO+4Bdj6s1GGWzKS1G/N6IMwXdrut7pGrCPVmDfsULUflHHRKXru9JRi/Oijo7a2PRavPZGvUcbYL77ns1rGM5ftlMNX9vHFPW8T9GnYq6s7xUzqNfU1lG/jh+nptCaaTgfKJ0FclDUbbHd3x/Fy9oazxH0BZtUtJ5DWHeXOdrEEN6MJtY8RK4zCj1bORZvLGuXqE2L6p/qWPd9M/BKW2ew/ifr94hIl3A6Qrrg9/XtY/G5onXGQROlL56OjDo4evGJyBFnmRUCelVslsl2/M5Q0qB9QsfXv3x8yhvKMJ6WG5g25ihUQN3PivTF5shZSgvm+/6ezpxNZxG+TTf+aqWoM6MvZ8fyIxHUp2uJDzqjbZNMtmOyoYTFfsMeGMjX1BUAyEq6Wdo7i+o/uWY0pPvnvDY+Dx0UIf1K7RDQBfTF82TUDYYShhTIVy7fpF8O5CvpCgBk7SAtWKg1oqaUp7z/RDsEdAF9+C6NF9FLhhIGHc7Ts0x/EzVRNwAA/iadXfDj+Ky0YSw/ExljjpZ0hru4L9ikHAK6YYRBh/N0Td6vhHMAgAU6Iurk8rnwCOgj9kE9fUDvzmBTrjaaMGjp2bA92gAAsFAHR50dmWm8VgjoI2VSBtuQTm3/k6GEQfMmAwAwOG+P+pUj6QK6gD54t/X29z1rKAEAgA54V9QPtKG93CQu34B+vWEEyN6JPV3dzzR02x21ARh9n4j3oQd6+/uO0QoBXUBfuFsMI0D21tUCAEbZtyOk3xgh/b+1YvE5xT3fgH6nYQQAAEYgU54RIX1NrRDQO2WNDLbhdsMIAACMgBWK1uPX5EsBvSNWqvn6z4x6wDACAAAjZJeoT2mDgN4Jr6n5+t/d29831zACAAAj6Bs9Xd0baYOA3jYxoZaJxYSab4aj5wAAwEgbH/Vv2iCgt9PKGWzDg4YRAAAYBW/q6er+O20Q0NulJ4NtcAQdAAAYLd+LkD5BG4bOc9AF9NFrdOtF+4moXaOWMfUW6vmom6OO7e3ve1Q7AACosFWj/iHqGK0Q0BdXDqe4P1KDcJ6uT7koagdTbtD2jDokeve6COkuYwAAoMo+G59bT4jPrU9pxeA5xf2VujPYhmk1WMdDhfNhSY8A/KI2AABQg1z1SW0Q0BfXxAy2obcG67idqTZs22oBAAA18I+uRRfQmx7QX+zt75teg/Ucb6p53QIAkLV0f69DtMEH/cXRVfP1n2YIAQCAivhUT1f3GG0Q0Ier7kfQ+wwhAABQERsWrac2IaA3MqA/awgBAIAKOUwLBHQBHQAAYPS9o6eru0sbBPQmBvQZhhAAAKiQdCf3g7RBQB+Oun+z87QhBAAAKuYALRDQm8gp7gAAQNXs3tPVvYI2COhDtXzN13+WIQQAACpmiaj9tGHRTeJ/84w+AABgsJ6Muj3qnqiHoh6N6i9rZvnfpAOj3WWtGrV51GZR6zWsV2+P+rkpI6ADAAAsrrlRt0RdHnVZ1JW9/X33D/eX9XR1rxGLvaP2j9qryP9g4W6xzUtEz140lQT0pnCTOBie57WgFvq0AIBR+Izw31HnRP0uwuVj7frF8bvSEfefporgum4s/znqQ1FjM+3lclHbF60vOJgP16C/Ut2vQZ9jCGFYboh6Qhsq7zwtAGCEXBn1kajXRJDeJ+rf2xnO5xPW7406PH7cMurqjPv6ZlNLQAdY1Jti+nb8fYWzUKoqnVJ4dIzTdVoBQAelJyL9W9TG8Z6zU9SJUTNG+DPJbbHYOerbAnrzOMUd4H/eEC/s6epeP358W9RqRfu/xNyhaF1fVkeXRE0epb+dbrJzYYzPrWYpAB2SLqH6XtRP4v3myQp8JklnxX42PpekG8/9tMjrwOq2rkMX0I0pMNg3xHSa+8868bvjzeiIGgf0ydGbL5shAGQmHTFPR6qPjfe5Zyr4ueTE+PyQbhz37xn1fELUVlHOipsPp7jnZ6IWAADAoLwjQvDXqhjOB4T0E2Lxrcz6vr2pJ6ADAAAMVJenuHwhakpGfd/R1BPQAQAAaqe8Jv3QqFmZbNKWRlVAH6znar7+EwwhAABkF9Lvi8U3M9mcjXq6uscZVQF9MGbXfP2XNoQAAJClY6Mez2A70o2tNzScAnoTLKsFAACQn/Jmdt/PZHM2M6IC+mDU/Xl87uIOAAD5Snd1fyaD7djEUArog1H3ye4UdwAAyFRvf19/LE7PYFPWM5oCehM4xR0AAPJ2UgbbMMkwCuiD8WzN17/bEAIAQNYuj3qs5tuwjmEU0AdjhoAOAABUVW9/30uxOKfmm7FST1e3R0QL6Iv0VM3Xf3xMdDeKAwCAvF2QwTZMMowCeu4BPVnJMAIAQNYujppb821Y2TAK6IsyI4NtcJo7AABkrLyb++013wwHFuexhBa8Qg5H0FczjACN8O2oOxu67emxov9qCgANd1XUpjVe/9cYQgF9UXI4gr66YQRohPN7+/smN3HDe7q6uwR0gOJPNV9/p7jPwynur5TDEfQ1DSMAAGTvlpqvf48hFNAXZXoG27CGYQQAgOzV/Rp0984S0BfpLwI6AABQdb39fb2xeLrGm+Dx0AL6Ij2SwTZsWIN1nGaqAQDAYru/xuu+rOET0Bfl8Qy2obunq3uFiq/jGaYaAAA0Or84gi6gL1xvf186svtCBpuyUcX7fE0s/j5qllkHAADD/2hd43V3BH0eHrM2f+lbqLrfCX2DqCsqHtJ/0tPVfWb8uH3U+BH+8/9euGskAAD191iN173L8Anog53kdQ/om9ZhJSOk98Xi3JH+uz1d3T8wzQEAyIB7O2XEKe7z92gG27CNYQQAgOw9UeN1H2f4BPTByOFO7lsbRgAAyF5/jdd9acMnoA/GPRlsw6t7urrXNpQAAAACuoA++rYzlAAAkLV+LRDQc/fnTLZjZ0MJQKaW1wIABPRmmBo1J4PteKOhBCBTY7QA4K+e0wIBPWu9/X2zY/FABpuyZU9XtyMMAACQrxe0QEBvgrszGd/XG0oAAAABvc5yuQ79rYYSAABAQK+z2zPZjr0NJQAAgIBeZzdksh1r93R1b2w4AQBApquY2YZPQB+sW4o87uSe7Gc4AQAgS8vVeN3dgV5AH5ze/r6Zsbgzk805yIgCAAAVM0sLBPShyOU09616uro3MpwAAICALqDX1Z8y2pb3GE4AAMjOMjVe95mGT0Afiusz2pbDerq6xxpSAADIypI1XvfnDZ+APhTpFPeXMtmW1QuPXAMAgNzU+SZxzxo+AX3Qevv7no7FjRlt0uFGFQAAsjKhxus+w/AJ6EM1OaNt2dsz0QEAICt1PsVdQBfQGx3Qx0T9iyEFAIBsdNV43Z8yfAL6UF0RNTej7Tm4p6t7TcMKAABZ6K7xujuCLqAPTW9/3/RY3JzRJo2L+pKRBQAAAX2UOYIuoA/L5My259Ceru5NDSsAAAjoo2ia4RPQh+PCDMf9O4YVAAAEdAFdQK+bi6Kez2yb0h3dDzS0AABQayvVeN2fMHwC+pD19vc9F4uLM9y04yKkL2eEAQCgfuKz/BKxWKXGm+AIuoA+bL/PcJtWizrG0AIAQC2tHjVWQBfQm+g/M92ujzjVHQAAamlSjdd9dlSvIRTQh6W3v+/RWFyd6eadGCF9klEGAAABfYQ8EhlrriEU0BfHmZlu16ujzomQPtEQAwCjYJwWwLCsX+N1f9jwCeiL6/SoXL/l2SLqlxHSxxpmAGCELaMFMCxbCegCemP19velSTQl403cP+qnEdLHGG0AAKi8rWu87g8aPgG9HX6V+fZ9KOoHQjoAMIKW1gIYmvi8np5/XudHrN1vFAX0dkinuT+X+TZ+smjdOM7p7gDASOjSAhiy19Z8/e82hAL6Yuvt75sRi7MasKmHRf3GjeMAgBHwai2AIduz5ut/jyEU0NvlhIZs535RV0VIX9eQQ+O5gRPQSWtoATQqoL8Q9ZAhFNDbore/77JY3NyQzd006sYI6e838tBoK2kB0Ml9THzWWEobYHDi9bJmLDas8SbcHZnqJSMpoLfTvzZoW5eNOil2BOmU99UMPTTS2loAdNimWgCD9o6ar//thlBAb7d0N/e+hm3zgVF3REj/TNQEUwAaZRs3jgQ6bCstgEGr+9mttxhCAb2tevv70p3cf9zATU9H078bdVd8WP9o1JJmAzRCegTSjtoAlTUzg23Y1TDCosXn752K+n+hJaAL6B1xfNSshm57upnLT6Omxk7iC1GrmA6wSE/VfP3fZQihsp7PYBv2jM8TPpvCov1zBttwk2EU0Nuut7/vL2VIbbKVo74W9VC8qf4+6pCo5c0OmK+5NV//Q+P1vZxhhEqakcE2vKao/2OjoKPifTidzbZfzTcjHbCYajTnbwktWGzfjvp41LiG9yFdm7pPWbNj53F5LP8YNTnqht7+vlE70yDWJY3NBlGbR21XtE6hW9PUZRRMr/n6p3D++ajPGkoQ0DskfaY6v+IBaWnTjVGaeym7/SiDTbk6ssFcIyqgd0RMrsfixZKOon9CN/5mXBmCdy3/OQX2O2OZ6o5yeV9qX9QT0cNnh7mTSmFhmTI0rFi0HgPVU7S+gV+rDOHpztOTzHUE9LY5Ml57Z8Xr9jrDCQJ6B+ybjhDGPubKigakPQpnT+Zm7xjXK2LOvVCDdf1y1DYZ9Pwa005A77RvRH2wDIvMP7BvXtb83uzS0fVpUXOK1jX98x5t7xrw81JlnydqKzX0ZAbbMD7qrHjdvj4+zDxsSKEycnqyzAmxj9luNM++m89nlY2L1lmT+5pq2Tkqav8Y4/8TyzOq+mzuWL90H5ijM+n5VabdgrkGvQ3ihfx4LI7ViWFLoXv1onXUe8OoLeeptQbUSsI5NTY9k+1Ir8XJ8WFhHUMKlfkskgL6C5lszqZlSB9TgVC0WdQvi9Ydp4XzfK0fdWrUrTHeH6jaU4pifdKjjk/JpNfp1ParTTkBfSR8J+oJbQAWIn2ZNzuTbVk36rr40HCAYYVK7WNy8b6oE2MfM34UwtCrot6Sbn5bBvO0LmNNr0ZIZ0r8IurBGP+vRK07ysF8bNQX48ezinzud3Vzb3/fNFNNQO+4mGhPF62bJwEsaD+RvjV+MKNNenXU2fHh4XdRWxthGHWPZrY9h0VdGvuXzUcoDK0f9c1yP31e0brxLc2U7meUTnm/J+bElVGfGOlHCpfPOk/3Yvhq1JiMejvZ9Fo416C31y+iDo96nVYAC/BA0Tr6nJO3pYoPExfHMp0Kek5vf990Qw0j7p6oHTLbpu2jboz9y8mxPD72LTe2MQAtVfYr3fgtPbZqU1OI+dihrONjzqQzKi6MuiBqynBvdLyQOZku49w76qNRu2fazwtNKQF9xKSbSsQL62Px47WFU6GA+UtPMNgt0217U1lpX5g+RF9RtE4PTU9ueCzq0dhPPreADyXpaHx6CkN3uUxHKlYu/zk9qeGRqJ/F/3+fKQQLDeg5Sp+p0s14P1g+FSYd3U6Pc70p7VMHc1Ov+P9WKFqPXE33utmqaB1MSWf+TDBtGIKXb3p8ZPlel55OlJ5q8vJTiqaW73W9g5iTae6tX9Zm5WeD9IzznB/d/GLUpaaRgD7SIT19y3t8/HiEbgDzcWsDtjFdPrVtWfN+IEmLpwb8qxS+B3vq3j/F/79X7GcvN41gvu5twDZuVNaR5T/Pif3CX2KZqn+e/zY9BWb5ovWF35KmBx14r9u0mM+ZFzEn55TvdU+X/yot07+bUM7JrobOycnxHj7D1BHQR0N6BEI65XM9rQDmcbMW/PXDyXCkRyym5w9vpoVg/1IaWwbwVQw/FZuXK5TF//i9Fiyam8R1QHkKZ7qxyVzdAOZxqxYslk17urp7tAHmK51m+4I2ABV1jhYI6KMZ0qfE4hidAObZN6Tr0qbqxGJZRgtgvvuX9BjH23QCqKAbYh/l84+APuq+EHWjNgDzmKIFQIdcpQVABf1aCwT0Udfb35dOMzuo+J8bRAAkl2kBLDZPS5k/d0gGqiZd9nuqNgjoVQnpdxet69EBXnaRFsBiW1YLBHSgHp97IhM9qg0CepVC+lmx+I5OAOU+IT2r+C6dADqwf0kfgm/XCaBCfqoFAnoVfT7qXG0ASr/TAsD+Bcjc41G/1QYBvXJ6+/vmxOLgwjOQgRZvVoCADuTuhPIJEwjolQzpT8Vin6hHdAMa74qoe7QB6IArox7UBmCUzYr6sTYI6FUP6Q/H4i1R03QDGr0vSHc0PUkngA7sX16KxSk6AYyyX8T+6DFtENDr8MZ5a9E6kj5DN6DRUkCfow1AB5ysBcAoSp9vvq0NAnqdQvo1sdhTSIdG7wceisUZOgF0YP9yZyz+qBPAKElHz6dqg4BetzfPq4V0aLzva8GQvaQFMCjHawEwCp6L+qI2COh1Dum7FK5Jh6buA64rPIJxqHypCYPzX1F/0gZghH3PtecCet0/oKc3z52i7tMNaKTPRc3VBqDNny/S2SZf0QlgBD1QuPZcQM/kTfTuWOwQdbVuQONe/zfH4pc6AXTAOVHXaAMwQv4+Ptc8qw0Cei4f0ntjsWvh0SjQRJ+Jmq4NQJs/W6Szcz5ZOEsH6LzTYp9znjYI6Lm9kc6Kel/8+OmoF3UEGvPaT1/QHaUTQAf2L+nsvBN1Auig9GSaj2uDgJ7zm2m6s/Oboh7RDebhKGu+fl60TkcFaLd0ls6D2gB0QLrfxXsjvzypFQJ67iH9slhsGfVb3WCAn2lBtq/5dArqYVEP6wbQ5v1LevrBBwqPKQTa7/Oxj5miDQJ6U95Q+6IOKD+0P6UjjfZE1LtjPrhHQd6v+XSGxIFRM3UDaPP+ZXIsjtYJoI1OiX2Lu7YL6I18U02nvm4UdbZuNE66F8EPojaMeXCmdjTi9X5tLN6vE0AHpA/S3kvI3b1RP9aGjrsy6sPaIKA3+UP741HviB9TPaYjjXBB1BYx7kdGOYOiWa/3swo3WwHav29Jl9IcEnWJboyom8tiZNwdcz29hx4a9Zx2dMT1UW9NN7jWCgHdm2t/XzqKvkHU16O8KPKUnlm7e4z1XlF3aEdjX+vp2/9/0gmgzfuW52OxX+H56CMhXft/RNS2UZO1Y8TcW871k2KxQ9RtWtJWt5bh3MEjAZ0Bb67PRH0xfly/8Nz0nKRH4bw9vZnE+F6kHcQ8OC4WH4qaoxtAG/ct6YP1noUj6Z2S9tnppq4bRK9/GJUuV7tHW0bMfQPm+i2x2C7qGO+lbXF51BvKx8MioDOfN9iHy+emb1N4PFOdXVy0volMwfx35SmI8PLr/D9isW/hRpFA+0P6W6PO0I22Smc6bh79/XDUEwP+/d1aM2LunWeuz4o6Kn7cPuoG7Rm29GSpPaOX/VohoLPoN9kbo/aPH7eKOj1KwKu+2VG/ito6xm63qPO1hIW8xs8rWkcAbtENoI37lvTEiL+L+nLhEWyL68Ko16b7BS3g8rQ/a9GIuX0B8z1dN/26qI+lf9SmQUu54ktRB0YPXdMvoDPEN9qbotIb7SZF6+6Vz+pK5TwYlS5PWDPG6pCoP1Vo3ep+6tezmb++0+mR6dv/Hxa+hAPat2+ZG/WV+PHNhZvQDse5UTtHD/eIum4h/93Uwg3LRkK6P9N9C5nvc6J+WrQuE/2Wz8qLlM4CSWd5ftUZngI6i/dme2d598pVi9bNSVz3NLpeKFqnBe0TtXaMzdfTXfkrOG+eLur9/O0ZDXhtz4xKr+ndotxAEGjn/iVdbrVp1M91Y5HSWXAnR20Vfdsn6opB9DedoXC71nXc7SmED2I8nor6XPy4btH64tuNl18pXf6yafTpD1ohoNO+N9sZ6eYkReuu77tG/UcTQkyFpDfs9EXJKjEOB0SdW75BV9nkGvf75ga9ttM4bRn1maJ516a38zVU96NZsxu8f637h+lKHrWLfcuTUYcVrS8B/1Qwr3Q08WtF6yy4D6QzF4f4/1ehp89nPp+vHeKcf6L84nvNqK9G9Znmf71fQvri6aAo/RDQ6dAbbjp97ZKodDfolYvW9Wa/K3xb2G5zy1CebkSybvQ7nfL246jpNdqGrxf1vA4xHfn/bcNe17Ojvhc/Tio/MDbhy7dp6YvHNv6+KUV9LxdIZ7zcVDRX+gBZ59OxL634/iUdTU+PBvtAMc8Ntxr63p7uA/KOqDWiN/9nMc6Cu6QC23J1B37v5AqN138Nc873RqXrrNcoWteoN/Fmcn3lZ9jN0kElH+tHx5i5c11K8L8aMmZMo7a3p6t7mVjsVbSeh5ruEv1qs2BYwTC9Mf2/FBCreOr6MOZF+hCS7mHQU5NVTt/cfzB6f2aTJ2KM23Kx+HDUJ6LWznQzj45x/mab+5aOmHyxZn1IX6IdVj7jt8lzPr1v/SZqXM1WPT115cAanFH1cp+XiMU7oz4V9doGTbF0VtavU8VYPdSmXi4Vi8uK1pcfo+GrZQht9xwZV36Jsfsoj9lJsX2HtnG70jilg1sHRy2f8VxPX3amx7r+KD3KeaT/uDwqoAvoC94JjS1ad4neo9zB7hi1pFnxyv1I0TpF7YKyLo+d2fMZzocJResZuenNabmKrmbqe7or7jkxBtNMzb+NXTo7arfyQ0UKMMtk8JpLpyz+IuonnbhJTfQs3RwrfVG5bA36ke48fFp5N2Lzvat741gcUrTuuVJ1aZ81OeqMwVwjW9F+pztgpy8C351pYEmh/JxyjG7tUA8nll92vHme99cUjF4cxq9MX1Iv6nKXJ6POim36rw7OjfRFTnr0705R40d43NLlShdF/aZD7xFLlp+J0rx/e4U/Fw1VOpPn36LOTmfljdqbvDwqoAvog94ZLR2LHcpKO9t09+gVG9iKdIQ83ZX1yhTG0zKdBmWGUJPXcfqiZe8yqL8laqWarPoDRetU0PTYovN8AQOV27ekwJJufJoe8fq2or5n4KX3+HREOx39TWfB3W90GcTcf2PROgM1hfbNa7YJ6UuoU4vWF71Tq7BC8qiALqAv3k5pvaL1rPV0c6otyuVaGW1i+vY6fWN+S7kDuybqhtiBvWj0yeD1m3Zw6Q7NO5WVzpLZoCKvu3RWytXla+7Kdp1OCozIviWdgZdOfU9HhHcpWl/sT6zo6qYjrensk3Tk8MJyf/O8UWQx5v8qReustfSe+rryc3KVLrtJNzZMX0Kdnyrm+8NV66E8KqAL6O3fMaVTQtcra4OyJkWtXtb4iq1yCtvpw//UovWczPRt+W1F62ZLUz3jkYa9fleIxWbl63bjAa/hVTvwATvdLPHustKjH28u6z6vO8hqv5Ius9mkaF0itUW5j0mPskpf6C8xgquS9jm3l5XOhEtfAt5W18sLqM38T0fYty5rw7I2Kud/J4PG3PLzbfpMe0v5ufaqmO/3Vb1n8qiALqCP/I5qpTKovyaqu2jdRX7F8ufl5qkU9scOWA4mIKRHTKVvv2eWP6fTz/sG1F/K5aNlKH/YEXEY1Gt36TKop9dwT/l6XLZcvnxde3rdvvxEkHTDq3SH9ReK1jWR6bWXvrlPN595ND1zVleh0fuU9L6+WtH6En+d8ud0avwK89TL7/1pPzNuwM+zy/3Ly9dqzygrvb8/Xu5rUqW7zt/u8VBUbP4vVc79lcrPwi9Xen9duqzx5XLcgDn/8iPsnivnfnqCx/Ty8+4T5dxPB5vSQaYX6tgbeVRABwAAAAEdAAAAENABAABAQAcAAAAEdAAAABDQAQAAAAEdAAAABHQAAABAQAcAAAABHQAAABDQAQAAQEAHAAAABHQAAAAQ0AEAAAABHQAAAAR0AAAAQEAHAAAAAR0AAAAQ0AEAAEBABwAAAAR0AAAAENABAAAAAR0AAAAEdAAAAEBABwAAAAEdAAAAENABAABAQAcAAAAEdAAAABDQAQAAAAEdAAAABHQAAABAQAcAAAABHQAAABDQAQAAQEAHAAAABHQAAAAQ0AEAAAABHQAAAAR0AAAAQEAHAAAAAR0AAAAQ0AEAAEBABwAAAAR0AAAAENABAAAAAR0AAAAEdAAAAEBABwAAAAEdAAAAENABAABAQAcAAAAEdAAAABDQAQAAAAEdAAAABHQAAABAQAcAAAABXUAHAAAAAR0AAAAQ0AEAAEBABwAAAAR0AAAAENABAAAAAR0AAAAEdAAAAEBABwAAAAEdAAAAENABAABAQAcAAAAEdAAAABDQAQAAAAEdAAAABHQAAABAQAcAAAABHQAAABDQAQAAQEAHAAAABHQAAAAQ0AEAAAABHQAAAAR0AAAAQEAHAAAAAR0AAAAQ0AEAAEBABwAAAAR0AAAAENABAAAAAR0AAAAEdAAAAEBABwAAAAEdAAAAENABAAAgD/9fgAEAKcxisFjVfn0AAAAASUVORK5CYII=;" vertex="1" parent="1">
          <mxGeometry x="-312" y="-448.51" width="148.78" height="61" as="geometry" />
        </mxCell>
        <mxCell id="ILyfzjguqehABtg-XD1y-38" value="" style="shape=image;verticalLabelPosition=bottom;labelBackgroundColor=#ffffff;verticalAlign=top;aspect=fixed;imageAspect=0;image=data:image/png,iVBORw0KGgoAAAANSUhEUgAAAHgAAAB4CAYAAAA5ZDbSAAAAGXRFWHRTb2Z0d2FyZQBBZG9iZSBJbWFnZVJlYWR5ccllPAAAAyRpVFh0WE1MOmNvbS5hZG9iZS54bXAAAAAAADw/eHBhY2tldCBiZWdpbj0i77u/IiBpZD0iVzVNME1wQ2VoaUh6cmVTek5UY3prYzlkIj8+IDx4OnhtcG1ldGEgeG1sbnM6eD0iYWRvYmU6bnM6bWV0YS8iIHg6eG1wdGs9IkFkb2JlIFhNUCBDb3JlIDUuMy1jMDExIDY2LjE0NTY2MSwgMjAxMi8wMi8wNi0xNDo1NjoyNyAgICAgICAgIj4gPHJkZjpSREYgeG1sbnM6cmRmPSJodHRwOi8vd3d3LnczLm9yZy8xOTk5LzAyLzIyLXJkZi1zeW50YXgtbnMjIj4gPHJkZjpEZXNjcmlwdGlvbiByZGY6YWJvdXQ9IiIgeG1sbnM6eG1wPSJodHRwOi8vbnMuYWRvYmUuY29tL3hhcC8xLjAvIiB4bWxuczp4bXBNTT0iaHR0cDovL25zLmFkb2JlLmNvbS94YXAvMS4wL21tLyIgeG1sbnM6c3RSZWY9Imh0dHA6Ly9ucy5hZG9iZS5jb20veGFwLzEuMC9zVHlwZS9SZXNvdXJjZVJlZiMiIHhtcDpDcmVhdG9yVG9vbD0iQWRvYmUgUGhvdG9zaG9wIENTNiAoTWFjaW50b3NoKSIgeG1wTU06SW5zdGFuY2VJRD0ieG1wLmlpZDpFNTE3OEEzMjk5QTAxMUUyOUExNUJDMTA0NkE4OTA0RCIgeG1wTU06RG9jdW1lbnRJRD0ieG1wLmRpZDoyQTQxNEFCQzk5QTExMUUyOUExNUJDMTA0NkE4OTA0RCI+IDx4bXBNTTpEZXJpdmVkRnJvbSBzdFJlZjppbnN0YW5jZUlEPSJ4bXAuaWlkOkU1MTc4QTMwOTlBMDExRTI5QTE1QkMxMDQ2QTg5MDREIiBzdFJlZjpkb2N1bWVudElEPSJ4bXAuZGlkOkU1MTc4QTMxOTlBMDExRTI5QTE1QkMxMDQ2QTg5MDREIi8+IDwvcmRmOkRlc2NyaXB0aW9uPiA8L3JkZjpSREY+IDwveDp4bXBtZXRhPiA8P3hwYWNrZXQgZW5kPSJyIj8+R7ClIwAADR5JREFUeNrsnQuwVWUVx79zeWUXNWB4RIhXCCNUVLiCQJoBlqCIYaIBUpRGltMICE6JxojSjIKlhTmkgmjkoClqcBkTHeSNIAooQkTIw3gooAKCXL39/+x1bvtezjl373P22nufc741s2ZzmXu/x/rt/T3Xt75EVVWVsVK4kiiESrRs3qI1Hp2hX4e2g5ZBW0GbiTaGNqr1Z0ehB6Efiu6CboVugW6Grt29d8/7FnD4ML+MRw9oL9FyaFOl7PZBV0GXiC4D9MMWcPBQ2+IxCNoP+u0UX2NYwq9+IbQC+hxgv2cBZw+1BR5DoddCu8e0mCugs6FPAvYeC9gb2D54jIReBW2QJy3hMejz0IcBeoEFfCLU+nhcBx0rg6V8lrXQ+6BPAXZlUQMWsMOg46HtC2yG8m/o3dJ8VxYdYMC9HI/J0I4FPhXdCB0DyHOLAjDAnonHA9DLimzNYT70FoDeWJCAAbaB9LF3RjjNiVo4zbqLfTRAHysYwIDbCY9Z0HONFcpb0CGA/E5eAwZYpv8L6Wu/ZLnWkCPSok0F6Kq8Awy4XP99DHqNZZlRnoGOAOSDeQMYcDvgMQfayfLzJBugAwH5X7EHDLjfMs6qTlPLzZfsE8iLg0y0JGC4g/FYYOFmJbTZArFhYFIvQLgj8JgJrW9Z5cTj6salpTsOHT60JjaAAfcmPKaZAnEgiFhow4GAvAeQV0UOWL7caZZL4HI5IG/P9UuulyPcwdIs2y9XRwYA8ruA/Hboo2gZLXNA1dByUJXPoH2yHV0nsoTLee5yO1oOdQp1YTbz5EQWcLlCtRL6TWv3UIWLId38rniV+ITLF2K6hRuJ0ObThYHOIAsd/s143JpjQQ9AOWigLzK3DQt9E4L1ZdO6A1qaY3259PsBBl0rA2+iZcvvDZP7Xu4Vbu8GpNuGgwjjOAAMhJ6U50A/Nc5SLTf4F6CuO1x1HYDHCzmmzz3lrkj37cAAy2b96yb3/VwOFlql2+xGPqcYx0eLXpX55ny3DvqwcXywPs5gx93QJjnmxf3kC7w4DXjtg8eZYDbrKzIVioaBPgRlXnRyX5EHYNlc9kOZO0vZP85QP9a9IoA8aZ/bAhlk4a37Bh53BGSM17z+IozBJo5HVK42znmhuAnL9AOZvsz38XeLAsp/vLDJKF42Bh40wflQ+VpbFU+HZ1GRuTK4uyNDWd6Twdu70J3Q90U5mDskfeNR+d1G0tdz0MPDaa1Fv2YcL8+zoKdn6AMnQe9F+Y5kYYPXA7JlI2Hzvaz7YHFt/UdABWLzVJqLs5kssDwKPRu6VFoEfhHrgvaIkPn+OVCu2F1snINufIFuyMUzUvphvnBBndq4IpNLbiJDQepLhc4MqCDbUJDTAzA8y5xAWl+E2R4j3xJpVb4IIK3teLQJqGicgnVK51yfqYkeFiBcyq4gEpFmO/RT6wG/UP8NEHAHYTXD8yBLmpHxCvNDK44EfcaYA66GfkbRPAjW3nLIGyGra/0AvlWhENYv+v+isVo31hNgfOp9jc4q0umWa7W0VUjzHGFX5xf8c62BKApwcrGTFRu0VEr+poyAJWzClUqZc3rTxX68x22g5eI0QBim/YKHGd2wCX0tX1UbNBCGaQEPVq7cAMtX3QaDUwLGp80AYtrRbO62fNVt0B0s26f6gq9Sznji7r17nil2umKDu5SzGZgKcD/FDJeHUKl8koliEy3p7x7ZJsMD0ttCI7TC55yj4c3dYLnWmLFwW5JeIBpnubil2ZRhF5NfcC+jFzdjqoWbsqnmvvVUpeQbCdPqJrqnUkbcEL/H4kwrk8RGGtLTDbiXUiZPxDWGY0y+YtrmCaXka3zBXZUyecRijMxGx5km0NnTD2mHQgZb8IbaLUdvAy6GPWynkHQbfsFa/sfzLDrPUqGUbmcC7qCU+GLLLXJbdSDgMqXEV1pukduqTAswXWO3WW6ehbaq1ALcSiHh7RhgfW65eZ4uEe5OhaRbEXAzhYQ/sdh8ywGFNJtpAf7I8vItB7UAa/hJ1bO8fIvGpsPJBKwRJaex5eVbNNyKG5YoFbbU8vItp2gkqgXYxs6Kic20ALfyGw2mmEVOLrbQAlyp9Da2tug8C22l4a5cWaI4pTnDcvMs7ZTS/ahEaYKtWehCFK2P4QAB71VKvNxy8ywXKKW7l4B3KiXe03KL3FY7NQGfJ+64VjKPoLlm0FkT8GalxLlc2dsirFN6G72l3c0EvEmx8IMsvzrl+4ppb0pIMNDtShlw25CxKQ9bjimbZ3ZhjD6kdTD+tBKJhvqhUgYs+FCLMq0MVYS7j2yTS5WrFSsxOhlEzEqNr5fbg6MVszgeNjJp+KWKGfGQ1Y8s0hPkeqN7+/kyN+AlypWZJLGgrZjquNiTlLNZ7AbMH44qZkbHvvst2mr5g9FxdkzK0RqAJSzuIuVK/RRv7hD79bZgkJQRytksSoY6dg9+Xgyhfo+ggj2KGC5P/IVxDWB1CGg34OdDyJgh/Oajot2LEC7rPM+Ec+nInBMA45NmxPQwjptwgPESKvzdIoLL+Cf/NEp+V7VkpbA84Qum/DWkOrOiFaj4BGi9AgZbD8qwSXMVFzRqyyz3D7UB/80454rCEOb9W+hCGOHcAoTbRaaft5vwbmc9JgxTA8anvdfdfockHHishkH+BG1bAGDPgP7FOCtJYY815tQOmZFIUcBL8HjV54oJR21MmNECuHnNLbD6Wb6B7Cb+jIKuzCOotONFxonUy1CCUXU7vWG3VzMClgLzCrvzPSTI20NOrX2SEH/fHI9R0DEme39fhl56Sl6eNXJXQ6z6V+Pc68SgY4yQH7WT4Vuw0Xm1/zORYTLuNfrLb5Dw72r9/SJZSZkpX+T5ORae18G9Jq0F7x1ajzwPhAyU26q8zqdcWinC/UqM3rnrYZMnvQJm88pAXV6DqDwAvQ0ZHHXN+RhprUJcUmYbV3i9gITbnAxewuvvfh30NTtyMcmD0o/SQ/TUGPcStEPHVFfrZLo3iTtAM3xkwhdiCDJZ40qD3gq3SBPG5vbigCvGLuIid54BQ+4qI+FGJt4yAjaYkW6qkk7YRK/zkQm3vpbAKO6r1ugOxGtp2TcMMsGHaxqjBVdmFdwnHxdzuOulK0wpdV1txxUYv+GQeD9SXxhnaYr0+sukP5BBBbSL9g1oMpjiix7XW8/7syvMtNiQ6Q2uMP7vLuRa69/ddwewH4ZyqY59xOMBVey+MK63kxnCvTGFOy8T3DoBi7AP9btXzL1Od4g+TnHYn02U9DbmWDE68z0boiEZxPtIzOCSya/q+qUSD28wR2h3ZlGAAdIkG/Gq5IrVOJne8N6CXBzuX0E6oV2VJzebvhIzwBOEjcn1C6bQG2NVFoWY4rq1cwN0oUybOJfk1bXvZFm5pREYNE6R+zj4m+zlF0s8vsHsO4cZ/xdMdjQn3jLC+3i54/FH4xy6mgL9zEeaHJm/FIFR4xLUnAyGpbtONtsv2MilyKOymcrU+vll6Z8/ZdMN5T2JXOa7XeactZ3kPzCOOxH77wtlQv9mBIbdGhPAoyRavCfxvY2FJpbLYX6d2XuiUMvSpEe402ShZCx9ifB/TYyzf7ofP38iv1cuCyYvsqkP26rIvwyP/0QMdxbq7sv22Tikj4Su9fk392fY2OdLxrXqm6Fnyf/xanVueKwQ2EZeArYGN0Zk3IMRw10ntjeqgPEGcXmQ9xv6OTjOpnVCmvS24HGacc4wrXb1M9vki0lO0XgX0GXQn0Rk4MoI4bKbulJG874ka08D8Y5cYPw5kf0ShXzI5KGgvtw52h/RoCrlyqBWE5388pZJn+hnNWkqDDVZdmryTaIoM207JFu4OQEWyC/gMdwnZPajbwDypXkGuDQCuMNh45xcqAJxBpOtxceyeGHoljPdOL5Euzzm9VU89oQdjzrkUTThjkQdc76RJRGgATh8n5lDq8Blt/Uy3zwg82GWj+GOuXFRJqPrptAmEXh0hAU4+eUG4sIcWAhbFghGYFC12SY77/32xrsHSdw34HMZUF0nXV8gEujBbBSMW4vfMY6HpaacVIBwabM+QcINHLBApo9UN+ibxopX4cJRt3SrfbECLJB5NoabCo9bdnUKXaN6us8TxR6wQD4E/TH+eYNxnOOs1BTa5EbYaLisDpq8AuwC/ahxnO5WWKbVQlt0CWIaFDlggcxoevToGG387ykX2iiZ26O9YJNNYWQYWngjLkxAf28c78TnihAu69wJNpgS5iJN6PGrOJiA0ke6j3G2BAtd6Ld9KesM3Rp25pEFKENl6cTGTfwfGv/uMPkQkmmD1K0cdX05qkJEGoGOJwahPNLCQ108drnc45/ui6C4Xl2HV0hdzmbdwvDdziSxuxmlZfMWdA5InrNNtWK1GkYrj6hs9Cztmgb+08Y517w0TvaM7dU3ssF+jXH8v3pIWXm4+WdaiwIeylSGB0/vX2KcTQG2ONwUeBpl2h9HOyaqqqqMlcIVGwW2wOV/AgwA+MQnGo+UarEAAAAASUVORK5CYII=;" vertex="1" parent="1">
          <mxGeometry x="-297.61000000000007" y="-579.51" width="120" height="120" as="geometry" />
        </mxCell>
        <mxCell id="ILyfzjguqehABtg-XD1y-41" value="" style="sketch=0;outlineConnect=0;fontColor=#232F3E;gradientColor=none;fillColor=#2E27AD;strokeColor=none;dashed=0;verticalLabelPosition=bottom;verticalAlign=top;align=center;html=1;fontSize=12;fontStyle=0;aspect=fixed;pointerEvents=1;shape=mxgraph.aws4.elasticache_for_redis;" vertex="1" parent="1">
          <mxGeometry x="-553.85" y="-1490" width="100" height="88.36" as="geometry" />
        </mxCell>
        <mxCell id="ILyfzjguqehABtg-XD1y-78" style="edgeStyle=orthogonalEdgeStyle;curved=0;rounded=1;sketch=0;orthogonalLoop=1;jettySize=auto;html=1;entryX=0.232;entryY=0.247;entryDx=0;entryDy=0;entryPerimeter=0;fontColor=#5C5C5C;startArrow=classic;startFill=1;endArrow=classic;endFill=1;endSize=11;strokeColor=#006658;strokeWidth=10;fillColor=#21C0A5;" edge="1" parent="1" source="ILyfzjguqehABtg-XD1y-42" target="ILyfzjguqehABtg-XD1y-6">
          <mxGeometry relative="1" as="geometry" />
        </mxCell>
        <mxCell id="ILyfzjguqehABtg-XD1y-42" value="&lt;span style=&quot;color: rgb(35, 47, 62); font-size: 25px;&quot;&gt;&lt;font style=&quot;font-size: 25px;&quot;&gt;Amazon &lt;br style=&quot;font-size: 25px;&quot;&gt;ElastiCache for &lt;br style=&quot;font-size: 25px;&quot;&gt;Redis&lt;/font&gt;&lt;/span&gt;" style="text;html=1;align=center;verticalAlign=middle;resizable=0;points=[];autosize=1;strokeColor=none;fillColor=none;fontSize=25;fontStyle=1" vertex="1" parent="1">
          <mxGeometry x="-603.85" y="-1401.64" width="200" height="100" as="geometry" />
        </mxCell>
        <mxCell id="ILyfzjguqehABtg-XD1y-43" value="" style="shape=image;verticalLabelPosition=bottom;labelBackgroundColor=#ffffff;verticalAlign=top;aspect=fixed;imageAspect=0;image=https://nayan.co/blog/Ruby-on-Rails/how-to-automate-deployments-of-ruby-application-updates-using-capistrano/capistrano.png;" vertex="1" parent="1">
          <mxGeometry x="-460" y="1230" width="281.31" height="165" as="geometry" />
        </mxCell>
        <mxCell id="ILyfzjguqehABtg-XD1y-44" value="" style="shape=image;verticalLabelPosition=bottom;labelBackgroundColor=#ffffff;verticalAlign=top;aspect=fixed;imageAspect=0;image=data:image/png,iVBORw0KGgoAAAANSUhEUgAAAZAAAAGZCAMAAACQbpc2AAADAFBMVEWEBz6FAD6FAD6GAD+MAEGOAEOKAEGOAEOGAD+IAECOAEOOAUOOAEOOAEOOAEOOAEOOAEOOAEOCACyOAEQAAACKAEJpoJ2KADqu0eSKAD2BAD+KAD6AxCNqwoX1Ziawo9LYnGuwhL7aiwaIyYudst6DlrnhcWvCcVvlbE9PvsL2u3uYmdCZum9Rns7clUYsreOYp2nuj37kiZLUfqhvxafqfmrNWEjA22uz1Vu6lsiRAArWhLfgdoONnF36rWrzpz/ajy/LbqR8pdWDVXx8faN6m0+6hE3+1pmHP2mTy1b4k1p/ueFlj7vMfzyBs1v/2GfLpFL5rQD+7teQABj4n0/rpCz6r1Z8apP+4rrfw1iV0JyLUkqQACTDnah5AACtaEt9zcGNhleJbU5lsOFRvE5FuOPS4WLSt7+8ajvXcJpcyNvhztSwUkTGgZz9uDSxRnPZwsnTkqy7jpsPt/AxyvnAeJMAxPnMiqPJYIyzf4/KqrPedaK5bIsQwfTo2t72hUepPWvn6mO8VoXrgbDRaJXle6r75FzZm7S2TnyTNUXv5eiDAA6j0WmKyWv51liRAACjP0OZNVuwa4L+uQAcw/SiNGH57mIxxPKmU3DgpL2sX3rutc3/vh9gu1D3tNEAtvOSKVAmxfagRmbnrcWZJVaTJET2qsv84eyk04PzcEb71OX0u9OUzHD1nsR+1PhtwFUBvfQ5x/RizvdQy/VZzPWaz3b8uST+wFWDABqKAC6m03uGx2X+xGKBxmL2iWDQjb777/Nt0Pf+xmlCyPT+v032hVv+yXD3lGx2wlr99/hJyvX1gFV20vf1e1DCaqr6xdz+wlzJe7T2jmWFACT3i7v+0IP9u0R8xF7Oh7r+zHn/+WLHc7CQGUP3vtePEUT0i7qHADORIUyEAC2BAACf0Hr3j73zhLX7x96RGkrMgbePFEiRDUeOA0P4wNiVAEaPBkTzh7f9yeCPCkSLADmRAESYAEf+/f6CAET4xdz4wtnzibiKAEH/9GH///+OAEP4w9pHeYEoAAAAFXRSTlP9+PLorFm9i97MnGlJOnoNKxwBAwB644ahAACClklEQVR42uydf0xUZ77/rQLyS4TBk4Yh2XTdxLrurr3qVcyuRdzvt7CSRYSrLMS7S/R6WZqy9Mem2dt+myLG2E4VOnXipLWYGnXStTXx/lOUq/QSgwgxWpEgFccTkE0cYZyJZ2YcyeDj9/15nvODmQG1OpR1t+8znBlmEPW85vPz+ZwzM+b9A8o0b85c7J5K/SMCMc2bG/cDkL8jZc5LmTnvByB/N8qcl/lM4rynVf+QQGYHEp5WA/nHA2LKnBfv9yQDy9OpfzQg4JHKmCftByB/H8o0gYc/5In/AchjKTMz1uYxL83vlxhL/wHIY/HALbY4MhICjDH/M09tGQIg04gjIw0HzhQ7HJlpIY+kuCVPwlNrIAAynUQSslNxFwvXB6xzU2YF/JJTYu7A0xvTpxnInIAnLoMi8RPIZOKRKD1tJnDITrPVEfLP+QHI4/WcMmf5A+ZUHNMngQFlpCRIwOF2SOb1FZJ/5twfgDx2TR3ye2bj0eOwEDAy01MSQoEAAw7ZbKnoX292xD29PKYTCL27Uz1MYoE42Mp3+4PEQsBInsUCMA5Jdihmtn5n/1hl0PX0ViEAMr0571yzn7FQIAk+5pFRmMTDjNS0OA6DSYrT4ZTMLL+xf2xsp9s/4yn2WNNpIXMyKM/ySCDiSXz4MRQuijQ3PT4tLjHkGRkZdkIOJwuZg9b1jf3gQR7r6W1kTScQpFjPxKOwDgAIUzyzQOQRYMydkzI7YZbidDkcTkUKQWazOeitXF9hBw5SZciZOi9T6GnkMp0uKymQkDHHAxzMLwcSM+eZJqWhskhOMivDDscIC5ohyW+x1lTm56+v2DkGGlz9FSEnynRdgPKUlezTCSTe4zGnZfsVtmWT34kljAmJgAbBSEuYyQIjLngnkLBUgkJFY6PdbgcKaExTfz48Fnxaanx8fGp6hlY1fvcU7p8SSEY288NAnP6XtlpgI7MncFq8Ao+Pm+kPBEacTsBglfkVjWQRYSB0Ho2S7ElOfoZ5SMycmJySnvndmWQCyT8fECghEGKMyf4tW/fLTKGeeXR/ak7yMx5kUk7UfCFrPrwTBzGZYCDMjx/nAm7UJ7OSU+cK5/XoPOaiWP3nA5IpIjqAbNq69SXcmTPCDwPhSPBTBU7GYcmvsE/KQosgQSdjjKcJsux0yrLiBh/PTJ2J6dHsIwHW+s8IZI6faUC2boHTQoUd5q0y4uDSQgwVeKiyYueDYWgpFv1CpGBMQg4mSRJz4puRgH9mcnyGFuVND6lWM+MCqdMHxDRtiQjGp2YSEYVZtkIWOC3jONCDlFCA4Yg6zVJ+xdhDcYgahCmoEXkGVlNZWWN1MkqLJRlQPNkJaZif06mYJsvn5swKZGdMs8uanozdhCAiERDHfgB5yS97jNyX3qcev4TjGwrmNz6chojoXtnBzKGa/IqKnTvtY2P2nTsbKyrWV1qAKCQ7XDAUQMkwahsio24kXq7G+f2epOkM6nNS00X8nJbeIoB4CQi0CU4rBU+qKVgivYZ3eGUFcDwKD7tVAg6ZQg2JPyce7axYn29FNe/m3suclJwyJwO2EiVk14nkJOmfMW1AZgf8ocS0dEIyHZUIB8L2b91PcV2hxrmJv5L+jAcZmCPE1o89Eg6o0mzBj0eHGsEFUCoZvJfT6UXu5Q/NSkpOS0mdk56eQUqfk4oWALJranb6zXOnEUjIT9mhFJf6/TsuHHYGuQkIEdnEhImQfZjBQ3GaKxsfFQdKQgt+fFJrIktpXF/p50wU/J+BJeDxM958CYVwDHifUmJM4hXRtAHhh8QpBzxJQPK9hnfR7NUsZP9+nvrOQhRBtJ8FHrJsflTzgNaDx8N+nDPJl4kJoLhDEtUqQgwsFIDiSp9OINl+5pWC+CcGPAlzvm8kpkSPZADZryZaJl4xInOteGTzGMsnHv0TEIgQjyj5Fkq9FIfDAS4K/n63V0Z6zJCOMTatHgtAkjyKZC2qZsGQ0+OPywCS7zvNEkBwQy3i5LVICp51St+Bh70SPPLDn7QXFzeiyRItNaBYmRkiK5GBQUK/0lJdJDPMrCRN5+j8jLQAgDQ1lVR7g4ocCM2e+71Fd2KfHJB42svFwzpKgAzENVnYR7/dbhzIyfNdazCKB0Rp785JA4q9sWL9+spKi5ehfvRb0cFvrK0J4u+d3pmVGRlw1sG8pt7akupg0KkEZsZ/f9Edea8BhCQy37iApCiCR/3KMV1IZyd2V+slyYn4Ea0HV5MiNwazRlgSUmXBAy4rfVqB4L+vSI6S8q4C2/wahBK/JyH9+/JbwjmhUhc4hM9KTkeEdZo5j6pj4wwk34qKJBpHRaUZgz/48cdTv6qdl2urqRM2zR6LCkMGE6mxld4r7bXNPxCUFQ+D38o0fT+FCIDIbJNmITzPSvJIDgRo4rG1qn9c59AczN/ZH+mt8s0wD3r+iQQcnAcUmN4RiRncjzuD1SByr7QDfktyugOzUr8PIzFpQLbs1+RAiEevPVQ5BtVvXRt27GE3DlhCmLdiqAa9FXj0BLI3AofKQ/IkmmAg0wqEYqgTYQRE7pRfnm9FcPfQQOHUB3eMAfEFKhXIMQQR4IEPk/k7fu3++sjWiES1hoGo0ux0mCvxw/A8IohDD44d/WHwKIi0A8fl2hrw0AxE6LGWDU1PDEQsS3iV4Hxb+b1797oKSuZLZCShFCpKvhcg7CURQVaupSDCmEMNIFtXRjbXZVkcf+H8K1jQInorKC4acVw1XR6X79p7oStXOjpOFyMPJrW341UVRiOncfnyaqvgIXmSI0aGv5ue3Lpm0G9AeaZIbKOtoAtISq/ASJjbH0iKSXA3PRSIIoAc21q1EomvU3NY9tZj9ZHNEU7L0tjPDQbfar0VHFeoVkfSXFvbvnNcRcKhgMrp06cuXqQVYA6jkf4I12IMaTMuf3JaMjQ7LX5Ohuk7M8ESzpOupMzQFopkybnRdrm87c69e+XNRU4qkGJjJCbTg4EozLlfBVJFlYhby7D27x6LBgIiEsPrqD3MliCZB+GALpPw5odxUOs9SnZV3LM1EkFDRUF4SlWegJAHPVexqGV6ZCgmeJuUJwfCnVYIRCy1NlvTabyXmppqeAcuBkaSiXaM6YFZFpIsDUj9VkR1p1ri7T5GKVa9PRIIbCi0Hu5KcqjmcfE4VyNh6NfE/Zi4x00vE8EL7MIFdyUrDHK7FS6v4nZLErHxhBJStIXGR5vb8MfAQuiAJVHzKGjdWNtks9lK8qySU0Jjx+2R0shIniRKxKHufWAd4kSSdQwbgIwdQ1TnEQQkWhtoiWlllIUoblTTlRILSdw87HBCqheiw32xcUIdP86tSLMjfOlWVY2Q6aUleKIiCTE8gRV5rxtN4FBSSvojjXjBPuYmBubEAAhvd/sl2Ii7prq6usYVlKSgdXFNUIGRJFLH8UkGGSbP60U+ISOEgAeA1I8hqushvTOHEi1YSTgQ77PZI4qMtXO1M3/61KliO0X1i7CUSLVjK2sva48QojrEjWWxIyg7QTgISQztRovV4nCIJyTJjTEJLJ9IibNT52qrjJPi4ItqofQnDOszxs8byCwIcRx5JbaSIgmG4mFPYiS0BkVWPHnrBOuFZB6EpL7fADKWcxIhvaovIoaAx8HDA8MIJBaRbBWfLraTnTRe1HScfxlQeFDhAI7rQI5z8wAOpC9OHHtmrSkqWrx49Wrhw6DFi4uqayyMDgagYBDpmYQUbUU+OiUWnOLNWG3MiIGF6E0M5oXlopNRndfc3lt+xbYRySAZyeNHEoRtP/ULMydzaAGUhceOcR7H6vtXbt3MHKKN/hWF9FYYSDiQ4RNvHjo84II153MQHcU8PFzUJXCoTODL9LiCn+ZMDAGHhKZyTdFigAChKIFLdY0TUGAp3gBfkU/N0BkY4t+nJiEP4EueMQAiGq8hxtD53bixuQllO1WJNl64hx7fSExkeqEHdIcSPahCAISYdNoB5CUViP1oFQzkZNSQz3DPO7cPfdTiYsh4QaT4Cn8FceQUtjABB5+qE1lVI32PO/gwAWV1kQU+KsgqF7dr4YXvoqksLrLCUshQ/AGE+cS4NAypAoKhzIzU2bM8yOAZH4+IERAK7JT9Vjc1NbV3tN1D/tvWa8s7EHR6Kd16nMLdJHxhaJKGNjUJ0OolGPTVNx5I/Vd2JFo5/eGVukxA7t749KPrLuYgIlfs3G+dIgHJzmIDSCO9BEcFFFEqW1zpJd9sLVrdLnjwndgmglLEDQXug09D0pBqUtzstLSUlJS0tOQEnBpB43xUV2I5JxZAoEyxbopGY3Wz7VT5ZZTtVJJQV57JIU/osYxkrhqcJHS0Jw4hTngsof1rEcl1IFU5gHLUHtY6sQggN27d/hRxhBPppRd2nlI1tvOUbinFO4vVuKI7MIOGg4bnrdWLEUzCdVm9TWQo1RYwUZCMSRKw8DV5be9H/Hcib8ZaSsyAiMkCxBE0GmttBaUdvV2EpA1deSWoSI9Tk2CIIY4DmfjEcbzMy3QVCBol4yykqp5DCW8uMoUDuX/r9qHhZwWRfsNAisGDK8p7CSoQYBTVSHx+vmhDmZqGRSOZDMriaqukQqFCxdiwAsyCCpB44mMHhA5QyK8TuVN+uhxI0Eo5XlIjKeyxCneTOS6VWwgtlUfxyEz0UEg3gIwZQKggzFENxDj1ww0ge765DyKfZJG34zWk/TQ6Iqe5fYxXZFQBjOexbCs5avIXA4ahaCrERduinZeDoDCFZoe5cIcYw6qLPJI7lBGjGKIlv0wncqqtq7y3vPQO7zf6mZtJ/u8aSUwmxKVZjORJnHj9FkWIDqRqPBBiEdHKqqAyZPj6PgABkfdaRtycSH8xgACJfYwwRDDRoZQtzn/++fzFi8vKhKlMJI1LNJzIKF9tlUEFUvfOmqLVq1cEFf7fjB0QE09SmUqkpABICnoLCgpO5QUVJMSK9F1bwCaktX5GksiWo6t03UAgWoxaqwKZdHKXgNwnjd7+S88wIyIqkGJxX1xs8CiGxnswPBzvvjQqZWUbNmyo49qwQWeiP7sB1QnHEkEFWKproOoinjavPjIisRhMdM2IrOP8TCXSbLN1lKMYsZXMd0hOairI0ndpARu5tNsbHUWIPV6AgWhCXYgVEAJSMTGQfGEhH98XuvFOj4sRPgFkbCfngb1wYMU7kWMRj0njynHuxzbUHSH96Ec/OoKDX0ZmAhhnL3195sy58+ePcOEVqlSwTSLgOFITxNranBgDMXEi3GvV5K2upb4WnGYQ37L5eY6g020U7o8+VeLms3AM7i4iXjEjxYJQF9o7j00GBKqUCEiLCmT0m2sHkWqhN/xcB5EYO63viYi9385pPDCslAGGKmKh62KZrg1cZCiiBUZbNA78nhWSmztmU0yBCBuhOCJL1E/AQD8LSohi1SUdtpLKoFeW1Jrk0adK4OktzGvUIkbzTGaWcTxQF9bvBxCnFD0+ypNbi6S42cjAwVt3CQilWlkgjb4WiMBVGW6LwNiLBZgHhJUN9P4/r9GguBId6R8eUlYTDeLB3CLHijEQk07EyXg2IaOCss7vxQzERRs1t1jokdMt4bLQXsfsghjmMHjMRIbNI3onNsLByxAAwbM7JwTSKCler3vEt/fLu6Mqkdd3ueitM5Lb0VHcAdnHNB4CDIhMRIWCCXBwHTlft+G48GBim0hEQTWWOtKRuvP4Eg+FaiS3m0YeYw5EeHdGRJhbcRISR/X806X3IBoUoqUDGEnCI6y4G4nUlk5aKjf6oOCBGlQ4LEGDA0GSBSB+yaplu1FJljubjTx7+MtvAITrm30URpyhGg4EBkJ7bAKHweRUFJWyc+fPnQOPcxvKLhqKhgKnRRAA7kFa4Qh63XyACIo5EOo/wQoYNbaq8/I2NjfbLtP8AxLg0nbe3HrUmkSMijrZ5s7NcESiDW/wIIfVaWz7V9JUw7HNfnPlpKdHtbx10BdyfaoBGb3xqStLARHz8x3CQPgdoNAWrjAqFwvPQefPFZZxY4kWmABEoQ6i7gE0FgIH6rRYTc3PmLjCNhMRRappbmpqtp0uKCmnZiM3Eortj1iTiNV6OKZOOCLxzzV4KIyt6+zUeBCQ/noYyxZ/MH+SJCvoOPHKWyeG/Z/eABA19339hIsRkeeugAN6v7pO020iJNjlnoHOnQENUllkqIdRFJ7TTOJ8YVlZO+/IA4p4EnvDNlZY/UEJ5kHypE4REJN6zJiMNcQmWEhpqY17LTKS2hJkXW6m1iQPP4kQYXdd5zoMMdPFjU06Dzc4GTzwCECq9nce2+QPvUhAqqLWxGukbG/bG0MuZgBBqrWHqhE5ZO0AkTEeSMKgRFMhHl9/faYwV/VdG8rGZ2Aai/OqCnNz8RR8FsSfFUYBrVhRY3UoEtXsXsbFW++xBmJ0GpMCPPu1gIjNVtrVa0NcJ+FREXPzwj2BLgb3QCDpfC4Rh3sTUzx06oeI52BNjox0TLvtr+pfCyAWv7SOL91GJVl+ZLz33h464DtkAIHTGmFe1USKyWNFIYmCkvv1pa8v5ZLBnDpdVld30Yj1ZYARIc1ScAcYCwHBinMYUFepS4xeRViH7rGmCAhsBEU2OQPJCSJNtnJqxV8sKC8tLT9la7aQz3y4kdBQiTjyFNUpBzFp3hABXeDgewEEVQiZkoMDWWuPOgX9wNAb9/44dKDlk9s6EGRafyGnpZCJFI/RpA+2SCphtpJ76RLHQUQ2HCnEXqNx/sFCrJAIAsQYSCiU9LHxSp86IPw4z+YnJUsyiNTa2su72sqvtDfbSmxNG8HD7UTe5H/gFRPFNIvM1qlA0HiL4GEwAZB6eCwEG7aJxrHs2EXGdMvQH++9NnSg5z0A0XX31sGBEWEixXbw0LZoWxG3XMIhdLHuRxvAgzayDZ52IQlGq6QWQtAYj+PIChkLh4AAChCLUigQBwcwdUCISIqHTz74OZGSZthHeUFtbVOzVVJkhmyLMj0znb0weW/Ro8Bj9XEgtCiC/I13L/GkJt1x1a8UQDZzIPBgkY2TA7teuffK0IETYUDQ973Oo0jNleLiK0Lgoe6joZw9m4s91FF2BPbBlVsIGoSjcMNlodrVPNc1tAK9CoVLs4xopU8tEFGQUHqKmcYmIGmykZqaixySjH8eOioyDjKMZLJReVqcIo/V19fXaWEwqvR56dkGj0gkVX3AsoWxlwhIPVqNkY0TOeuDe++2hAOBbuwBEW4iGhCNRhQT8MgVYMbz2HCOC/kUL82R70aFEpynAQ5SUAg+C7YSQYWfrjq1QOiImgWRaipHYMcb86odfE6jhoZSYCQUSQwjiR5hgHNbByDrnGgkhuZyHm7yV9HqW3uMuzZLpwCS0x/ROGEDB9vufYAph7+EARm9fcjnddMSu04jnMt4LLmLNDTgcV5ElUJYB6lM9BrPEA0OiDYhmj+nFtIKUg2yqxGJsCCiM0388ximFggkJo2Y4sb6Cy4WZrUwPHCwoDOvpL28gK+3uymSJMNIMqP/sMix+ggIw8zZMykWjxu9J+LRh20CrXPgxWNVAII6MaJx4ujZgwXMA+zEnwAkjMibqNfdSmhRbySOKFvReeQib8rltlJ47sw53M6cQlABDUEHOAQRvncEgYNZFxIpNcBTviVLFFWEnfiTqFCeciA0i5dA/VpqbEFMdsA6lOpmhHhab+ftRjLXmakEYIK+CWZKCAhahl5m2YSiRFbIh4HIhFBegscSQI6tjGycUJJ1r+2jUM+bEUBuHELSQ+V67xXaJpTO5IrgQSWGeHSOasRzhXiE8j1aQIBZKInVLMRjVWhhqVQcYCLMJJREA4VTDESE9uQAg9wK3hBiUGOj7Thw8KEU0W7UjMQUZSAKs/SR0DpBMYkb8IFQp3qLYrIZ0UUA6YwAsh5A3kYVdDArEgiIvHnCRcUhaEzCpCMcyml6r5/WeIBI4RVYCgyFbxHCAGfQauCoO798wYLl43JhFUnAzzPOKQYi0l8Pg7yY0qguQiyhZgofgKChFGo3Up0UZSQiglBIJyHJIqbAIoOHhsPYNC6b2GYVSF/E6Hs+gLx2707XvgFMOUQCOZTlBmvzc70qEXE/OZQzOLy53FbOcH19JRc0IGISAWUhHMMKbioQqKxac+HCmh07FhgJmFUCEjoE2RRMpxoIua0U9ONpPKiJ1Nzc3HTxcrPopIiT4JiXjMQ/O5O/Q4wUSzOQVoQGRcytWxDiDRlcxG4d9bf6OJDW3ZGNk8ET7+Jv3NMyQGu4EUSweMh9FteV8dtEKqRjzk3lLDBAubgXwgsRSBxmx0LdfdUtX3N1zarlsC986VpoDdJSjXqN7ikFYvTjQ3xgS1NBga23jSO5U16bx8gdSeFz2ZmoQchAWvugF8lAeLpr8CAE4kZfAspLCOkCiL1hZXiS5WSK7wP8fW/1PPvx6N0IIKhFZOGzoIdS4WEjlywGXS1hIRoPHQsHQ2hWmK06HfDo7l51rk4ULbjpguNiCmWcCaaYjQE9PP11gggMBEIrpZSaWzARclvVyEKgkMdP7xCTfqEfMpDW1ta+VoSQSB7RdoL9FuTIAFJPQHLCY7rkePZwmwDClwwjkHx8XeZ5VpgmYXLpDMRLx6+5ztAWqXPq5tB5AMLym8vO1dGDOohnxwIL9iuYpFC5TtnWVAMR3d8AEakBEa6S3rbSAltzR2/vqdqmoqCTL5tL+ly2uFgcN5BWiIcQGf6qNRzFOgDqNLisY1twL4AcjQCCxZCPuwjIieyD1yKBiDY8asMwGmFUDCy82XtWPFKJiNtEWmgdH1WWLasThrIKWg4uBpNzCx1BcluBBEFkCoEY3V8QsapELpbYyru6Sgt6OxBWyEKwwW9pMxBYTOdrt0QDIYRwyUwhHvh2HBDHS4aNUHK8jrsuamP9rSoyyUIZAiBvnFA+0pcMjS78p4PZXgoik8gwlN5FHEEueOCRISDZACaRWBYuNMylbil4kFZdENoBKPBfEDcSjJ0QkTi8H6cYiNH9BZGNRIRcVomtt7y8vLe2aaOXeZ0Sho1hs3wGQjtrkb3YysWTXvFdn2CicdmEJNjQpi3inoD8T31kJwtlCIi82SMP05JhdFgfRstXJzA5FXTfoSvQWfThDW24XKh7sIkEG1kqsrAdFwyteXn5ecEEOwyeEJFkIjKlQIz0V3IGHUSkqbb8Dpq/aP2i92uVnLgUxEZRkjBx8kIiRfQtIKB5LHJfXAaNVgLCNo+zl3XcXFqp855DQAxVovn+ewDperNn2I8FkSif9V7PsNctIYg8RIsIx9e5ILMIZAwkZZzHGd2DReHQU7CXdftYsGDBf+24sGbVGbXXIohInMiUA6G/Io2ISHIeShGbrR0jje3NtRurJRoTmm9rsi2mwS1uJAnJiOjkorjWKcyrui8KKfo9txCU8poP26L6r7VEoApUDNkrQ1QXonUCS8iKBgKfdTjbi0qk4GFAci+dBZFFAHKWAxG7wuPtun1ADwj2ggcoLMRsHWnhDrCBmRCSM5gmVYlkTjEQY0AIbR0r6kP040tKNmKUPOjEE5hLQdnezBvAFEn45QBePNnaSrcX8VhhRMewEbEjIF6mhpZ1wlZaO3kFUh85k3Vg6I8A8jkqjoFoIDSAcn3YG7JWCj0PPffcc4sWLYo0kLMkAOGmohEpvHjxUlg8mZSJGj9W8WXeBRCwLODmco4jWWHm2W8ciEw1EDH6i3EUDMvxXqPVOiwF6WxdR14HT4DLm2y8AQzxC5ichAjIFiZzhxWtPgv1Gh0gAgl/tXs3dbGi128B5DUA+eLNnsHrtGQYoVGsHA5jHC8rm2RWlc0c1kqQMbjknuXCIxFLBJTTp7ATdAwoYVzCeKxZXodEa8ca/njHAk6EPFedIAIb4bnWVAMxLhaqOGW3WMkEGmtRra1cNFLacFaiRdQkALIZNAjJOrIP5zqgiZRIvyjW6OG+s2r3/pwJh+QGh17BX/LFn04MiiXD6NpwmAGvkFN2kmRviNMJOWqAhagIHrn06JKujtOChrFFYsFuOaVgy/mhP1O3/GXQ0LTjiDAblPB18FqCCH1m0NQDMan9eEimJX6ntRoBBVVJgd7bQgNYEc1IHOeTpBe5gQCOuo2TqODh3ICDbnBX9a24XsBE13QHEPQWYQgHdr0eDYRavm5qX3oV2eUaNHQA2+AwIyzM+vxzyzkQ7rGIiIjwi8SDSakQkCVLyH0RhjWXLvE4YmjNAg0PIVkR9HqR2sxEsmmaYiDiLBv048UM3UY6PZRajRd7S47rvS00gBXVRiwvEpAtzEkGAomYYkBRK3iFnBbUByBV9Z3IekmRdaELrSwBhC+IREX1Lz/KQvLgkrMHek4MjdeJHgzXDR444HKHYCuumueXa0AEkrOL+P1DoCwlKgTi6pKl2EcQMTLhl5fXraC5Ofh2ajVOORDRj9fODVXLdltpeUkJpoS4yldTo83N3/mIIw3rkPJq8QQ32nRTQXTxgp6REp8cyzl20o6IHg1EbgGQttuv9wzSSW3RwrCD4s3eNTB4cM9bb7z99h+F3n77jbf2HBxuAZcBGcaiEBTH84gqFNs5FNxHKxLKWTKQVReuXr2wdCmgiC0Ky4JVOwjJQh+ISKLVaJpaIEZBImttFAjrI+j6llwpL+3qaitdbHZibVMhG6FuCXIs1ISEIxwKYbEwOQsG4hUZMhnI2FpKslbaJwPyzSGfa4D3TqLbWQOugY9febcN3jNCXW3vvvb2Wx9nDw1d9w4OuryAwmAolwQTgvJwJstxt+YqKKwBFUEjmglKkyMLdlx4eYHDhzelelrm1AIxxlGcBpHaEgz/lhY0l5Q0X7bZcCWwEYmJbAs7CzXhQULgCLsHK9//2eLTq0YYSH1fJ0ZK10bN9WpA7sMzMT5MGqV9A4M9ewSBO+OlY/ngtd/vY0NDPkQWJ4KKZIXz4kj0bWIsuBWuWvV14ctXhS7oW7StILJTJrZj20A2uS0pzYTAa5pKIMY5JFobBbO/iOW9sI7S8g4bOo0Hgrvmr+brVoxWbN1qBmxAETfKhwc//O2/gpjCy8aTnTn9K5Fn4TInkwK5dvudHkqzbk1gIQDyFrGIshCDy50PXnvj4K6hAdegS3GHKMyrZjI5lVX4Kly15lLhEp0F7g0uXGGmsorWsLa7WpjC0G2ND7/oFh7HGggk5uNFGwVqKm8rP267jI52Owr34V0fLjplq6XT25m6TLi54eQEanUw+d9/8VOst4PZOnJj9npkvrjiyaQW0nUN6S0MIdpCvkEMGeTtrsmksep65fcHuZ3IxMRZs+Cs0MRUXl4CC1lyYVXh18uu6rqg3chGwiSsZA0RepW1hBS3x5MUTwgyVZnwMPZAqCDBhC6fMyXZCsrLT9HJiNX+oPnDN0ppSt62mNwWScE6CIg0YNOke6zffPbTdYMobKhqwartyr7WtRgBWtkfDcTVQ0BGyRJkRrV6dJY1yLsr0EOggMkbHw3tcg8OKyOSOaSayURMCl9+uRB3a7iBhMlA8s7291/dtm3bq+9v3w4YOhVCMtLiY16PBx8+YVhIehrOrYk5EHFpKEmmK7fQyBa1UfKK6Kx63/Pvivz3sm2j6rbIUjZzHuFUNjHXv/3us5+uRa7FvVpnlb3vZN/K/pUYkosO6qIOuYtJRcqzbo9G1SHZyuAu1I58e7ihtL32lm9oABFeUWAmK3g0CbcUerjkwhJQWXp1aeElMhBDO9T7d7a5fAOQ2GUPH972/naNCpC8fzirZSDLH2Cz4tLiU1PxkRiJEg3UxRiIUZAo3qBoo9DIFuSo3thULv7PMJImuC1BxM2NpMGAgj2qwuF//wWAoBqBEcFC6nM6sbPTpBzJHgHkNfxeWAZmTAavI4pEtXtdjH0QefCxTcrkg7cPDvW4XF70gsyS5rnCoVxdxvdXzwLKeK1aJYxkm28g242cEqIdCz0LLsy191XDWN7f68rOYnSBFFIgNGcqXJZRkLj1q39hsK8mj2ZOS/SRlFpbnoyKBPI6GQIJOOhUyECGfQdeABCQoUSs9Wg94krDWM5+dfK9ym4AkWThj764dR9n36KPeAhEwoD8CU2ufW1dbVxd0J0HchGu67U9PSfkQa9bdsNzaUgMLEuvLrlELP7fJTKQ7qvdawSPNcsFj8MtXkpvDbkJDMuCvWS79pKxcG3fxuhCHCHJ48fcbeyDukEE/XhRaWM+CIU7rxSbLtps5eQ07vC5LTSDuXAHIyEaKhREkGF4rHFAdq9sPdmXM3ZS7S72r6zv15uLijQ49BYO4RfX7uKckL3X3a5Pbt8fjUiyMGR6bfQWNDo6evfujdtffPH5520gY2CJZvLuG74h96DCRuC5gCTcTLqX0X5Z9xKKIERkFXZ4sFwYyN6WETaROJVs30DLQLZ/+DA0zCQqFP1J2qiUiRRrIPitvCCBUwIKvW7H2lVvyWVMNpIK5gOIomhG8iKRgAgKst0ReCwDCJ4jt1VPia8AMi62V4Ycvo8w5/I5asJbNz79+EQ2e/3+7dFb41pZw1mHxy0ljo4CzTVo9O5t4qJiCWciPNfv/UMhIFHkcCQwkO6llxBHgOXSsu5uGMjLC7qJyLLlHM/2KB7RxsKys3y+Z7P9noAnO45wkFQUJvFNzICIFRLmlxTJKNohW1NpKZKsK8i8Ck5ZJcXJVxL1Vgpg0BcFjpbffPbnz/6VgGD9SmTClGidVDsnRn3YjwUqp4uietstfvivvTnQ07Pv0I3bd0dH1SmH68quqC7wXWxAAzC3gAVUJmQCJN6hbBVJzXKDCExDYClc0s21fFU3oVi69Go3to98XvYw4VQSL2CIK87qEmMHqsAkRkBEQZLtCcna7ANUixQYzd87pQUduBAEDARnxSHb0ozEASMh0fT18Ie/1YCg29WwGzbSVzXWAChCdpDReMDQUGVQmjVKx//ujU/2ZP9haN97X96+ISxkzx9cryPiTyLicgtUdCigYiARVpIlkIQMJDeXcSw3lxQu5TxePgJDgaUsXUYGciHbzR5B/lmzU9PnqpcPy5gTnzY7LiEpcVZiYmJSQnJaPF4iJjEBYhQk4lTEZlDh51CXdrTTyW8F7XlMBqwSUSQaRgLRUmHW8AsA8pOTMBZ8PnFOTisMx17fYExk7YbvEjzosjOKmyblENW5Q7rxzaG/7Btu2fvmoftch977FGgeKFABlPu3CUo0kreHYSVe+Fcze17wWPLtUrr79leAIgzkHL9bRnjgsQYU9kiaGYdP6ctIxYePzwz51cueIaBgj4f0agY5mxgBMYkBIX7im2YiTTjTqpcuk1KNFuSz8y+in5KnuS2UgBYYCRiw4Q9/Bx4viG8srfUrWxtac/qrGhqqNEdVtdv4xGEIJiKCCAnp7+37X3566NCn/Ft8h/jxSIIDg6WImIKdjqQNVqIM0jy42bFAAFnC95rHWla3qlvX1Zvv60AkbPpdtPz0KX0h7D1+9ackCjFathwIZMfRyGcsgBgFCUpELFVBzdgwilJbm1fDgjixZ3V5Fy6maRO9LRIlwC8yeCy3jwzkP082bGEOtnn32O6TDa31/TkNR/Xmu/1v9QYPZYS5UPh1gYcQosc3N27c+Eb77hF5wFLIfY3CUO6EI4Hj8u0adjG3GkqW/kpg0TzWqjoYii4NiMQoYnv82OOIT8hEAhS8IqnBXuEFi29AVZbbi8n5dPit2AAhY0v2MJp9oDWrZmg1P9EKOKx56kXp9N6W6DeCBxv+JQzkz0iyyH2xdTn9cFm4lnXO0a+MgrA+R7tMFvr0AyOy70AbVSKQTgEcHkd3yXvd0JgYSN7o6RkcBnzyW0teJyBL/xdfOP7d3WeWd09gIR7PMwm8Co9PS06ii2Ey6UGJlzsbJHxs+DDKFAhdl8M+n1t8GIUpBkD0FRKJzz5IXovFalHEmSQ1ec22AlEW3xG9LWHjbhn5oFtpgYFQTG+wMHgsDmS3fazqq69gFjqReuKB4Dk8sPfj68Ounn13uuCzYiIYisFER/LuW7taBmXyW9ZVSzkQYFkGHvBY4GLoJmIIjc8mxSMsa8qIT57pB5MJWCichVEwGj2x7XsHQm6mTXPNiN1n2ip0/X4JMCBmrd7IV9tPt6mXSTmO3pZKBNW7MJDPPvvsJw0/5xMqOf31JwlI/d/+lhPWxeKubiSbHbq297oL1eGdL4hIDJnc/rwrDMkr+4Z8B2DBWdLzHAiw3IS6l54BF9pUIO/4mM/LP24k/IrK6SlJEXWiMuINEYvBvYRCB4EvNIap+N+O3ySmgmMCRHxGDxUT2ElKjX5eD9Kuy3rZTpdJCTqNdwwiCIWQhqMvUghpyOm3H22gy8Lm/I1PkRolugwezPfJbVytt8d1YOitz2/AacVM5Lvuf2GYCf1j//gRinemeAesyxFDlpxdcpO0BHfd2gYgV92D21pGpOSMiM83TombaRiGMqKwZwdafMO8vXUVrs4QuvRXfwxRF/IwEUmOGZA0GAitjdNSOyiQmqPL9tJqHQhSrP/733/+jELI0c3MgRJ+N1CcbAAK+//89a9GF6sy6KC3GDUTR1GgDykHhvZ8eRuBI7ZM4Lq6xiFpe9s35KKz5EQGLICcXcrvuvVt28jVV3u8I6G4eLrQdebcjPT42QnPUE7FWZBhZKN9wg5v4ywEDAPH1R//7D9e+MXvfnNg2HX4/e2Hs90SnVkdAyDaNX+2bMp2eiV1FVEvEzu6SpEC99I1ORYxUBNSqK34GS8Lj9JUyr8cbajvr284Sd7KnvPXv/6VRnu1gO4ePoHBH1Ggt/QcaDn8ye27MJKYapTMhGjo0f0EorvCzDU6kCXLburqptuFlgs33/cNeEcCbvOsWbNmZjOkWzyb8pJh+GAYrr3vvwMWBgwDx8/+Awfgdy2/bGGMPdsychh3/FoXM2L0mc/O7H85CiJykHEiWpV4saOW1nYLjqMs+VAyDOSXv4WBgMhPjjZYgOnnR0/Spd5bgYWQ1OdA9eqVeplLzP2IAn1fy/UB359uUWcxtoKZwHMZSN7dg+USRTaPLNCA/ErHIfbfvr/925vowF9/1j0yMiKuueHlLLI0wwALQaNb34R+Ru/HF37zoTKsuCEFw7cSjaDGBkhKAB1Gx8+/Orol2+lEQWLYiK29tLS3g64027wYQ/J0AgWJ2rzggRCy9ujPqVvcIOLHylaEdVV2O04sDDmJxzvf4PBrBfon73x0/Q8fvXcDdXnMkVy78bmB5M5rB4cw5yXBSF6/efPbm9xjhTO5Sju+CtUy4PNlZWX7fD7BAobRTWZEAhWdhkDy4//87Ne//vMLv/k3l3qWe2JaAgv4JbqqaSyAxPHPLfrq6FdHN8NGWLCo2RjZwumIl2lxtybIUCZaQQ4xGg4LBiI8Fo1iWxqOHqWOiX13627Rczccluv6x9f0Ihxgbt/48r0/fTzyzqH7sdfd0Wt3KZioIb7rbd8J+C2z9c1vv715k1OZSN92X3jn/W17Dx92HUZ18ep2clLELEIEQyD59f+n7vxjmzrTfK/+oBTaaQsdZLmeqkLAHwgQSIO0C6jSTJI/UoVKV4quItGUDZOb7TZd1FKSAEOCMg2IH2EUJUpufiBBfm1BMcwmDR3ZrFZNlX82qNpo5Ei30mDHdkh85tiOk+PA2Fg93O/zvufkTXychuTYDvuYTTzT2ZT4c57fz/u8N8q27rpxI79Ymk/mX3lz0/rEo8T0y6sAstlwUdxL07BYxwDk22+P2TzYmomz7Ny1s7T9z//7QxxTDf398m/+hfGIKMV7wINk2234dA0IPDoRoWsqxK532rEohn64lozOzo7ae3riTzOKhLuSM6g5ehK2r4jIj9oLkuRNfqR/zD5tzZqllN/u2kVIoB6lW3PgPw6Chy6PXsCdzBvnpt/ZBCAmiIi7CG3vAwiQoCrioRTx8r+yntVvfvPhP6HVvgUz8h/++UNmshRUecGDWazbt+HTORAyWuTRkY38MwdCJZOQ4m0XvUFRJRllVd5MItFcyReNEz5Jddb+5Tt87PhjwKJHXuItxIgEJHaV0VeoRumBshs3DjcIHnTMCUR++foLj9atGAiynyQgr9DGV9s+6AcR2Qc6kQdgAgEI/gX7H/5MZ0MpI1Q5D81i3b5MQ8C3SSgvRPD7xz8CyR9o4t0TggM5pfEwQsmMxBEGAwlY8D/YKhj1KV7pv7+DHnAoqZgIxyJi48U8cm5s/Su+wpfnoEaxF7HY4nVbG9jkyIYVAsHWvsU3ZGxGVsgGS3aDBpN9NInILg94oIqsnY6G0n8tF25hPHSLtRsWjDSEhNcV/3AVSG5f/Qe6T0eiOd6sSxKSLzonOmVrFGYLotNYWle4FaPvi7Dk9Of8FV/xGDLvWVQoL64V06ZpFGHWrxAIGSjMTSTFWLAsAKLL7ss2Ft9G/n6Zeu2/4TPyjIdsayhi/nzeYu1D5xARGgNCnp0uXPtnQvI+eMjebtqanHWJk+EK8LyEZgPOoC4Ps/U3UhJBJTUUIx5mwUr7YbDAQ7MNew5yHthcCZnmTN5aRaZOn/+LfHJCWCwNiCCChIROLHyoe3bIvzIexVAPxqNft1jv2x6EIkgMIVxJyFqhzHv7I1YWpuGStREgYakiU5JPnE5f0Nn7V05EMEmpKgKG/o143Niq6wdJvjOoOfOX169/+aU5xLxsR+DmlQPZiOFI7I8Qm2BfmFMZkIfzQJCQWDEeuuVDHvsKHoX5e6tOngQOjgQW61sAUT0AoguzVn/4w//9X+wCsBPgsUYSZ6kiC7goTeye8MlRtZqICGFIlvb1gk1pf/8uslqcx8n+ww0yD3ffeJNfh7ox8YiryEqB0BpFrS4pdsxAPAkAWYAERCKKWMXxL5xH7smqk/39QLH3pGaxKA3hMbOQP0JIQZgDWVPhroTXRr+ckKWE86sfdSRGLktTAY/Sv/xlVz89jKV7hYLMrdMvEKWYFwdKVgyEr8wQp0z5ThNeOQEOINGoPERCovAzJODxG26vcm/0nwSO/v6dO8lw7b8KDUGiTuX320kCxQl6jSsbsu/d4Up0s+Wy+EJ+ciT0ErLYq6RgAntV07z117uo/dO/a5euIOz4NGDwgSDsB331EW02XikQVNrZ1huUN0WlF0Csx6AhDxkR/nrfpnrYiQUwebBFYem5zuP/0FfUsSCUh2Dvxu4kIFAQj5NnIGuMJOzu0wrBnwX9PsXZ+xdGIyUWPf5ajCWnqqt/16+3nrzRfOPG1q03ILnFpCCLLtwkJBvpIt0VAYGBWkdBLjrzr9L6NN6b4hryu4caCV1HkJB42IkFJCDMYO2BvSLZ+yumIOUIk6EiCLNClFYmK4hUTyXFNRcEXLBb3Gxd6Z7oDEbnkJFoPJa0X4LIj4d2VbVW5RyC2cLzuPW/6aHcUygbNmHzSdA3Vgxk4zsAokRVz/QLoElqspEBQS4BBYFwLPhKRBIPaPgBChKhGRPSD1KNd/+9n1usb29vQ/JyzPoAlTDCIKBcVtnBtecACBNSEhb/NoGILVr9HeeBb9o7oxzSvx/o76oq/duhXf2t/WVbf1sKP9KPHCTVJuy3YX9WFPbya74pw8yXbA/mVNozzoFwJ8JgkOh2a3en7YGC/ZFqCK/E3n4IoOyEgpxkFuvbq/tBBUQ8/6a7dQDioZeCfQ3PCw/Yrac3eVLyJYIt1fnVdxCBwwjl0KEDmpIcaO2qKQOWG83w67/NIR57nAptIDFswl5hT13EuFLh4W1O7LWmZfwCiBU2i4tQFSQk1GaPsBY6KDAi//Xve4lLOVBc3VZG1u0YVEml0gvx4AriczwXBitZSX7CbQAeOeJsAwodShIV/B8wlO7CN3oz3NXVfIDHWaguUtzbn1vMFIQl2EYiKwPyFm+/7im5+pHV43n0DpSEO3WoDTIRXYSqfEThL4XFTngQTUHeZd+hGyBStpO+7fvIZlOP3eZESEF83rbwc2OwNCWJ3+TBlkOVg85aAiGQCCJQjh93lZUxHgfAY6Bi4MCPf9vV35/D4t7+k1WHkaTzy083m51+p7oJBzJ8D3EtwiNskGNhL4+z7j00yu+sHuqAYK66n8u73GI1k2rAZt3YBiJA8rvL1sjvuJZAQeRo+/OlILqSwJF85rRKQWfj3+aJCG2hNwe2372//btD3H/cHR4YPAD7RTz+BnsFg7VXtiri9hezQFC34vHSkXu39l22hh5Mz9FNnrqKpCJyLOEhi5Wnh1j/+f/K+vtryGIxaS3T3tzevW8f6Qj5FJ+r8vnjQeEWchIQiUaloBfhL8QA5b3t298Dju+Ix3t3798vAI/3TvbnHPqxlAc13GBtYfd8mweyXgdSjtmQh8dUq/KApZyaF7l379a9h/RaIPeQIrL/l5p+ArHzg3dP4jss1kOuIlWwXYtk97+plrVPCVMKyltUSDmnRiUlGiQiRjl06BBXlkPb7w5+s/1HWLB+hL0Hyvqb+yFFaIMIBTELhHtwNJiqmo+AyK3dx9RoAkt3+LkuDwKtfcce3mIcBJD3UddSons1IPt/tb8f75q3sVwFRMq72Fshx2w4iP4cpISplSQwohOxqH/9Dp99asE/2X73++1krkrBA1EveJzkPIQHMQ+ELZ6RAKSGVOQeIblss9poaBFcVJxu3Hfv6j3IQ/zBi2sITh50AkhNDQH5YGd/DVksPYncNkzvheyOsPuHn1eJw7eDiDUqRWzRHdsPHDCyYAry3g8/MBw5eAwLAKW/Bv78BuMhchCTQCBYjsyG3JB8lly9xQRK8dGDhBViUz96/+ERCHTk1rZbuobss9JZqZPAQEi2fVBGQEqu6on91SODJUREh4Iee7TnOfQgC3w7VX9t0BHr3/dU3C9lUlCAL2WlObs0ItyTHCigZ7Asp6u/ueZkf9XeXK2NnqAkPQ0b5XQghUXNXV2tzGjBaxCU3fsgu3c/vHXrSElBOUnJNqgH6citfagTOnM1HjXbbjeTyToCICSMyPdHOBH6shspyPPo0RebLRAhzx6N5nw/OFxRU0VSU5rzntAR0Nhe1l8FErBV+FpT1X84VCyL+9zSCESJ5rd2tdaUw2TpL01gq2CxbpGSkMniGrI7gfPoAMLl222kIGUL0hUQKTnCC5MA8jsVZzefS48uJPx0iIhY5aA1uhVhFcl7wnjBsRx4rwA0qpoBogZEmoFjT26DDTwMHn2zeSA4alPW1drKIi36w3lwMPSHCf/PpCO7H6gEpFkDsh9/P3IhC+TqwyN6CWyfDYebn2sFYeK+SfkI9TSLf8sYMKF3Bw68t710uArS3MV4NDc3VwFHUXGxrOjzDBsNPEwBoTCruRVESjiBW9yPLwAjhJz7RwnZCSCaDympApASArLNmNhDQaLd9ucrR18ySfzCISuKYvkrYQAHqEpBqS5lqJhwAZq9h3MLC4PzQw3Tr6IoK04Evp0GIMVF0BAiAgjkNkpKYKR03YAj4cIMF/gcs0rO3GZ6VIDiCIDUMBdytQRfk2Sf1ec48fwrCFVSkCR+MuFD79qZM3h/eKCri1z6gb/gkAHG2nPKmolIDTxL2eEiuaFY1nHQSDUirPn67rr1+FxXAUTcNcyS8khZBYAMkB8BhyMl39+FlDMpg7S2NqOKVlYCv09e3SpF87s4kKqScgDpOkLO5cjeW8lEPlLZden/EyQeH6J7R1HlUfDpDxe8d+C7H+E7dhWUDlRBiEVr2Z68XLWh0CYBhwCiO5DN1AGheMtkYshtVtdAK17N5UdICa7eKin44ftv7t4fruiCjsJmdpWXQD+4K3lItZO9GpByAOlvZQ7/annztqsijwQiUpCL/xMURHMkP31MRJy+soqB4eGBVlTaqyCwHmVlew7nFeVbC3HaQJIjxuv1eNf2rQ3T0+tMAeGlXYqzBiAg0tVaojlyslwFf/rhB0S8JQSD02AvDMVHy+A6SBCeNVeV8QjsVmtzya2rukBbLqvRxfsUn282cO1nQERy5oNIKwn7UKAWWxoaGgqd0YgsB0OqEFp4Ah6bQYPmGtar8ABvmQKyDkC08x0VAxB8ab4PJAuDK/2NiIj3JXyoZcGmcmFA8IKtu1txH/yYlJc15xWSBwkLHLHZp8+12PuGOup9qlScOzBAOsJ4cP04XGTFKJeaJNNz6/RVGmzyJ4GMxIQP4TM/XEUaywYgZRUVw63Ng3AWQLCEIDW5rKLa0kXClKSmlVAxhw/vQ3aOrFzrTlm1NiLEEicPwhd7nuuUJGbvu9LtlFTpYNHAAFxjxQCXii7InvwGZPNJazbe0g4ivrGBzoMg4np5kYKsrmNIIjXkVeCJ2LmfzGdF8wB3GZCFICDcluU5i4tqGA/+peYIT1LgfWDoYOfIyt07FvWJ0Wo6m3Ox42Js6eGD+HNg0GLuvs8kqwcfR1Hp9oKCu4i2EE4yMLDmhzsborIcWsDj9U2/wFa5V16co+lRRQGQ11YPRFQXIVRQr4CSlr+7fxjfEfUNlJeL4BfC4l5YovKBrqoy1YnkHqIxqSpHIYw0ZD6HuXr1Ho5HJ4L6WZD4aKC9u7dn1giCBJ9EbHR0NPYc1CDds5/4lQg9oAXv0djP1gO7ckoBhiEpO5x/sFgVjiSxhRY+0KnQkEeWo05sdMACRlNAuFfnp6DKhkFiuGR/+QC9qSA9HRgeLNfl/kArAnE8LwiC8xrksi5ColM5cnU+uecM4fqttLM6rlmra9VHu+2zYcNMDoTWabjtJOHRtUfCb3QPoY1aM1iACsqPmORFIkJI8JkMIAs5iFBLliQZEgQHJrbigw35uVG0qd42U+0VToRGHXKHSSoG8dEPD9wvBxNAEaIHHa0VrV1liYN7kNyDCaPS2txawtWIawcymfLDxbJHu7sen/OJ3qMd4UDYQMN9/frX47+u7uhubGzsjPR2nLq29lnLaIdLVlFEKYUzhE+9jzzx/v1hCH9OkRnmq4WIuoqLi53O4uLCgw0NxVJu3p7WomL5NXNA+AloDoTs5vDwfbygIHhTcmQbWSgI/jL0dGgCLiCR15BH1RbBpIZ7Hc2udVX15zslL7+hMDxrb/JPVMdj8SQc7q/vTE6dr51zubw2i2NCbjrRY1/7RlY88PUjS5AWSJYPQsBiEBVgCl/gXjmTAZaW5Obm5ufn5hYVHT68pwz52p4GmSyWGSDCZkEotrjPhD8LgyiF/OMHVzEsvW3btnf3c3kXsrN1oKLMlt86L130p7mqdZjg4U1VTVcNTnjJPObFfdyNuF8V5wEW4Yhfv/NkZuZ8i9eiSD7VoXZgQdZsYO1NFvm7C9joQyYDPAgJWa4D8CVw8lz44znARDPcsBq+aJBiLHNA+Gyv0JHB+1ygKXDu7Km/CvmA5Fe/+tV//ef+ndy/HW5AtaVCR7J/J7kWHgSTbWsug1dinXS4jxNR3AgdW8gDOL6enJqavFDrtyiKZHP0Hu8ZncVh6bWPs0hi1897FRZ5akQGvynYvn3Xrl0Fg/hYhAwslC7ML06vMwVEVE+EH8kvvb9ABirg1BHBQrZtO7IfBmx4/sHIP9zFHUoFSAyQ3hAMzdM3Fx2U2X4A7CU75cKmsj68E/lh7Prk1MyTyU/nvMFI0OOSj1+bDTwvNEjik1/5g6yiNHj3LkPCLfaw/qwKJsM6D5qAT7xlHgg7UiiIOK2H798nw6kLM5nkU7jxpLc8V9qTq5EZqMCfgf0f/Mf+neVlrZCy1maY04hNppg3cLweC2ZGAgvz9fAd4HgydtpvI1Ptr742O7p6GvEM8Ihdn6r1BlUl5Cy9SzLIvxAaYUIgAksFTEJkesNq+yHGUSBdcKY2F0rC9FRQSfq3E5PhisN7wEeLu2BJB0sewqz9xx9JV1pxgEVC55bzcHQ8HrLHxG9rn5x68mQGPCIw1K5G7AUyoRyxzKT+dy5ItgjqjPkgwZloQASUxbqC8Swc8yQFMQ2EjuwIiUiFzrxSECERVAy6Ci5lmr6W7Rzogs42D1MdEkpSgTSFmv/XAojpJzqd3UM/wbmLp+/JzPiTmcnzfmwFkV3mdgHhvsP5AYpRe9oWb9FD86lXYXHON998Q0AEF8NHQx8GHz95yzwQfmZKXSiy0hDMKx2EGKkkIeE2FOl9OVUXmFNn8UY0EiIFCc9edPhs1iu4t2UBj5kZ0o+z3gjxOD46GjZX6+ho57QRzCHrSRuRO2PMjfgadoAIQUlNhcswbQ3YwiyWWSDCrwsJSWqDWlR6VyDRvIrgkmRAB7eVDIp4oxXqG0rMXYsFemj16Gdi9Sg9ek8gM+N1EiZiZbh9cz4AGNqj/GQv1m9VBtKYsE/OtMCNhDzOUuDQoBh0hcsw5q1DKl+PlRYgb786zT27sFtqYXF+nsZEYFnSfKEYWa4HHBX0uEj0Wbu7nZ36yn0uMfyeRGTsczx+UCKzPIhItYrggQHpTt94CzR57MJcIkRu5Ptvvmc8llKV+4eL6UTA3DtvmgUiIq13eL4uJCTLzgZnft5hQEmSlKpCkRiI6PFGMNpip3so6EpobOERFubO1DgUZPJT4uHqEMniqmu94EAFgThdARNMZ3cSRus8N1p530MEFYOqHC5WFTEst0ogmzcn3XiEYn6SBDGkf7DBml+Ul1NaDiwCxaDR1Qs0AzQOLruwAAuXGXm7MTpLFms+nCT9GJ/qRT5olbRSMBV7ueA9lVRWqCKnjiLhwQ9391bje/r8Otdj5Ic54CGgCCrzPILa+rjNq79PnZrAm5chooaCsqw6UUdz+vJz8/IO5+TklJKkUhWdCDdYKPPSRYSS8xydiRF7R+8ACBTkNCmIVlghGFTsvX7d7g6PzmK9tXuFgZa92wHHDm3r7rWPppHI1zN1PmsEdXCpgOFIjSWvQVHENOkqgaAzRa0ucbkC1vq9Q37EKJGgjK5+1FkMLhCVrJjRfAkopThwh51Y9hjd4cnvkMI1OvMRFlOQul5rJMgOgcYBw44SI+LgJ2NjM3W/Pl7ddMoeW2G9/MQEm/0a7ZhI77GgyTE99v3+hx++TwmlNLeBZh7Ig2wyBeSXL294/U0+u8KFLsVVl5KQ4vPBye/QbJdIkoxY8p0wWP6LeNB7Pc4OtsZiJK6b5a+FgrA9TVTwnZyZmpoCjbpPL7WoR72VPWC0Qi9yvYUZLdyokM4hSXp+xi5xo7XjBwigLMICJjuUQp9KoiWFJkzW2y8+oi3/gDIvG/UE0ehNPMWFiIOFDLKXMQIbpgSJTqQjJcRdXzBYeA2RDRIWa3ymxRIJ4TbJ0Zj7zvjUDHRjsu7850Gv92iCFbVWLOFPvVbEvoHqo2k994BkZGYKykwuu+CHeRFACooarJI+vfhLcyeooBEvPpp+pL6wYeMbr73+i7c2bdr05ptvpDBaCixWtKE4N8cQXVCFJ1lVeMTbQeMCjQ8mPgYN4dORxI1TTshyYJwZQYlxnAGarDvd6/fKXm91zyqLWpMt9O8MVNen96RWLDyOBFZho50/LBbCkRct1ocesO3S7PkQ8hpzCWz5f+ST5KCyJYH7sF9cACSEJc7Up7QWNxQiI1kq5MNLQLlfijX0kr/FPooc3WVrHAINSF9YuBCWg3gVZrGoxDgDHF8F/Taf1dHWHlhlUSt257wFVjJQ6bLCiaS3yDipG60//QnDG0JyiqwHFVlV03M+ZLPw453OhoPFUZsiyxKJLGnfPYo1Wow+pZyblyOiilRURDG0vNMpy15EsyDQYZn4gvMQPv1rVlSsQ/6LuaP2O+w/zZyW/AlZcTTiCqpV4eA/uNaFjv1xlz/Ng8TzRsvamVMAJJxKwY6ixsLCCJs/EQbLDBCKeYnIC8Fo7o4dRbn5shOdYZKDB/l3QEKoCzdeQBEFZBkoTFGQgchRCdU+utPLD49OItLCGEMwSelWxNKIuAotkbMt/mgwaIlW2pG0m8iqz1tcp/pOuZzpPhvkfsKrjIpaGMzPLSLJxTNcKMaBxNaZ1QPZTK6cR1Y4C1VAzAtycnZA8kjoTU5OQcHiMI9/XZrK4De5hZLs9cG7UrLmYrd0kgsZCgsg5DJq8Qsq3ktjMFfjp63eaGPI0kLOw0yFcXyqxSu5TziibWnFQcoHo+WF0YrINmfxQQgmShVJVlTDuPWqgUC5XsedPBC63ihYjJhOWEfhtfgrSb5ZksrgDx2FkuRvvAYekI6JJk1B4NNFvQ426kIEFivoPz85Mzb1ud838cnHDj9qWj32mJkO39hpS/2pi45EY9oPo0w+qZNslGqQT4XIshJSFwlr3JoAwuu7r67nech62dOQW0C2Ea9kJjqY5ancLego9kmONoxesS5F5wRTkEVBlv2JbrEQ9F4YH6tr8XdOfPJTk9N1ajZwEbtpzJj6OqwbOhUN8avZ0+rX+V95aRFFXjNR1su4ZumdDetfe33TG1t8xc4dGpEkKGCRUle+wZ/FUAr+qbhTra/G6BWviU+0adfZscKJKGTNsBgrYmmZmbzQ6yUeQ40qjrHPnkJ8ZNKwqN1yKMq4pjcZmYKVTUlEjL+bBYJ14q9MJ9jlVypiXbSk8nOAREAxyDIGLOdytNMfPRGI6ddCHv2EKwiPekWQhbKJDRbL+9XkBcmC0goOW2J+CzdKHj9lEshZi5JgNYJ0A3E/GcNYUCglj8S0uo54mNaQt0HkUYKt/J1jLaloYRHsFpdUmgLRtMVABa+84jm5vq2HAiUOpNI/pAN5PBuff9SoUxhVVLiQs3Wcx2OcI5Oka6Oz1WbiI5bhtNB0myudca+gje5hytvaHr20qGtrKlMXc9YkQbk4mlewiAiEY0lCY8CSg/PzftupsDAWgbYz4v66eS8Ln87rWCFb74UW2KuPycV86bChzBjoaDIDxM5+ciaAQMLjT6gcauQxPbfx7UU8zGXq8CNJrXRVIOE0Urr6JKdSkOeMWv1NPbMLw5teSgpFGiIKJ09qmQup/dyP3hXxGGmL+ptQgeruCJj6zBC+zel396RfRYRfF9qBfcf8/kjzQMTleOqWxa10K5AYhcCkFMIRLLT42y6OsqqHmDzQLRbSkLgwK3AhCHpJIa2d9U0jbBFllJbNxezBtpip4HSKJTiZAEJR9Qz98IU0sLr61XVsJWLagFCu/9rcXGJxKx1lxB2pkKQ2X8DR4PR3X4wvTrNH3XDWugwJnw4Xgt6tNpHXDWZ4fTHRiXOho9fQHjFBhPwT2SxusjKgImMXhM1CMDT3wsbX+UOdPiAggkbhO48YEYFELm7ohJosLQvra9EGl6XtYjj5Tq9w3xVCIdIQ4dM17+ixzeFiYuZC6iVbz2gAcbJJIIiFVBFlpV1FhF9PvLiB53CIrtIGRBThNzxKulpUlqJU381JCUN396CRl1/Y4Ig0tceTcQCIbrAgBEQ0QzTNx9TWZ5zHUKMVqx6eoi++aiCibtlikVkekgkVweBSIkTq8dqmN8Wt6WkEIo66zyX3blGqAZPOoh05qTWFVTuLGya83ceRQDwNG//+I+ImbcoL5wsn41q04mMBL1uvV99Jx6zQWzKnIQBCD3FEysyim/A4j+LoVCc+Nk4j/UC42v3iJV1JhARZI6TYl4tKY0GBzgXvcnbk5TZGDzZM+Bsr292pp3LDsxyGyAt5ZEqFLMZecp3RL+rCSf36EzTBVd8RM9e4YJ2voEoakhkVoUYnVUp45SpTQEhJ3l4/N70lZavQ5ixkhfjOfJLGziBmHQoLHS5rd2W7PYBAN576JCsjIfJC8ZExn64k5s4RDBb0eiVYmdEe1UWxr6nMkOqW6XfqImYHb4VUhDbsZw4IhBb5b6BD1gYJRTygImP3nSZOv99vwUHAHvcsNVuXXlEhXMhILC6CLK72GAfs/pjHWJ9N+BBe4UyPy18ZiJsqAbJmvU38mLRXtHgOxccZMgVEeJLXXhRIDFgUSFCRE762psoT7ahzQDdS4RA+XchIXAw48MkzkuhEI6IsZrGQhcCF+F2rrmWJSvLYJW80M7tuMDY3MzN5NhrRBn42ZwqIUJI333iHkCwtkuPM0EgfYIwud6VafIRriGhPcbfI5k14euXprKdy8FBnVHK2BzARYTMZr7q1+SIlknavLh4oVKqDooGeSSBQEh3JkkxojH2EH/NfTniQJaJeblNo5j2IUi+XTrTcKSvE+qans+0u2VwjAzaez7NIfirjZ8ats6qvfudwRoEIJC+iHp9IyUTGmC77dA2ybNQr8nTovFA41B+bXJ00L0fjIm3mzkPD6bIgTsrUQsEYqTifm8NNOlkAArtFSNZtUGlth4EJTx0Qwj4LkMfGqJec4qLWG2bffzpXL6ky5uXsvarJXeTQEFYp8ylseUSm3DpXESBB0T2zQISW4KLJV8FkLhmK7DpHEdMzjXYSEBFk6cUHcroLgTT9dKa+E0dE3LMnHD6zJQ8CQj7K6m3LBA7d6AoVyTgQMR5ETDa8M/0IVPi1lSSSv4M76OUlTECET9eDlCfcpwuN+/icQ8ZAKarubV4aTjCvIRSY2nr5T8pIQYvVy0hHyItkHIhQE8im19945aUEX3WjWyxyISvVkJsLXAj/bbhEfBPnzlDMCwVp95u/PQFOHYIHOCO5enJ1FNdNZQ8IIdGu0Nv0i3VvrN/4EoiEZOc5owuJx5dz6tynCxeisOqlR/Z1Hv09kkIrHegY7fDL1h4CYjLKYhZFcmUizBKBIrXBxGhcdoAQE1Y/E/vhZW/bCDVjkzar9qX+cJCpCxcigiBugD1eh9dZP/HxULcXCwChIBf9Pn8TaxeaTAzZ85u5tbQUZ+Gp0rzIG1kFIqhg3lSz+JR0J636GpoN/6zNeiyykCl+kC2iepxNX7Z1fHmOknQ/FRTDKGd58VSbfno5kMxddgU1F3aXVbSyBsR4CY8PaVyST3f3kT1appg1K4JeVnngP2nkMcsJE7iq2E0HrUyHqkR8HghzRxnKDXl9RhHr3tcAyMt0ebQnemWRT4/FwzdT+3jRoXpMCiKGSLWeG5wRqc6VOZuvHgYrcG0ugiPt6QMiUdk4Q0B4weyslV+Sl3Ug4q5c1RPtHlkEhBZzD8V/ZgnMEGunx0TpnY3IRXjCj2iYTrAzvejwd9abt/p4eHUgfpaIZCzw5V1P4dazCUTsAMRKEhExkdueHdEaHUIWPZfxcN/Q0E3GQ8RY9HtgUxPxaEPNBC3C+OxxR6ejaTQt5p1HWbTGbpmV4ub+LTxYhIqsyz4Q4ULq8TECyII7aQwOpD2+CEw4HHYvytqo4aZt2rjS7ep0deOcFeXo3haEvukBQuV9qODPz9EHYm43zmKv3omgu24LiYs9sw3kZe7TP+ZAREdwyJ20ckQfdHPbY8bfQ69jIXzGVY5WJ3hcCyAl9MqWYDoSOW1jx0wtfuDPH1aP99282RdYHRM9lkPkyzdpbM42kM20BoXn6XoMi/Vj4GEoa422deubLo4HjKZXH2+Q6n9/rmMi4nN02ImHNWKdowM+ZgUD0XxDBOZ7l7vQJ/y0b2hk5OZsHExWVaDhNovHWdkEIlYyCiDEw90jquoi82j3ayWLWLgRd+QlKYioK4a6612dUVflU/iPi1FP1GeeB4RFDbzfshwQiNvdN4RH6ib0BGqyYq/Oh1YpN8wyEHE3KzdZPKwKHL9Cbxc7EDhnlwuNjfntPOFFwaIovMuSzWep724PxEdHj/slGC5zPARzHpFaQortGSaBwu7ATbjBob4wkKzcVVGRlJxIloEIn86dOkvzZqtx8MNYhx9t8od8+CCYN8GIlU4kHic1R05oY2VFxe9weNtOuAPYdN3htzmq7fgfpqm/qmGPLKshPI/CLfcjyJX6nrrjsVUEc0ExfpI9IGIho8yXZAzh5HGHKBkuAuKiveI8Gek42uHmMXGMLweY/FTlp/QsbZWYWAmMzrpPSS5XLzvgY1KEbafUUwBZVoCk74srsFyxZ9aS+MLdINTJzTYQcSeSgj19pOMXJ/Dd2BeByaqXZBfth2M73vxtPYh+Y0/D17EcYBJnbROKSh69cjQwC7Gf6J6olyuviRHtdOTp/KyDIqKsZQQPg7vy9+RM4uEVFgSwn1Bsb8giEJx8o03kulfHDaX0jVJC4y5KNSEHXacCMXYm2mGZPj95586dySfAcbbWr0ZYF53uVI/beyqlo47u47QbNn1VP+7TZVsoKPKQZ+jcuC81kX/vg9165hqmKDC+nm0g4n4RuMorUJCg2Ee2WOJI8VTJ46rGjtEwrZKT/b2nz9ZN1V04/7nFGwwRU1cbLbq+2NTb2HG83S6mUNNmsfgSFcrUn12+vmT9jBV53LFnrPJDKDWM0I7FrAMRi8glR9Pjx01HMbOuHYkyElFdss/V3T6K6Hf0uMvm8dt6W3pVvzdE5sqDM4h2/BNaVRYPsEm7tFZhdRdCW21WZOzutOF8KgL5Pvcz98F4L3otgFAzhEsIRuvMl0fPsBQkHEtJpKcp6gpZvNXY4h4LXGx0JCSF7p1W2Jiw118ZZiYKF7ewW1zSXfPjaSGql4gtVmTtxhuPfsy6/8DzbLMUFPd6FZopzT4Qcb0ITI7Le0549BQGOdBTiWsQjro6Ltpn+9ynGl0uS4gWCikWl6utXY+oBIt0K8hZ8FDZxvkVbUz+9YOJLx+T5gfcsWcyjpDa5wCI2olkRHh0o8SBxN5+vKnRdTRYfeLaqP1idbeKxMMVbazGoTeAyGRRXG+uSitr4WJ0YbLaMnGGiMBsxZ6tZjZO2w+2rDEQxaZeER59CSQxjP7ae9pPVFZWnmpHunGt/eLFiz32gCHATb+C8CIsTFb7yoDgRHXvA04E+dUzwBdAXltTIOyY/3KzcuQcYizXCITd4bj2lnnwTLbx9DSdnN1K24/Yz/spzszTmWDqwa1AQ6bXrYFTnwfiiTYOpVKQ+GjyHp84E2Tp+nuOI7MGS++3sGWnKyRKpRBBZHkfwpuGlIesYdiLKIsVseLGxdInTPczzHemWEMSCsKCrPjKVwlFbJ2wWoLIclEW7+K+lXUg4ioL6qobqu58rQnZ7LWROK8qCgVZmU8X6TcdLNE2SwgbkLrvIvKQOdta1LIwJffzCtJTG46tFY+Yph+ivh9SrGjLrGaxokXVdq+Ih84oNKJMwibM5tao2ptYWkEggUsYg1orHvF5/RhnqyrJhbSFV1ObJJ78oQMTLHj++VoWFoQkQlumX8EoYdaBIMwSCjIUN97e4cATuVb31k5yHnpBHCKvbm5xcoYsniLzdQaIJJep9uKYiDiTkC0gwmYJBQnHkpd71XbH18pcXdeyZr2pKizWKlIZdmBbts7xLoN7mX7IpyINyf5c1vTcz3iQOtq2vgY4oB60hlkX5AVcQfyr2zUeBlvy05KzbeTnHHtM3O4g2iFZn+2dM3gQocG1rjWwWDTB8zXbUr7Yo1PQywYsVqcixNTHQ63HS/0U0cKlMaC1AbIpoSuI8RbfC9RzWgMcdC+l4MHvJuIuPR5b9WkGFjd3csc+FF7yQAIJir24Agw+PftAqIkrkvTk56qWronIMo1YXODgRSwUw00pCLdFPLOMPHCIO2hSJPXznUl+iCqbQMQckE+rYhnWdZ61WHqyCISVY9x0ia7AoZ9j0zxIbPVdeR4502a1EVGzS+3T0VKnSlZ2gYjrvRXbXOoy753Ps2ixQIPd9/1EaMfiiFeNRKImHo/JKf6DWH5o9OtGny5mTrI8l5XwTRj6IPyhOsui/qzA4LpxZ1woh+DhVfRqGyI+M1v86oLMFfloKTfd6bBUIZN2QYsLEbJey8LViikbhWHskqZHMhuqAb9hpEE4nhCPkNb17zCVZc6Pu8re1KMc4lJMny3C08IsAhHX3/vqtU568iN1wefF6p1sGKrrdyZnhKVa6M/HTnsjGg9/t6ljDTBHdOZODM5CRZZxIVkH8jZNATENNiaF6EV/ZXHBYmXaidtJNYw0eLw7dcmv6Dwa0ZgyO2zXwsxfBFsruIoYmOnDLXxHU/aBQEGwk+Sx8W+HvxxOqGXUYgEHd+KpadBlSRdaNH8ewti2GR7cBM/HB+x3FqfAjTNAEVQWs30sWijIF1x/DXfasGVhmcMBv0E0BIFk7zFz2qblH0GPowlj26YXNYxRFVfUUvEQph6xF0NyWQYCBeFVE6NLvzNVm8hcjAUcYZFvpMIx9uTTFr+qcPWIOsUt4KbWNuob74JWpMIGMy0sFg96swdEhFiUFBoTVygInhNPNGN1rFgctaqZpWjAWD35tNZrCYaYfVEcLe3pmGqJT/KarzbLnBzI6NMUusUCj6wBEWdDIiGa/dHNqZBJWm+IrDBTlfXJpRwH0cA1lC1eb5BFRLLsogvF4mnblmwL8SRT1Q7mGy1WVJTeswmEkvQ5/aTOkDu5cVYXzFRWiEOMqKynpoFLKMemzl7q9VsUtiBb9vgX3ctg3mZRKiJ2iSSX6PkihyBvp2cVCCnIummKXoylNlJuXDUuezNjsUg9UsMYmxzHhbm9Ua+NaYcihVz+DhrujqdtomjeZkWU6BWx/kjM47GN49xiZQ+I6BViT8X8Tp/FyltrobH/DAguzZ5JCWOs7uzp2qDXb40oIXazuNURbWqPwXukcaSIsvCQUBGyWYKW3nrhFiuLQEQ3HTFvqlmlSTSVM7RtEh9Kajt1+vPeqN+bUJhyBOWI19Vb2ZOuEVWRGzKLRKKo8CJD8SQF4ec9sXNxDYC8PB/zItpI+nsjg5IzE2Ml8YBVxz2C5y/1Wvxe3MGuhBgNj9dl7Thhn00XDjEGxzVABFriV+QKwu4qpt5Utk0WGoW2+UsMRgxjTHzZZAb1Q8S3F07XRrDfPBJkqhHySJ6og65liBl2nafJZlHJl0RGW447T6EgfJUyH3vPNhAkhUrIekW0BoSCULKafoslfm0u/Jr1WhzBUjkMOvejeolGexi3roczcpMOn6OGMHvNf3XhQfQ1sW9lGwhWamDTItV5xepd8RiRxfKkd9ekqO8JHGMXvpJwII7bqYhHki0uh9p2vN2dqXH6uH7Z2/wpPsT786TEAXVmsbIHRGxwkFDnNVqsMEpssFgdsfR/HOPCWE2Onf084U8EFa4aMlTD1dt0oie+Uhor+x9PTmE/WUTVIl/vlZ/gpcSp0rE6TFOIGCurGgKXLhuHlPhjPHYhI/cFxsXg9DhwWKAcPL71aKphH4WlWqFuhPti7pVsauCtdeHWZ8O87ihOlfKFAdkDInbOiFFXw3yGX1FQ7c6QA0Eht+6S1cvSjYjsibr8pBphfi3Din9s4GbfyjY18J2KJHgiH+NpJK/JDRYcvliUlV0g5NIT2lxlPDmdHcPT2zSaoZNQdMv6eckfCrLSiM3l5Jf5wFCtkIZYRjiELytwInz5EiSERtUQnUaaFAoi1jJlEQi59OktfLZBt1ii5kmrrxRYrHBmMhA8h5/7bXwwNOSSQGN1qiGG2+IjOM35zE5E7N9mNmvE/nTeo1+gbgmmG0xceWTGpfPWrciNRFZ41pKgzT+ZiLBgrs5KfhblRiS/evyadpmPGYljR+rN8AqcCD/6w1dNDsW1RqFhhXJWgcCl0+yFcagyzoJerz/td0Lg0dSnFqyaejhw/fSoGRoi0BpiawFW7ESURPDcLFNdfsNcKMRceraBbNZc+scGi8UtC1yIHyOb6ffo4PEEUwssI5f81lNPA2lK/uLYWjsSCMeeTVFFJoL9RV/0cYPFb+YXN1VkCYhw6ey+kBSdfujvVIu30Z5eixVza1Mktf4gK1cFHeJ29nQRmV0+/oWL5Bsh5oF82cdwsFY6eNAhhGwDoc4UK7wTDkNryg7VldO+zRuGkLlzbYqEmuTxtBpFEOGLGpafPeGz1ByIx9kxX81hZV7eCckmEFF4pyTE2EyngxQWJw7ept2jEw8v5+HqbWddwOwSEY9Gi+5EQqpUNyb6IJA5xLxZB7IRvXT0lFMdt2M+3dHtTvPHRavhxzUeEdnRcS39m1HicU5keSCij0snTj6dnBF7O1DGgoJkFwiy9Hfm+G21EGwfNQC5lOZDIaR2dMoD/oM+goirEt48A4MsT0fYAdvl/i6LvHrQf5oB0RnRAGnWgWDYRG8VCoslOv3jtf40F3p56Q5bwinatUZPkLnKhLjPIdaKL78BmA3vclG8l2CyeF8KwkbeswdE9NIVNZjaYtEO3mBbZu52Ih6S19eesUVOo8fRlF2+eCKOyBGQWu7RCYiYsM4iEOyb0W595DFWzHDQqM6Z3tbUwkXLkr+FNitnRrCF8AwZ4WXVlV8FxCRk7Z3Sr1IXm3qzC2R9SosljrVcmE5voZcUhC5JCYEH9mRmjAftyXF8Zsx0Uy2qr50PsxJy3fi8xrBGSPaAiPlRLFYRFstwiKIpkO6QF+VKi8KO3NDIdOYk3NhmOPJs7MqIcTlIxHZhjJ+Cp7Ii9uZmGQiNx23hMVbqExJIQy6mN8aa1GecwcMNHhmUQPXRL/CYLaOwi8KsiOXs/CAKu8Il60BeAZD5rDCc4tOrs8fSHPLy3xiHMtyjGeWBDc8T4uqmnwkxML8o4t6z6NuSR+GnCrMMhOqKqqpPm4ykWls79XUgnt6QlxpxEfjztgzzAJB27/9v7+x+mli3P56jiPIqL5Km9M/4/T16SwwxAglB3IYYlWDgqiQkpSSmAaKJxPv2rrdc9aLcgtM2yGT6RqfTHWqzx993Pc88XdApu9VB2pr9mLOP5+y9sZ3PrPf1rCVetVK+Rb4XWxbqfu9Tob+4MHVrQDivSBeIlMZyVfW+Hl/ctEUnFW2kgwdM+rdZ9aJGIhJvAYT9XpwtKldxkH5rQDivSIWy5hoLxeVvX26EB+cqpcdr+oM7pePq7yWCWtNukfxH9h6bAlHrgOTxgweneW8PCOcVc7qcLnHYzCM6/3DDAiK36Z1ozw5EG0P+tzJJhDUN0s93o5oCubrWmsjw3sLbA8ID5FArdLX/cK63ijRdPs+FPK8ur9M5ULSzocW1nbMbbhB1DYiMRjKzLCLX1pJVIMKnNgYFcntAuLlBjChSGssN5OOFnMXr6cGxz484U9UealoSrXBrB9R79fti9Y3IxjLf8r4GiOwn5cP7um8PCDc3qDD9sJk4n2Iby97a0tL89s5ZoupdQNToMZxi1jD8YLKIYf5A8pvcrKSBfkQWkeYfSiV3+Vh3sCOvA0BQCZEXI6TGcrU4JQ62F3fLyehGNL2/iAyK91uWIo2qTq4IJtGyuBX1m9wsNaEbjlZLIAFbHM4q3iIQvpduU/FWLnpurLnRqqJkVKONB7rh39jHrjWvMaFbWZu6maR7g8B/80ASB0GfLk1kKf9vQMiw1fptdcSYgA4AGeYlki4tWz37Mb+1oRm60jApzaK6iPcrfY0nRzdrn12UDn78BiShWFY2nEEBtAJyv2arM9YZINBYskGONRaLx14oWtYNPSUPuCB+vFkB4aObG6HZT9UbjEF5m5whnZbDi+s+lgJi35u2pLvBFv3WgLDGMv2puOsaW/7sx7NyGjBqyYw8G+UTQ096yTOiv4MtiEtKUrHYzOHng+rNIqliO5YuJxa6nEj3XtKRBwVhQGDROwNkuKBqUw0aq1raCUXNiBHN2OGFlzOzszMvl4PppK6FE14ERCZNrjl6Fntv4j9uWEjOniYN0gFcfLsWCFoUsTOQk1i3DYQ11su6xmJvMZVOpaLRzbl1/C1xPh9sv9I0HZ7WrwsIxSA5+7pTxAYJck9vVkL+D0BYZzXP9sqZcda0fCA1vn5wi0B4E0JqY7ZRY5XmtXIkkFlekSwgPnF0AZbOtoMZ6CwPaXfS1HSmmiMROz0+Vas36Watxgz7X3UWgMhIvXBXZFppMlZHgEBjEQ/TH4nLSJbfqqWkHYlZKO0I7+vT7N723kHpIg9FpqOF8ZddrPpgkULFas5EyEj84gYNSeJtwMyhQ5T9rCZA5EisSj+KdRyC3C4QXnsrZzfQh+WqzoaJpZDrYuLzp51X+7GYZu8+Q7I8X9r+RSPC7U94AUfuDd61mjMROz24Tdr7qX4v1HK8/JqPe/l7ZZBe0Zporu4AkEm6d8tRCMSZV3iepJJhITafdt4/eZLWkppZ3thHEFJNzF9XPqw65/qprHKUNJJE9KeP3CcmU02IzNwokfx3PGraBnrIN1/cTWJitj86GsZqlDPpCJBJR2PVp4pX6/Y8bSK2JR7xz2vl4LO17e2lcNqXStMO4IsdBcS9GUycC/yPa9rRaDKbc91iUjAZnAaSBiZFI7bCzRY3saSVEuvFE22FjYi7KUlUDK1higO4CnKrQPBnjtZ49xe5hCr5o/uNYkzMhCwt7a79KCHX+xl7PH2pDWoovbh2d97O3vb23o68ONtUUZNJV9ctJgST8dG7lUIDEZHI4RfEcw8Y5XGbjvDjV0VeMxRvygO+LnWrQKCv+ioikWRSrvdyP1YYka3MxiXmn+WRYUpUtxfDm7t+VE3yTXGclbBdMhy0/JpWtoLhpb0zgHOXgqkwleM6nGQyOXSXFRcrLQoabqhCKa9H4d4HJxjdYQhZt8IDjNp/QH0NtwiE5aOfNhvpul3TRb1AbUktrUV1ZEioDJ3YXhOe1V4onUwny8VcrYggpNn+1WfIB6e1gG1QCjIdDcgJY+7ODjXGhT1vgWS6wjRc6/o8z+KipIhcUAO5+7cwRIjufcph3T6QCREBZXUE4nYmae/H6+9jfleTubi/UQYp0eu/baUN4yRbRKrcPQ4Iympn0cpkkmXLMKxyOpr06ymTMoWKCG99EK8qD0VgJOODBSUkvNCS29s8VmCOhGuXg2m6xqqfnsstx/TJJibx6W4XCDfHGYGN5dn19dnNZHTlE5lqFhA5MetCmJSCpjvZJlNrTL/j0tOS/QQXy+dhPXb29raXXiHBYqaKmU1ouqtqQU4Kcw9FICTD04Upl4jEb2asogRCilladbfVV/vrSTjw4W4fCEL0u9aU4bNhO+i8fDJXz1eE0ifio+NdEogS4ajDwy0hlPEKP8ktbh/TtlU6+C8sKA6kjdRGuHpZRqj3Bwtt+IJYA5LxgQoTkQ+P7ZpHIO8cIDAi7rxMlW069VXj1+0C4Qshpu2HJ4WDV/HVQimv+sqyIvlLNlVVQOsOaa1h6Wy+tJfNLIqL5fmqPPkfcLL2NpO1SGYR/yw3E8n0ndJYbiITMq3HU3lwDr3x4L23ppiaEW5aFJU2/U3a5HjwVoHwHc8N8RaKi+kHz5RJX4TG2lhmk5oIp+tAzHLwQLz1zCMZ3C6dXQ0Gq7TTe83SIlFkvdhuqr2DpBeaexl98DKcY+bKXFP2DERm/M1AJN4UiEqcFO51Cgh6sZyc++HLhRWxeX/n+EL6iFtlEx67UrbwsNRqCPc6G5iX2OZxs7s2Vfx7Qc0mfLxxmS4Zc7fstX4fr+EVwYj3c0pjd2V8s9Lsrog0ITU2bp0AMlqRK0KWMxnIMQeFpLFyOrsjQmJsedyb/avBxbOL5p5QvrSz70/SNR9W07Ct/9ZbMwnDVrfsOg9S83bg3tGboAxTYyDCn80sDOAjdApIf8GgcHglE9PL6/wpq6VnUcOEiyNSF7JDoKwKfI2L5AFrsUnzDqszS1MiAq3Qxv7rSSSS2M8SqRvP0SFknq4GqR0h7r4B/myV0Q4A4WF+iMXhXWUWdjMsx9JiGGmgkkAgMbGTusYy/ZTLYoW1t6hSJGht5FMnspameq8a2iDu5vMmwGt9Dcd/EALsMaXFw9fwHZSSbra/Xji9tbFOAcGbOJWj+sA/y4//WXiyIi2dapkxxahxGbnnS0tRZdJde8sT2wrPBU4CLi+ds/o4viruymwmuEQqd5f+S3MN8hb1TdV8wy7v1eutA6FxeUzYrbHwpnYKyGCFWuMgIfF/HjMQ2VSWc0bQlPLimSYvAWlocEBal1Dkj4+PP3xAYhHdjUtr23vHZ/CCnZ8mRQqhsDIhpBdaVcx4hC47e56BqEIcAXFP+HDC9M4AmYCAOLEwRhjtZiQQtun18shFlVTYCTu9mObQuA4Hi7tOT7/RQHA0N9JJ2hgHl4dtERbpCYwOghBoLKGmObHYcpk75QLpxPPem+3VGuOT8nojEJp1iU6YMmV6OyAhfENHiC/Oy0z5MpC1tFFveZg/TlQvA2kY24s4/sMX2vix+mbLh8Siaeh0xCzR3bVEokoisjFfomQYhofI+xciGG61DoCOKmN6z8LzoGR8sxUBxN1worHGulUg/BaSgaMAJFi21iENdSDJOpC/lzbPLs4W6yqrGJAj5bjO8OXbt6PT1fc2FklkTWwdOcmK/EpWN7RoWNw9PwuhAA/L9OZc3ILmGxct2i5kXH3I0+28eL3nX1eztgNkjoFwSockyCZd2hkgNFHcgkYQQOY2csG4sJwNQPBrJ7O583ktozcPQi4+fv8mR4nmkAeWA5bKekriy2K4zx5QlJY2S1VSXe9Pj3jFQOvGJJwsdKpHq85TGuycsksKCI/sVoMuRzoBhA0nXCkCspAs06DeOpDt9IlMwpH0vN4Irh2H1dJZnzTQLOo0SjSrFbMKWDIYyWS0lFRxulbcKyEWeXUmrLvvL6f/B1dg2mndo0RHygFy7PX6Q1MgbNKFRuMEQgeAwNlXjWMhX5IkpVRVoYW/mBPam2hBOqLhxaL4NrottjLz94QpxCjRWpZzHcvx+Ozj3Uw55RDZOkhcHCwJXXgWrpzL3aWTLYE8lN21qIKv82QJb82SDGTBAcLyIwWEvb9OALlfBxJP6fBxuVqY2NkPmKbfURbxcDQSKxsogyBYLMM8X46m4Ezu02w+xSO6eShs8ExwwyEShXTkt50Y8Qksf5u7S5H1letuVjwBYRFAt2RR5WMagCgBgeh2EMhgHci603PDXyCkZfEoqaeM8ovPk2WzmM35sGZor3Tli4CHrnGIosco04EDjMuO2TnR8O/k630TYpok8qlt3Xl0CnzegVRVVlMl9Q9d7SYQEJ613xEg/QykgICdfX0yv0lDDSfF+Twfssple+vV9o8rBv0DebFAp07RdJ4eoMCVTkYaA3tyn1vcomTHV0gINKdHIFwNRJhRd6UP8wzLER87J52NzgBx0hO6vAe566unpDkydJbs4MDaoyy7d9C4Zgg9oXL22JWwWp6/Edv4DeEn7ys/Ge4WJY3ZhLS6pg0gkFNPQNiLQj2EgdB35b9JzQ1yA1sngTxwgOAsJ524kK8baScqjyS6585wEtXGYIryIKaueJgBmn2meKw8WVgQWstIU5zOoNmEtFwKACCQXY9eFmfRFJB0+G8Cwu+VbIThD9YRIDTknTKfpF7mMta6BMJdpLqtllaIVJK7DxEVhlWYiFrS5IKr5CE01uaTlbgdMGVoz96C32xTMcjQkIHkPdp03jFFt/FR+mFYqoppjXQSCL6wXI789yxSWVkVF3IXkMEqyNX4Ib8I8lKGL7JAqpmbRCSOf2Zi2gy0VoqMyKWqujAirU0IdRlAghmIt16gqpPWZCD1hUaUxXJaKTlt0jEgcnTDwvo/y5FDlZ3g2DCXM4QC5zsK1ct2UsxWglpbz6Qcmw4XQeL4e3YzqqP8ehgpZwEE2Xeep2BwIqu1jWMgZ1VvowTdQFh4aL093z7oJBD5Ui/P/BMJHTqeIDtaeM7oEIKPo9YZVoWPxQvbcMmDEKyXi3Jme62IOwRUTZoLZ5KRcjSQmSMRMdJ1IHmoQqPQlqaeoPFdbNQRN3gzIbLbpaYKIp+PXQNn0EHaeQkRdnghNJdZVhV1TuKGoylKTM2JOyPVKnCcre0lquqlI89dJ57xCAUX5kkyW86UM5vrc7vAEcnsLu9mUsv+nOP3ckc9l9NbuuXs9h56HX4qHam7NellQQOqGF1NtZsqkGnrNBAqkULT25kF123oxEEoqpsG3Wf7nKAa4PFa6NllAcEeOdkvECyf2CfGxsv4+suQnowRjmTyMUgtbPiFUScbopIydo0HfLbchcWBYTzvbXy2rMRk+wOWAFIXuFN1e0iWBDoORKjouUwQ1lulFpnI8auoZtCNT3SIzi9tFlLouebsD7r7U2nkxhHFaCemiVAfZ66cMiKRWGaTGlbIndbZy5KUIz6T8xOtNplw6iR+7NGEyLbd+wJIdDle5YwKDEjOdjLQHQdCjU8wAhhc1GxGVmIN8zTSgZP0E5zgEnqvWAkgzCrKQAVADDMpfreg2dlIOROaJdsucjK2KUu+PEdMM/mrt5YQ0za5Vc7ThhJxr3G0ZolcFviqlONbkc6xWW47GIc4PTGH4WRxXdht14iT4+3FUHA/GNpcQj2WxJxTEXB5YUEkENmmvh7KnKTsTHDmUIiHyOtTivFy4ymAZLk81cqoc/odQLxuxFhFr8u9msz24suKEJ3mzovcDwtIZyN12RMz+2S5eW6ieoFbUAc7B3k06l5Nj1LYK5JdVG701YrUBbwbjaQ2/OiY4HB9NqNntVD+UuXuefqkHW094ZTVsz6C7jFQl0P1/4JNH3YaswCE1C7P6eVCSGdzWc4lyFlMRofNaL4t8yKRaLgvSMEURqKfxNYFkJTtj+A6w+NMxJ9ZXhc4FJB1P0wolxihsuDR8C6nNj8fAcl7me5IYQjVKgdGnNut4Is7buDxxjV3tCNAWCXA/3YKQImlayb8wON1t/Y/TZtqSvxKUi/aZQ2V24A1JwNDBpIN6LwDhrSESOKNtAFkAqkdmQiU7WFeTIiKCwdHCqIe8rKUFzyoEYtwcJ9Yh4CwF5PTnQlAZ0vZg3a/tRCQopwbQomwlF2OlXUDNp5xOCprIyW6hvjhAAjXQ1o5HTx/xfuaRFJOoyMVURDYK4EHObz1FvKxLgBCFUOqqsOqH346m3/SxmB3FhDNlP0gALCQidjB8G6yLE37FSBQY0JjsX0FEC6UtlguI/W9xzCEHBBn70RleFh4buW90geSj3daMcdDmDoOZFTWSGvZnc+l42dp6lFve3jMa5+4rUAnrvvt2cPDw9lgNAKjwkQcjzhwWRMenxIQ+v7ttPHh8EAcbxpL5EcKY1T1KgaMnQ9kzxWPKeFldB7IPafRRttdmw8ldY1UffsCYpvZ0PJjnLCWii0fkr0IZ8ohquAqJqTNIulw4kqhCI2LXHdoXaACdo+X2uD0OgvqrdokvYRmeesL8XiRBg+26J0HIr8xiJSTSU0vb7X7nasQEADJxTJP6MSokhVGtyziwkw0vC5Q0IF9CcdSVJ3K7/HD2fK1CWS4wOUQL9WQvFyITiMFH5CaptU5iD/gXzn2oybioi4AMl5TRAwja2Tm2xWQD1SchuCHFl7Oza7MUOIhldxdIRAz5Whwbv1Q6awZCEgIlfSD+URVqnOxwaYlEL6SUCzSnTbK9XrpyFJOVp9wZLLp90fYK6p40NWIbgDySIyc4TEWy4ftVhxO0VslfV4hDLsxA5olFpghTbVilTM2VNnM3Ozs3GPZKY/JQTBPUtmd0+0QBtLS5+CL0d40FmwIAqAhim3E+rW3IsF7SWF1ARAZiPD9YzacLQXEZ8oh8eKEkzoRrWXCcwgOAydb1pMMHfyVCpIJul0C6ZPusmjtZaPespfUQPpSVJC9NPUSDyGaI4/oHTS1VbVXFEe+Hd0ARLlZqpmvleXkvDuaxFVTOtmJNAGxMVgroyUzWe2v1fdBzC7df76vm1nhKSRC+KssS8DTNPl2SOvMSUr2HuOTedRYaPOBaqJ2yFxAf6FrdR5IKnYNEMeqc8MI7oK0HhlC4xLVQFnSJhGf8+X0VNE8ib45Ojp6u7q6ev7OJ7oWq6iBUDuwzOVR8ZprpS17MJTXW8p701iyw2HAcaWzPrkmnEPCrgDCLf9Owo0K1/nW+0kp/UONNKrbZ0NXFzTNWur1i+9fyYX5ir4aO+vX0ZGFOnrorD6wDeaHH0I7ceGcsOkeNZas395XF7NQchZHJXm7A4hU09x0SIO9Di+YyDWJOuqBlc9JtcOlHF8tFgjsfxO1OdqDHajBZZ0X10I02HRCqarX5NZMtN6pyHc+43lPPhYO5Xqyw4+G2GqyxzvRPUDGWEJkE1bLzeMQELiP3LCFxvmY4dw8XAxp2psjCMg5eFiBIll02S1BsbrsVcMoOWq3aTcM4QFNHjUWdZBNj0vPDYcNCL0a3QJEiIhdn6yXii5Tuw0lpv9VQPb9lwVkVmosSpOfbW9k/W++neI8tcFDoxZSNFiXd/MygdHejU/2OGQ7gpgm4SWPpUxIP6Z2XJUQS1yB7h4gSHEP2pUCm5Fl4WJW89fgEIWpdywgdJbR4Ui1+Zx/r5SY15Lp/TcvXjwPBGBmdNEpn3j1ZKkEHlKVoazNJqSd0c6PvYSF8jVQJgSvgRggzkc4F10EhD7N2FC/xUQ2SUGgZynf7MudkYAg9ZFjAUEtxMhZ6K0xooslmtq/ue9Pp9OaofujIWxGl41Ye2c/nJKE0lgT7QVJUhS9pHqlSZO2a0w4CnxqQlK7Cggh4QwKef3BWZHA/ZzPNyiu/Nnx9o9LAuKcTUSFtT4qc5GdqJbOdpaCthFIJ/eX8mfEYw8Nv6W80ORyfh6/l62GTIjrDeteTAj1tTs+hlZEG9zIVR6DCHe6DQjmtHLAjvBC23h8SK9+/POP4zzdQFfaCjP550sfaBB3kQVE1KYKD/oKqls0v7a5r/msrc15zL8GoAR6GnzbyGDJxyLazy1qEGxjy6VqdCUT4qlBTl5Xg9MrnCzm0U/vY9cBcbJ46hh6ZndOPO3DT58xnAFU8JjzGHxV3k1AQKBzdHEdEUcUaE2Y6P6KvrHkJEfoHsnOgdy4hj6izbQv9PHcCQVIb3CqonXQqm5AelyfL8egIm9Cdol5DFCE3oVAJuT1St7eUUZSiqQEUUn802e86NUSbEMSE4AwnQJZkxMtPBuXpSlKY1nTwwGLW6+cGcrgSFbnFcosfx05PKjhhkOx1rMgVTEELa4eTTr5WOgq4Qkq1D5JKd5uBOLc5uNzkoplQjPrXPg7XHlml5OLpWNxH8TWI77k7vLLl4+Xg5pO7QFw7hkIDwLKJ368SqaQ6qZHgnrpW/DgtZlt5XoN6uv1UJzCOm55tnww4GzTweN/1PjSnUCUiPAxUlrGWp5ZiaMwG1+fW0hFMXH8IPHlG1Rx0Uhixw6VpjJ0Mxcmug8JGKGyGgdlHWBspl9/C7Xx9ej0/F0KPLiFto1Oa2lCqOHk1++xse0ae/RohHlME48uBcJW5DISO5pJpnZDoWA5sxFI+ay9Et24xaOPibrty5m5uWDApC/X7x76JxdX7aI9qPzu9OvR92+rL7a0gMlrGtu5raNMSDzvJUpX0c/dSc5ugwdFQl0LRPWkNaywSxl+LaaViyldL/vJgNAA5BS7vOgSFWsXB0SOI73NGVlSVxh/SWn53Ovnz5+/3g9gDkrRSVeMtQMEYz9UFAKn16OAID2A10C5k6Sv6DN0LxAxU8+yXSeH0q5xUjQRc4PHOYV1pihx01FJxUK/iH6zGFRayiszAif5VdIvclwaxYl+O2teyua1OfYDWch1L1enpIDg5naxlkNVkBYeSB53SF91MxCehuQ6xRMRc0NfnVOQHqFUBohQuVyXJelRaYCMNP6phOhyPMMWyv2oIREUs1kaEcTZo/E2BETtdt8UGsuDi6Vqt1gFAhPi8HhA/lV3A1G5PPcJpDeC8xeYoCE6/1JJZ9rG4eOMYQqLMDBcUNni/fmDBN3r2Vvaivr1pnw5W9G6q5IXS/zi+B92eRGUq6+I+IN4dDuQCfIzbfcxIuH5g/wXiuygiQ3qA8aJz4UyelE+4JFhRRKrbPfDi4uvdrHSVjev4dEvTFZbiRMMLvCgsaqnnHfPCVdbGspKH/HueiB4BkSkQUhM3/uvHz+efvuGrrKjFxqW0+zOzNAeQ0xfqq9+Zw+tSDmsJNZZKBxuHlx+aF2dklNR43kvHpbQs2L6kEjG1GwYd/z4HgBCz2nILtTshvP66dsj1De+rj6ntkuznMGJ+lKGWtz7UIbUdSQ4PBrIzQMGpG0FCo31y1GhY0DOhQFxFOW9Sq1gDdE37QkgpLXGHriWc2na1vsXL168rsmpFEVnFy4dZyULbEhbZ8quAN9ku3eJkOn1r//qbei6Qaf6v/Ik+gqFOyNUsO0RIHIbVaABiWn60jiarbSQq74zNtUejoI9ytqiDadXT8pVAB54iDm8qvPq4XSlT7wQvQNEFEcGAw1rBYtZHDPXRAPRBhDRrtMOjkL/WJs8xMs8xXtXvPCQ1z+sEeHYD9GP7ikgcu3QqFj12PohC0XAqclrWYBGxe4ffsTaoh2TnvWLyfM/rbCqrK8gH+BBq2Pojx4dodpPjwGRSCaHBwMtidQs2RKLx+eGMGVZlowDrUKlYj+4P0Y/+SdH3T3+lSCkeqECdLpuIAXbGhYvDlHpPSD04KSlnvp3HgXbKcS6RWSqULlzp2YTk9qdgcGhsQkqTP5cV35OZN450ds2D6dazNcNVAmfPm1PApFrBYcKVu16GrZVuQsNoDKzAxW7pmCQgro79PDh+NjIyNjY+ENVJ/658ozs//l5Abk4cOJBum4g/W+uv/QsEJncaghKpuq/QKPyv1EoAY6rB61KwRIaCgpq4N7kVbrcSdC2gEiTjrG1P2s+vqtq8Wu1HlxkM3seyCMnKJm65CZV5CnY/+u795A1gPjdyODdmmVBQ/WPjuH/AYNJQWLyF+uXagvsz6mrar2nYXWf29vH/ggg9CWG7hQKlhAKuF33743eHxwcvD96bwQ0rhpIEoHJ8ZGREaGhwMLTizBlqab3z/lfU1dH7ywfePD92j8BCH2Nh0OYZlSANpruG2kwMu5mIvUbLzhUntcMWLyAqV3vqq6uzt+kaybf/vhTgEh3a3x4aGhoeJyeNJ/mN2w8sHC3/zwWAnLxE+KhvN3TVdyOKl65rvaHAGFJYAn4nak5LibnTN5Q1rZ41NWVTeajGxQWA7lZJji39aXI3Z6SzQ3tC0j1snjgMqdd5yGH/v9ZQG7v8EqE3AkLSDs4qko8jo7e6dql7L8lPKz/gPzy4TsIbbtYWEf2QTlXpyjaBLKN2ej/gHjgMVxQG0MQg7SHA9rqXGqr8xeWli021u//A+KBh5oC+VIsDW9HW+VZWz3dorUyjMMWBv0/IB6AyDXRBnYytJfFgvH4WtdW7zXf1dox8Zj4D8ivHp5OhCxWWwvUsa3vVGmrty/stGlerYiNUgLhPyC/djipSGne1stC6CbRh7rx+PZu3/F1uVhjDXUBj14GQiFhpSYvppPL29qWn3+TOL6/20oHrmqrWqE23Hl91dtAVJkLvaotmuMgHcDx3cHx9emWMh58Kg/GO27PexyIai7WYyG26K1xfH/6GjiKjbXl+xPdwaN3gaj2+xzvJmt+GAc8q3Pg0JQt5+El08OPuoRHzwJBBILRP0phcW9cU1NOODDeBqZ8qwkOq9A33hXmo5eBTNASSbnXI3TIHpYbB9ZSnwscGAD1Yj/tUzj4VKbvdY149C4QZdBxv5dXxblxVOHoAgc1fq++0dO+bCOOqYI1iGXo3cOjR4GoK45y22g839zPzVMXvjAd3/96b8PRLboaxSoPusd69DAQ5WCBx4IyIC7TcfxRRuVHp2/fvS5rtqvDvgZtNfSoe6xH7wJB0daWE5NhQNSQQZef+5VwfD2FriLTkW3SWW/fH+8y8ehJIBPC4Z0Sa/GNdbdBh66qkmN1LoTj6XPSVWYTHFbfWNeJR08CAY9pwePETM5Kg+7WVcBBluPNvubWVaSsClb/CH5Ut4lHLwJBRvF/okGyqGfmFA8WDri5X2HJoapgOfxpv2m6cExJHF3lW/UuEPC4Ax6yKEU8GoQDUQfaSI6gqrJpLUd+lduU290qHb0HZIJ5IEKXPDgGPBDCcXr67a/3+2nUAs1mN1Qqdl/XSkfvAbnMY4F4sHDkIRxE45wMR9qfdVsO0d8aGBzrZhw9BoTsueKxrHiAhhSOc0Fjy0dObrHpHbnKndHx7lVWvQcE8UfAmlI84O+ChuNWIVcFTXUtDdn8PXDvYbfj6CUg0DPDMv4wRZtiKS9VFdyqc7Li7/fLaV8RNJoLRw2mo/tx9BAQhHD3LMHD0GHP4z/ypKo+fDw9Ojpfffdch91gGi7heABd1Y1hYO8CoQvxBRmf1zIzZD5gOD5+OTp/+9eL13ZaC7CmcglHoG+Y7m/2Ao6eATJJ40HlnGAtNofZ5qSqYDXePYdLpdl8Kd4lHPbAUK8IRw8BQX1wQObb9Y3gSvzHMQzH6rv3W4E0YnGm4Yo5CnfujzzqGeHoGSCUTrwj6lG5XHT58+ePX94ChqmlfbmsW1Hxzd5pqKpeEo5eAYKHeq9WEDyK1rOD7Xfv921N89kMo6lX1T803hNuVc8BwRO9T+acgASC4UoM8xiLgJG7BsaUBRowHD2mqnoFCGWvBoQ5l0TSAYMlo6ndIBpjRKPnhKMXgOCZDk9fGnfG+dvmwyIKgX5BY6I3aXQ7EIjH5H2KBlufKaKB8QSkqSZ6UFP1BBAa9/CgYrfkUSOzYd8dHJYzCLqghf3PBILnOmpbUEStRSPQPzoy2aNWvGeATDwavosxKRVr+loWgCFEA4qqd614rwDBsqH+fjEnpc+6FkZhWonGHyAbXQ6k3jHFPFhLCRiBgfvDD/8c0eh+IMJbGv5f5SoLshmQDMAQemrijxGN7gcyQSl3x+llwahYGLD1h8LobiB42GMDcHqVXBCLwIPBIZq99UdZjR4BQtPQkFKsOQYDLPogGFJ0/iij0StAHo31A0MF/6nd7YdcjDuc/mQY3QxkYhRbhh4MDI4CxaRi0eNBeFvn/wFV4uhjKc2vWAAAAABJRU5ErkJggg==;" vertex="1" parent="1">
          <mxGeometry x="-270.00000000000006" y="-1066.5" width="135.94" height="139" as="geometry" />
        </mxCell>
        <mxCell id="ILyfzjguqehABtg-XD1y-15" value="" style="dashed=0;html=1;shape=mxgraph.aws3.cloud;fillColor=#F58536;gradientColor=none;dashed=0;" vertex="1" parent="1">
          <mxGeometry x="-1010" y="-1550" width="120" height="80" as="geometry" />
        </mxCell>
        <mxCell id="ILyfzjguqehABtg-XD1y-12" value="" style="outlineConnect=0;dashed=0;verticalLabelPosition=bottom;verticalAlign=top;align=center;html=1;shape=mxgraph.aws3.virtual_private_cloud;fillColor=#F58534;gradientColor=none;" vertex="1" parent="1">
          <mxGeometry x="-1010" y="-800" width="120" height="80" as="geometry" />
        </mxCell>
        <mxCell id="ILyfzjguqehABtg-XD1y-47" value="RDS" style="text;html=1;align=center;verticalAlign=middle;resizable=0;points=[];autosize=1;strokeColor=none;fillColor=none;fontSize=30;fontStyle=1" vertex="1" parent="1">
          <mxGeometry x="206" y="-943" width="80" height="40" as="geometry" />
        </mxCell>
        <mxCell id="ILyfzjguqehABtg-XD1y-77" style="edgeStyle=orthogonalEdgeStyle;curved=0;rounded=1;sketch=0;orthogonalLoop=1;jettySize=auto;html=1;fontColor=#5C5C5C;startArrow=classic;startFill=1;endSize=11;strokeColor=#006658;strokeWidth=10;fillColor=#21C0A5;endArrow=none;endFill=0;" edge="1" parent="1" source="ILyfzjguqehABtg-XD1y-48">
          <mxGeometry relative="1" as="geometry">
            <mxPoint x="-672" y="-1160" as="targetPoint" />
          </mxGeometry>
        </mxCell>
        <mxCell id="ILyfzjguqehABtg-XD1y-48" value="S3" style="text;html=1;align=center;verticalAlign=middle;resizable=0;points=[];autosize=1;strokeColor=none;fillColor=none;fontSize=30;fontStyle=1" vertex="1" parent="1">
          <mxGeometry x="-697.5" y="-1380" width="50" height="40" as="geometry" />
        </mxCell>
        <mxCell id="ILyfzjguqehABtg-XD1y-50" value="ALB" style="text;html=1;align=center;verticalAlign=middle;resizable=0;points=[];autosize=1;strokeColor=none;fillColor=none;fontSize=30;fontStyle=1" vertex="1" parent="1">
          <mxGeometry x="-242.03" y="-1265" width="80" height="40" as="geometry" />
        </mxCell>
        <mxCell id="ILyfzjguqehABtg-XD1y-51" value="開発環境" style="text;html=1;align=center;verticalAlign=middle;resizable=0;points=[];autosize=1;strokeColor=none;fillColor=none;fontSize=40;fontStyle=1" vertex="1" parent="1">
          <mxGeometry x="340" y="-630" width="180" height="50" as="geometry" />
        </mxCell>
        <mxCell id="ILyfzjguqehABtg-XD1y-62" style="edgeStyle=none;rounded=0;orthogonalLoop=1;jettySize=auto;html=1;fontSize=45;fontColor=#3DFFFF;endSize=13;strokeWidth=15;fillColor=#dae8fc;strokeColor=#6c8ebf;" edge="1" parent="1">
          <mxGeometry relative="1" as="geometry">
            <mxPoint x="-150" y="-504.00000000000045" as="targetPoint" />
            <mxPoint x="100" y="-504" as="sourcePoint" />
          </mxGeometry>
        </mxCell>
        <mxCell id="ILyfzjguqehABtg-XD1y-52" value="" style="rounded=1;arcSize=10;dashed=0;fillColor=none;gradientColor=none;strokeWidth=2;" vertex="1" parent="1">
          <mxGeometry x="120" y="-660" width="620" height="312" as="geometry" />
        </mxCell>
        <mxCell id="ILyfzjguqehABtg-XD1y-53" value="Capistrano" style="text;html=1;align=center;verticalAlign=middle;resizable=0;points=[];autosize=1;strokeColor=none;fillColor=none;fontSize=45;fontStyle=1;fontColor=#3DFFFF;" vertex="1" parent="1">
          <mxGeometry x="-797.5" y="-450.14" width="250" height="60" as="geometry" />
        </mxCell>
        <mxCell id="ILyfzjguqehABtg-XD1y-54" value="&lt;font color=&quot;#000000&quot; style=&quot;font-size: 30px;&quot;&gt;Route53&lt;/font&gt;" style="text;html=1;align=center;verticalAlign=middle;resizable=0;points=[];autosize=1;strokeColor=none;fillColor=none;fontSize=30;fontColor=#96FFFF;fontStyle=1" vertex="1" parent="1">
          <mxGeometry x="-267.03" y="-1466.25" width="130" height="40" as="geometry" />
        </mxCell>
        <mxCell id="ILyfzjguqehABtg-XD1y-56" value="&lt;b style=&quot;font-size: 30px;&quot;&gt;ACM&lt;/b&gt;" style="text;html=1;align=center;verticalAlign=middle;resizable=0;points=[];autosize=1;strokeColor=none;fillColor=none;fontSize=30;fontColor=#000000;" vertex="1" parent="1">
          <mxGeometry x="-126.37" y="-1350.25" width="80" height="40" as="geometry" />
        </mxCell>
        <mxCell id="ILyfzjguqehABtg-XD1y-57" value="User" style="text;html=1;align=center;verticalAlign=middle;resizable=0;points=[];autosize=1;strokeColor=none;fillColor=none;fontSize=40;fontColor=#000000;fontStyle=1" vertex="1" parent="1">
          <mxGeometry x="-900" y="-1660" width="100" height="50" as="geometry" />
        </mxCell>
        <mxCell id="ILyfzjguqehABtg-XD1y-65" style="edgeStyle=none;rounded=0;orthogonalLoop=1;jettySize=auto;html=1;fontSize=45;fontColor=#3DFFFF;endSize=13;strokeWidth=15;fillColor=#dae8fc;strokeColor=#6c8ebf;" edge="1" parent="1">
          <mxGeometry relative="1" as="geometry">
            <mxPoint x="-590" y="-504.00000000000045" as="targetPoint" />
            <mxPoint x="-340" y="-503.99999999999955" as="sourcePoint" />
          </mxGeometry>
        </mxCell>
        <mxCell id="ILyfzjguqehABtg-XD1y-69" value="" style="edgeStyle=orthogonalEdgeStyle;html=1;endArrow=block;elbow=vertical;startArrow=none;endFill=1;strokeColor=#545B64;rounded=1;fontSize=45;fontColor=#3DFFFF;endSize=13;entryX=0.5;entryY=0;entryDx=0;entryDy=0;entryPerimeter=0;strokeWidth=10;" edge="1" parent="1" target="ILyfzjguqehABtg-XD1y-22">
          <mxGeometry width="100" relative="1" as="geometry">
            <mxPoint x="-770" y="-1736.67" as="sourcePoint" />
            <mxPoint x="-670" y="-1736.67" as="targetPoint" />
          </mxGeometry>
        </mxCell>
        <mxCell id="ILyfzjguqehABtg-XD1y-73" value="" style="edgeStyle=orthogonalEdgeStyle;html=1;endArrow=block;elbow=vertical;startArrow=block;startFill=1;endFill=1;strokeColor=#545B64;rounded=0;sketch=0;fontColor=#5C5C5C;endSize=11;fillColor=#21C0A5;curved=0;strokeWidth=10;" edge="1" parent="1">
          <mxGeometry width="100" relative="1" as="geometry">
            <mxPoint x="-100" y="-1038.42" as="sourcePoint" />
            <mxPoint x="160" y="-1038.42" as="targetPoint" />
          </mxGeometry>
        </mxCell>
      </root>
    </mxGraphModel>
  </diagram>
</mxfile>
